<svg xmlns="http://www.w3.org/2000/svg" width="375" viewBox="0 0 375 375" height="375" version="1.0"><defs><clipPath id="a"><path d="M 221 103 L 374.910156 103 L 374.910156 304 L 221 304 Z M 221 103"/></clipPath><clipPath id="b"><path d="M 211 104 L 236 104 L 236 326.238281 L 211 326.238281 Z M 211 104"/></clipPath></defs><path d="M 373.671875 276.199219 C 373.738281 290.3125 362.820312 301.800781 349.289062 301.863281 L 247.855469 302.316406 C 234.320312 302.375 223.300781 290.984375 223.234375 276.871094 L 222.582031 130.679688 C 222.519531 116.570312 233.4375 105.085938 246.972656 105.027344 L 348.402344 104.574219 C 361.9375 104.511719 372.953125 115.898438 373.019531 130.003906 L 373.671875 276.199219"/><g clip-path="url(#a)"><path fill="#38B6FF" d="M 373.671875 276.199219 L 372.511719 276.199219 L 372.511719 276.324219 C 372.511719 283.050781 369.910156 289.132812 365.699219 293.539062 C 361.492188 297.949219 355.699219 300.671875 349.285156 300.703125 L 247.851562 301.15625 L 247.855469 301.15625 L 247.746094 301.15625 C 241.339844 301.152344 235.527344 298.457031 231.292969 294.066406 C 227.066406 289.675781 224.429688 283.597656 224.394531 276.859375 L 223.742188 130.675781 L 223.742188 130.558594 C 223.742188 123.832031 226.34375 117.75 230.554688 113.34375 C 234.765625 108.9375 240.558594 106.214844 246.976562 106.1875 L 348.40625 105.734375 L 348.410156 105.734375 L 348.507812 105.730469 C 354.917969 105.734375 360.726562 108.425781 364.960938 112.816406 C 369.1875 117.207031 371.824219 123.28125 371.855469 130.007812 L 372.511719 276.203125 L 372.511719 276.199219 L 373.671875 276.199219 L 374.832031 276.191406 L 374.179688 130 C 374.140625 122.664062 371.269531 116.015625 366.632812 111.207031 C 361.996094 106.394531 355.582031 103.410156 348.507812 103.414062 L 348.394531 103.414062 L 348.398438 103.414062 L 246.96875 103.867188 C 239.886719 103.898438 233.488281 106.914062 228.878906 111.742188 C 224.265625 116.574219 221.421875 123.226562 221.421875 130.558594 L 221.421875 130.691406 L 221.421875 130.683594 L 222.074219 276.875 C 222.113281 284.214844 224.984375 290.863281 229.621094 295.675781 C 234.257812 300.492188 240.675781 303.476562 247.746094 303.476562 L 247.863281 303.476562 L 349.296875 303.019531 C 356.371094 302.992188 362.769531 299.976562 367.378906 295.140625 C 371.988281 290.308594 374.832031 283.65625 374.832031 276.324219 L 374.832031 276.191406 L 373.671875 276.199219"/></g><path d="M 361.011719 267.589844 C 361.066406 280.027344 351.433594 290.160156 339.507812 290.210938 L 250.105469 290.613281 C 238.179688 290.667969 228.457031 280.621094 228.402344 268.183594 L 227.828125 139.328125 C 227.773438 126.886719 237.398438 116.769531 249.328125 116.714844 L 338.730469 116.316406 C 350.660156 116.257812 360.371094 126.296875 360.429688 138.734375 L 361.011719 267.589844"/><path fill="#38B6FF" d="M 361.011719 267.589844 L 359.851562 267.589844 L 359.851562 267.695312 C 359.851562 273.585938 357.566406 278.914062 353.878906 282.777344 C 350.1875 286.640625 345.117188 289.023438 339.503906 289.050781 L 250.097656 289.453125 L 250.105469 289.453125 L 250.007812 289.453125 C 244.398438 289.449219 239.3125 287.085938 235.605469 283.246094 C 231.898438 279.398438 229.585938 274.078125 229.5625 268.179688 L 228.988281 139.324219 L 228.988281 139.308594 L 228.984375 139.222656 C 228.988281 133.324219 231.265625 128 234.953125 124.140625 C 238.644531 120.28125 243.714844 117.898438 249.332031 117.875 L 338.734375 117.476562 L 338.738281 117.476562 L 338.828125 117.46875 C 344.4375 117.476562 349.523438 119.832031 353.230469 123.679688 C 356.933594 127.519531 359.242188 132.839844 359.269531 138.742188 L 359.851562 267.59375 L 359.851562 267.589844 L 361.011719 267.589844 L 362.171875 267.585938 L 361.589844 138.726562 C 361.558594 132.222656 359.007812 126.332031 354.898438 122.066406 C 350.789062 117.800781 345.097656 115.152344 338.828125 115.15625 L 338.722656 115.15625 L 338.726562 115.15625 L 249.324219 115.554688 C 243.042969 115.582031 237.363281 118.253906 233.273438 122.535156 C 229.183594 126.824219 226.664062 132.722656 226.667969 139.222656 L 226.667969 139.347656 L 227.828125 139.328125 L 226.667969 139.335938 L 227.242188 268.1875 C 227.269531 274.695312 229.820312 280.585938 233.933594 284.855469 C 238.042969 289.121094 243.734375 291.773438 250.007812 291.773438 L 250.109375 291.773438 L 339.515625 291.371094 C 345.792969 291.34375 351.46875 288.664062 355.558594 284.378906 C 359.648438 280.089844 362.171875 274.191406 362.171875 267.695312 L 362.171875 267.585938 L 361.011719 267.589844"/><path fill="#38B6FF" d="M 343.34375 139.203125 C 343.371094 145.167969 338.558594 150.015625 332.613281 150.042969 L 255.753906 150.386719 C 249.785156 150.410156 244.9375 145.605469 244.910156 139.652344 C 244.882812 133.6875 249.6875 128.839844 255.65625 128.8125 L 332.515625 128.472656 C 338.460938 128.445312 343.316406 133.25 343.34375 139.203125"/><path d="M 343.34375 139.203125 L 342.183594 139.203125 L 342.183594 139.257812 C 342.183594 144.554688 337.894531 148.855469 332.605469 148.882812 L 255.75 149.226562 L 255.753906 149.226562 L 255.710938 149.222656 C 250.398438 149.222656 246.09375 144.945312 246.070312 139.648438 L 246.070312 139.597656 C 246.070312 134.300781 250.347656 129.996094 255.660156 129.972656 L 332.519531 129.632812 L 332.535156 129.632812 L 332.566406 129.628906 C 337.851562 129.628906 342.15625 133.910156 342.183594 139.207031 L 342.183594 139.203125 L 343.34375 139.203125 L 344.503906 139.199219 C 344.46875 132.617188 339.128906 127.3125 332.566406 127.308594 L 332.5 127.3125 L 332.515625 128.472656 L 332.511719 127.3125 L 255.652344 127.652344 C 249.0625 127.683594 243.75 133.015625 243.75 139.597656 L 243.75 139.683594 L 244.910156 139.652344 L 243.75 139.65625 C 243.777344 146.234375 249.125 151.542969 255.710938 151.542969 L 255.761719 151.542969 L 332.617188 151.199219 C 339.183594 151.171875 344.5 145.832031 344.5 139.257812 L 344.503906 139.203125 L 344.503906 139.199219 L 343.34375 139.203125"/><path fill="#38B6FF" d="M 343.484375 171.222656 C 343.511719 177.175781 338.703125 182.03125 332.757812 182.054688 L 255.894531 182.398438 C 249.929688 182.425781 245.082031 177.609375 245.054688 171.660156 C 245.027344 165.703125 249.832031 160.855469 255.800781 160.828125 L 332.660156 160.480469 C 338.601562 160.453125 343.460938 165.261719 343.484375 171.222656"/><path d="M 343.484375 171.222656 L 342.324219 171.222656 L 342.324219 171.265625 C 342.324219 176.558594 338.042969 180.871094 332.75 180.894531 L 255.886719 181.238281 L 255.894531 181.238281 L 255.847656 181.238281 C 250.542969 181.238281 246.234375 176.949219 246.214844 171.65625 L 246.214844 171.605469 C 246.214844 166.308594 250.492188 162.007812 255.804688 161.980469 L 332.664062 161.640625 L 332.710938 161.640625 C 337.992188 161.640625 342.300781 165.917969 342.324219 171.226562 L 342.324219 171.222656 L 343.484375 171.222656 L 344.644531 171.210938 C 344.613281 164.632812 339.269531 159.320312 332.710938 159.320312 L 332.644531 159.320312 L 332.660156 160.480469 L 332.65625 159.320312 L 255.796875 159.667969 C 249.207031 159.699219 243.894531 165.03125 243.894531 171.605469 L 243.894531 171.695312 L 245.054688 171.660156 L 243.894531 171.664062 C 243.921875 178.242188 249.265625 183.558594 255.847656 183.558594 L 255.902344 183.558594 L 332.761719 183.214844 C 339.332031 183.183594 344.644531 177.835938 344.644531 171.265625 L 344.644531 171.210938 L 343.484375 171.222656"/><path fill="#38B6FF" d="M 343.628906 203.238281 C 343.65625 209.199219 338.84375 214.046875 332.898438 214.074219 L 256.042969 214.417969 C 250.078125 214.445312 245.222656 209.636719 245.199219 203.683594 C 245.164062 197.726562 249.976562 192.875 255.941406 192.847656 L 332.800781 192.503906 C 338.75 192.476562 343.601562 197.28125 343.628906 203.238281"/><path d="M 343.628906 203.238281 L 342.46875 203.238281 L 342.46875 203.289062 C 342.46875 208.582031 338.183594 212.890625 332.890625 212.914062 L 256.03125 213.257812 L 256.042969 213.257812 L 255.996094 213.257812 C 250.6875 213.257812 246.378906 208.976562 246.359375 203.679688 L 246.359375 203.617188 C 246.359375 198.328125 250.636719 194.03125 255.945312 194.007812 L 332.804688 193.664062 L 332.855469 193.664062 C 338.136719 193.664062 342.445312 197.941406 342.46875 203.246094 L 342.46875 203.238281 L 343.628906 203.238281 L 344.789062 203.234375 C 344.757812 196.65625 339.417969 191.34375 332.855469 191.34375 L 332.785156 191.34375 L 332.800781 192.503906 L 332.796875 191.34375 L 255.9375 191.6875 C 249.355469 191.722656 244.039062 197.046875 244.039062 203.617188 L 244.039062 203.714844 L 245.199219 203.683594 L 244.039062 203.6875 C 244.066406 210.269531 249.414062 215.578125 255.996094 215.578125 L 256.046875 215.578125 L 332.90625 215.234375 C 339.472656 215.203125 344.789062 209.859375 344.789062 203.289062 L 344.789062 203.234375 L 343.628906 203.238281"/><path fill="#38B6FF" d="M 343.769531 235.257812 C 343.796875 241.207031 338.992188 246.066406 333.042969 246.09375 L 256.1875 246.4375 C 250.21875 246.460938 245.367188 241.652344 245.339844 235.699219 C 245.3125 229.738281 250.121094 224.890625 256.085938 224.863281 L 332.941406 224.519531 C 338.894531 224.492188 343.746094 229.300781 343.769531 235.257812"/><path d="M 343.769531 235.257812 L 342.609375 235.257812 L 342.609375 235.304688 C 342.609375 240.597656 338.328125 244.910156 333.039062 244.933594 L 256.183594 245.277344 L 256.1875 245.277344 L 256.140625 245.277344 C 250.832031 245.277344 246.523438 240.992188 246.5 235.6875 L 246.496094 235.65625 L 246.496094 235.640625 L 246.25 235.648438 L 246.496094 235.648438 L 246.496094 235.640625 L 246.25 235.648438 L 246.496094 235.648438 C 246.496094 230.351562 250.777344 226.046875 256.089844 226.023438 L 332.953125 225.679688 L 332.964844 225.679688 L 332.988281 225.675781 C 338.277344 225.675781 342.585938 229.957031 342.609375 235.261719 L 342.609375 235.257812 L 343.769531 235.257812 L 344.929688 235.25 C 344.898438 228.667969 339.554688 223.359375 332.988281 223.355469 L 332.925781 223.359375 L 332.941406 224.519531 L 332.9375 223.359375 L 256.082031 223.703125 C 249.492188 223.730469 244.175781 229.074219 244.175781 235.648438 L 244.179688 235.734375 L 245.339844 235.699219 L 244.179688 235.703125 C 244.207031 242.28125 249.554688 247.59375 256.140625 247.597656 L 256.191406 247.597656 L 333.050781 247.253906 C 339.617188 247.222656 344.929688 241.875 344.929688 235.304688 L 344.730469 235.304688 L 344.929688 235.308594 L 344.929688 235.304688 L 344.730469 235.304688 L 344.929688 235.308594 L 344.929688 235.25 L 343.769531 235.257812"/><path fill="#38B6FF" d="M 343.914062 267.277344 C 343.941406 273.234375 339.132812 278.082031 333.1875 278.109375 L 256.328125 278.457031 C 250.363281 278.484375 245.511719 273.671875 245.484375 267.71875 C 245.453125 261.761719 250.261719 256.910156 256.230469 256.882812 L 333.085938 256.542969 C 339.039062 256.511719 343.890625 261.324219 343.914062 267.277344"/><path d="M 343.914062 267.277344 L 342.753906 267.277344 L 342.753906 267.328125 C 342.757812 272.617188 338.472656 276.921875 333.179688 276.949219 L 256.320312 277.296875 L 256.328125 277.296875 L 256.277344 277.296875 C 250.972656 277.296875 246.664062 273.007812 246.644531 267.714844 L 246.644531 267.65625 C 246.640625 262.363281 250.929688 258.0625 256.234375 258.042969 L 333.097656 257.703125 L 333.140625 257.703125 C 338.425781 257.699219 342.730469 261.980469 342.753906 267.28125 L 342.753906 267.277344 L 343.914062 267.277344 L 345.074219 267.273438 C 345.046875 260.691406 339.710938 255.382812 333.140625 255.382812 L 333.074219 255.382812 L 333.085938 256.542969 L 333.082031 255.382812 L 256.222656 255.722656 C 249.640625 255.753906 244.324219 261.085938 244.324219 267.65625 L 244.324219 267.753906 L 245.484375 267.71875 L 244.324219 267.726562 C 244.351562 274.300781 249.695312 279.609375 256.277344 279.609375 L 256.328125 279.617188 L 256.332031 279.617188 L 333.191406 279.269531 C 339.761719 279.234375 345.074219 273.898438 345.074219 267.328125 L 345.074219 267.273438 L 343.914062 267.277344"/><path d="M 74.09375 131.355469 C 74.035156 117.234375 84.964844 105.757812 98.484375 105.695312 L 199.917969 105.242188 C 213.453125 105.175781 224.480469 116.5625 224.542969 130.679688 L 225.199219 276.871094 C 225.257812 290.976562 214.339844 302.46875 200.800781 302.527344 L 99.375 302.984375 C 85.84375 303.042969 74.8125 291.652344 74.75 277.542969 L 74.09375 131.355469"/><path fill="#38B6FF" d="M 74.09375 131.355469 L 75.253906 131.335938 L 75.253906 131.238281 C 75.253906 124.507812 77.859375 118.421875 82.070312 114.011719 C 86.285156 109.609375 92.078125 106.886719 98.492188 106.855469 L 199.921875 106.394531 L 200.019531 106.394531 C 206.4375 106.402344 212.246094 109.09375 216.484375 113.484375 C 220.710938 117.875 223.347656 123.945312 223.378906 130.683594 L 224.039062 276.875 L 224.039062 276.871094 L 224.035156 276.988281 C 224.035156 283.710938 221.425781 289.792969 217.222656 294.203125 C 213.007812 298.609375 207.214844 301.335938 200.796875 301.367188 L 99.367188 301.824219 L 99.375 301.824219 L 99.269531 301.824219 C 92.863281 301.824219 87.050781 299.128906 82.8125 294.738281 C 78.578125 290.34375 75.941406 284.269531 75.910156 277.535156 L 75.253906 131.351562 L 75.253906 131.335938 L 74.09375 131.355469 L 72.933594 131.359375 L 73.589844 277.550781 C 73.621094 284.886719 76.503906 291.53125 81.144531 296.34375 C 85.78125 301.15625 92.199219 304.144531 99.269531 304.144531 L 99.378906 304.144531 L 200.804688 303.6875 C 207.882812 303.652344 214.289062 300.636719 218.898438 295.800781 C 223.511719 290.972656 226.355469 284.3125 226.355469 276.988281 L 226.355469 276.859375 L 225.703125 130.675781 C 225.667969 123.335938 222.792969 116.683594 218.152344 111.875 C 213.515625 107.0625 207.097656 104.074219 200.019531 104.074219 L 199.90625 104.082031 L 199.910156 104.082031 L 98.480469 104.535156 C 91.40625 104.566406 85.007812 107.578125 80.394531 112.414062 C 75.777344 117.242188 72.933594 123.902344 72.933594 131.238281 L 72.933594 131.371094 L 72.933594 131.359375 L 74.09375 131.355469"/><path d="M 86.769531 139.960938 C 86.710938 127.519531 96.339844 117.398438 108.261719 117.34375 L 197.671875 116.941406 C 209.601562 116.890625 219.316406 126.925781 219.375 139.367188 L 219.949219 268.226562 C 220.003906 280.65625 210.378906 290.789062 198.449219 290.84375 L 109.042969 291.242188 C 97.113281 291.296875 87.398438 281.25 87.339844 268.816406 L 86.769531 139.960938"/><path fill="#38B6FF" d="M 86.769531 139.960938 L 87.929688 139.941406 L 87.925781 139.847656 C 87.925781 133.957031 90.210938 128.632812 93.894531 124.769531 C 97.585938 120.914062 102.652344 118.53125 108.265625 118.503906 L 197.675781 118.101562 L 197.757812 118.101562 C 203.371094 118.101562 208.457031 120.460938 212.167969 124.304688 C 215.875 128.152344 218.1875 133.46875 218.214844 139.371094 L 218.789062 268.234375 L 218.789062 268.226562 L 218.789062 268.332031 C 218.789062 274.21875 216.503906 279.546875 212.820312 283.40625 C 209.132812 287.273438 204.058594 289.65625 198.4375 289.683594 L 109.039062 290.082031 L 109.042969 290.082031 L 108.945312 290.082031 C 103.335938 290.082031 98.253906 287.722656 94.542969 283.875 C 90.839844 280.03125 88.527344 274.710938 88.5 268.8125 L 87.929688 139.953125 L 87.929688 139.941406 L 86.769531 139.960938 L 85.609375 139.964844 L 86.179688 268.820312 C 86.210938 275.324219 88.761719 281.21875 92.875 285.488281 C 96.980469 289.753906 102.675781 292.402344 108.945312 292.402344 L 109.046875 292.402344 L 198.453125 292.003906 C 204.730469 291.976562 210.410156 289.292969 214.496094 285.011719 C 218.589844 280.726562 221.109375 274.824219 221.109375 268.332031 L 221.109375 268.21875 L 220.535156 139.363281 C 220.503906 132.855469 217.949219 126.960938 213.835938 122.695312 C 209.726562 118.425781 204.03125 115.78125 197.757812 115.78125 L 197.660156 115.78125 L 197.664062 115.78125 L 108.257812 116.183594 C 101.980469 116.210938 96.300781 118.882812 92.21875 123.167969 C 88.125 127.453125 85.605469 133.351562 85.605469 139.847656 L 85.609375 139.976562 L 86.769531 139.960938 L 85.609375 139.964844 L 86.769531 139.960938"/><path fill="#38B6FF" d="M 104.433594 268.351562 C 104.40625 262.394531 109.207031 257.542969 115.164062 257.515625 L 192.027344 257.171875 C 197.992188 257.144531 202.839844 261.953125 202.867188 267.90625 C 202.890625 273.859375 198.085938 278.714844 192.121094 278.742188 L 115.261719 279.085938 C 109.304688 279.113281 104.460938 274.300781 104.433594 268.351562"/><path d="M 104.433594 268.351562 L 105.59375 268.308594 L 105.59375 268.296875 L 105.421875 268.300781 L 105.59375 268.300781 L 105.59375 268.296875 L 105.421875 268.300781 L 105.59375 268.300781 C 105.59375 263.003906 109.867188 258.699219 115.171875 258.675781 L 192.03125 258.332031 L 192.070312 258.332031 C 197.375 258.328125 201.679688 262.613281 201.707031 267.910156 L 201.707031 267.90625 L 201.859375 267.90625 L 201.707031 267.902344 L 201.707031 267.90625 L 201.859375 267.90625 L 201.707031 267.902344 L 201.707031 267.945312 C 201.707031 273.238281 197.421875 277.558594 192.117188 277.582031 L 115.257812 277.925781 L 115.261719 277.925781 L 115.210938 277.925781 C 109.917969 277.925781 105.617188 273.636719 105.59375 268.347656 L 105.59375 268.308594 L 104.433594 268.351562 L 103.273438 268.355469 C 103.300781 274.925781 108.640625 280.246094 115.210938 280.246094 L 115.265625 280.246094 L 192.128906 279.902344 C 198.714844 279.867188 204.027344 274.523438 204.027344 267.945312 L 203.875 267.945312 L 204.027344 267.953125 L 204.027344 267.945312 L 203.875 267.945312 L 204.027344 267.953125 L 204.027344 267.902344 C 203.992188 261.324219 198.648438 256.011719 192.070312 256.011719 L 192.003906 256.011719 L 192.027344 257.171875 L 192.019531 256.011719 L 115.160156 256.355469 C 108.574219 256.382812 103.273438 261.730469 103.273438 268.300781 L 103.273438 268.386719 L 104.433594 268.351562 L 103.273438 268.355469 L 104.433594 268.351562"/><path fill="#38B6FF" d="M 104.292969 236.328125 C 104.261719 230.378906 109.066406 225.523438 115.019531 225.492188 L 191.878906 225.152344 C 197.84375 225.121094 202.695312 229.933594 202.722656 235.882812 C 202.75 241.847656 197.941406 246.699219 191.980469 246.726562 L 115.121094 247.066406 C 109.160156 247.09375 104.316406 242.289062 104.292969 236.328125"/><path d="M 104.292969 236.328125 L 105.449219 236.285156 L 105.449219 236.269531 L 105.28125 236.273438 L 105.449219 236.273438 L 105.449219 236.269531 L 105.28125 236.273438 L 105.449219 236.273438 C 105.449219 230.988281 109.726562 226.679688 115.023438 226.652344 L 191.890625 226.308594 L 191.933594 226.308594 C 197.234375 226.308594 201.539062 230.59375 201.5625 235.886719 L 201.5625 235.882812 L 201.5625 235.933594 C 201.5625 241.234375 197.277344 245.539062 191.976562 245.566406 L 115.117188 245.90625 L 115.121094 245.90625 L 115.070312 245.90625 C 109.773438 245.90625 105.472656 241.628906 105.449219 236.320312 L 105.449219 236.285156 L 104.292969 236.328125 L 103.132812 236.332031 C 103.15625 242.917969 108.492188 248.226562 115.070312 248.226562 L 115.125 248.226562 L 191.984375 247.886719 C 198.570312 247.855469 203.882812 242.507812 203.882812 235.933594 L 203.882812 235.878906 C 203.851562 229.308594 198.515625 223.992188 191.933594 223.988281 L 191.863281 223.992188 L 191.878906 225.152344 L 191.875 223.992188 L 115.015625 224.332031 C 108.433594 224.363281 103.128906 229.710938 103.128906 236.273438 L 103.132812 236.363281 L 104.292969 236.328125 L 103.132812 236.332031 L 104.292969 236.328125"/><path fill="#38B6FF" d="M 104.152344 204.3125 C 104.121094 198.355469 108.917969 193.507812 114.878906 193.480469 L 191.734375 193.140625 C 197.699219 193.109375 202.550781 197.914062 202.578125 203.875 C 202.609375 209.828125 197.796875 214.679688 191.839844 214.703125 L 114.980469 215.054688 C 109.019531 215.078125 104.171875 210.269531 104.152344 204.3125"/><path d="M 104.152344 204.3125 L 105.308594 204.277344 L 105.308594 204.257812 L 105.226562 204.257812 L 105.308594 204.257812 L 105.226562 204.257812 L 105.308594 204.257812 C 105.308594 198.964844 109.582031 194.660156 114.882812 194.640625 L 191.746094 194.300781 L 191.753906 194.300781 L 191.789062 194.292969 C 197.089844 194.292969 201.394531 198.574219 201.417969 203.878906 L 201.417969 203.875 L 201.417969 203.925781 C 201.417969 209.214844 197.132812 213.519531 191.832031 213.542969 L 114.976562 213.894531 L 114.980469 213.894531 L 114.929688 213.886719 C 109.632812 213.894531 105.324219 209.605469 105.308594 204.308594 L 105.308594 204.277344 L 104.152344 204.3125 L 102.992188 204.316406 C 103.007812 210.894531 108.351562 216.207031 114.929688 216.207031 L 114.984375 216.207031 L 191.84375 215.863281 C 198.421875 215.835938 203.738281 210.496094 203.738281 203.925781 L 203.738281 203.863281 C 203.707031 197.285156 198.367188 191.980469 191.789062 191.980469 L 191.71875 191.980469 L 191.734375 193.140625 L 191.730469 191.980469 L 114.875 192.320312 C 108.292969 192.351562 102.988281 197.6875 102.988281 204.257812 L 102.992188 204.351562 L 104.152344 204.3125 L 102.992188 204.316406 L 104.152344 204.3125"/><path fill="#38B6FF" d="M 104.003906 172.296875 C 103.976562 166.339844 108.773438 161.488281 114.738281 161.457031 L 191.59375 161.117188 C 197.558594 161.085938 202.410156 165.898438 202.4375 171.851562 C 202.464844 177.808594 197.660156 182.667969 191.695312 182.695312 L 114.835938 183.035156 C 108.875 183.066406 104.023438 178.25 104.003906 172.296875"/><path d="M 104.003906 172.296875 L 105.164062 172.253906 L 105.164062 172.242188 L 104.914062 172.246094 L 105.164062 172.246094 L 105.164062 172.242188 L 104.914062 172.246094 L 105.164062 172.246094 C 105.164062 166.953125 109.4375 162.644531 114.742188 162.617188 L 191.601562 162.273438 L 191.648438 162.273438 C 196.949219 162.273438 201.25 166.558594 201.277344 171.855469 L 201.277344 171.851562 L 201.277344 171.902344 C 201.277344 177.199219 196.992188 181.507812 191.6875 181.535156 L 114.824219 181.875 L 114.835938 181.875 L 114.777344 181.875 C 109.480469 181.875 105.179688 177.585938 105.164062 172.289062 L 105.164062 172.253906 L 104.003906 172.296875 L 102.84375 172.300781 C 102.867188 178.875 108.203125 184.195312 114.777344 184.195312 L 114.839844 184.195312 L 191.699219 183.855469 C 198.285156 183.820312 203.597656 178.476562 203.597656 171.902344 L 203.398438 171.902344 L 203.597656 171.902344 L 203.398438 171.902344 L 203.597656 171.902344 L 203.597656 171.84375 C 203.5625 165.273438 198.226562 159.957031 191.648438 159.953125 L 191.578125 159.957031 L 191.59375 161.117188 L 191.589844 159.957031 L 114.734375 160.296875 C 108.144531 160.328125 102.84375 165.679688 102.84375 172.246094 L 102.84375 172.335938 L 104.003906 172.296875 L 102.84375 172.300781 L 104.003906 172.296875"/><path fill="#38B6FF" d="M 103.855469 140.28125 C 103.835938 134.324219 108.632812 129.46875 114.589844 129.445312 L 191.449219 129.097656 C 197.414062 129.074219 202.265625 133.882812 202.296875 139.835938 C 202.320312 145.792969 197.511719 150.644531 191.550781 150.671875 L 114.691406 151.011719 C 108.734375 151.042969 103.882812 146.234375 103.855469 140.28125"/><path d="M 103.855469 140.28125 L 105.015625 140.234375 L 105 140.234375 L 105.015625 140.234375 L 105 140.234375 L 105.015625 140.234375 C 105.015625 134.933594 109.292969 130.625 114.59375 130.605469 L 191.453125 130.257812 L 191.496094 130.257812 C 196.796875 130.257812 201.105469 134.539062 201.136719 139.839844 L 201.136719 139.835938 L 201.132812 139.839844 L 201.132812 139.886719 C 201.136719 145.179688 196.847656 149.484375 191.539062 149.511719 L 114.683594 149.851562 L 114.691406 149.851562 L 114.636719 149.851562 C 109.339844 149.851562 105.039062 145.570312 105.015625 140.273438 L 105.015625 140.234375 L 103.855469 140.28125 L 102.695312 140.285156 C 102.730469 146.855469 108.0625 152.171875 114.636719 152.171875 L 114.695312 152.171875 L 191.554688 151.828125 C 198.136719 151.800781 203.453125 146.457031 203.453125 139.886719 L 203.453125 139.832031 C 203.414062 133.253906 198.078125 127.9375 191.496094 127.9375 L 191.425781 127.9375 L 191.449219 129.097656 L 191.445312 127.9375 L 114.585938 128.285156 C 108 128.3125 102.695312 133.660156 102.695312 140.234375 L 102.695312 140.320312 L 103.855469 140.28125 L 102.695312 140.285156 L 103.855469 140.28125"/><path d="M 212.683594 109.441406 L 212.679688 109.613281 L 213.644531 324.777344 L 213.660156 324.957031 L 223.984375 314.125 L 234.40625 324.859375 L 234.417969 324.683594 L 233.453125 109.523438 L 233.441406 109.347656 C 221.589844 101.734375 212.683594 109.441406 212.683594 109.441406"/><g clip-path="url(#b)"><path fill="#38B6FF" d="M 212.683594 109.441406 L 211.523438 109.394531 L 211.519531 109.566406 L 211.519531 109.617188 L 212.484375 324.785156 L 212.5 325.019531 C 212.527344 325.480469 212.824219 325.886719 213.253906 326.042969 C 213.691406 326.203125 214.175781 326.089844 214.496094 325.753906 L 223.992188 315.796875 L 233.578125 325.667969 C 233.902344 326.003906 234.386719 326.113281 234.816406 325.949219 C 235.25 325.785156 235.546875 325.382812 235.570312 324.917969 L 235.578125 324.742188 L 235.578125 324.679688 L 234.613281 109.511719 L 234.613281 109.445312 L 234.597656 109.273438 C 234.574219 108.902344 234.382812 108.566406 234.066406 108.371094 C 229.980469 105.738281 226.140625 104.824219 222.867188 104.828125 C 219.550781 104.828125 216.835938 105.746094 214.945312 106.671875 C 213.054688 107.59375 211.980469 108.515625 211.921875 108.566406 C 211.683594 108.773438 211.539062 109.078125 211.523438 109.394531 L 212.683594 109.441406 L 213.445312 110.316406 C 213.507812 110.261719 214.476562 109.460938 216.121094 108.679688 C 217.765625 107.898438 220.082031 107.144531 222.867188 107.148438 C 225.710938 107.148438 229.0625 107.917969 232.816406 110.324219 L 233.441406 109.347656 L 232.28125 109.421875 L 232.292969 109.566406 L 233.257812 324.65625 L 233.246094 324.800781 L 234.40625 324.859375 L 235.242188 324.054688 L 224.816406 313.316406 C 224.59375 313.09375 224.292969 312.960938 223.980469 312.964844 C 223.660156 312.964844 223.359375 313.097656 223.144531 313.324219 L 212.816406 324.152344 L 213.660156 324.957031 L 214.816406 324.886719 L 214.804688 324.738281 L 213.839844 109.652344 L 213.84375 109.488281 L 212.683594 109.441406 L 213.445312 110.316406 L 212.683594 109.441406"/></g><path d="M 223.132812 122.316406 L 223.527344 210.496094"/><path fill="#38B6FF" d="M 221.972656 122.320312 L 222.367188 210.5 C 222.367188 211.136719 222.890625 211.65625 223.53125 211.65625 C 224.167969 211.648438 224.6875 211.128906 224.6875 210.484375 L 224.292969 122.308594 C 224.289062 121.667969 223.765625 121.148438 223.128906 121.15625 C 222.484375 121.15625 221.964844 121.675781 221.972656 122.320312"/><path fill="#38B6FF" d="M 127.40625 155.058594 L 127.265625 154.75 L 64.023438 33.769531 C 56.113281 18.636719 38.949219 11.984375 25.691406 18.914062 L 11.683594 26.230469 C -1.574219 33.160156 -5.914062 51.046875 1.996094 66.171875 L 65.238281 187.15625 L 65.40625 187.453125 L 127.40625 155.058594"/><path fill="#38B6FF" d="M 127.40625 155.058594 L 128.464844 154.574219 L 128.320312 154.265625 L 128.296875 154.210938 L 65.050781 33.226562 C 59.078125 21.808594 47.988281 15.015625 36.96875 15.011719 C 32.921875 15.011719 28.886719 15.933594 25.15625 17.886719 L 11.148438 25.203125 C 6.546875 27.605469 2.972656 31.269531 0.558594 35.648438 C -1.855469 40.027344 -3.117188 45.109375 -3.117188 50.398438 C -3.117188 55.804688 -1.800781 61.421875 0.96875 66.710938 L 64.207031 187.691406 L 64.226562 187.734375 L 64.398438 188.027344 C 64.707031 188.566406 65.386719 188.765625 65.9375 188.480469 L 127.945312 156.085938 C 128.496094 155.800781 128.722656 155.136719 128.464844 154.574219 L 127.40625 155.058594 L 126.871094 154.03125 L 64.863281 186.425781 L 65.40625 187.453125 L 66.410156 186.871094 L 66.261719 186.613281 L 3.019531 65.632812 C 0.429688 60.679688 -0.800781 55.425781 -0.800781 50.398438 C -0.800781 45.480469 0.378906 40.777344 2.589844 36.765625 C 4.800781 32.757812 8.046875 29.445312 12.222656 27.261719 L 26.230469 19.941406 C 29.621094 18.171875 33.273438 17.332031 36.96875 17.332031 C 47.019531 17.324219 57.394531 23.589844 62.992188 34.300781 L 126.230469 155.265625 L 126.355469 155.542969 L 127.40625 155.058594 L 126.871094 154.03125 L 127.40625 155.058594"/><path d="M 9.933594 81.363281 L 65.238281 187.152344 L 65.40625 187.453125 L 83.660156 177.914062 L 28.199219 71.820312 L 9.933594 81.363281"/><path fill="#38B6FF" d="M 9.933594 81.363281 L 8.902344 81.898438 L 64.207031 187.691406 L 64.226562 187.730469 L 64.394531 188.023438 C 64.703125 188.566406 65.386719 188.765625 65.9375 188.480469 L 84.195312 178.941406 C 84.472656 178.796875 84.675781 178.558594 84.765625 178.261719 C 84.855469 177.964844 84.832031 177.652344 84.691406 177.378906 L 29.226562 71.28125 C 28.929688 70.714844 28.226562 70.496094 27.660156 70.792969 L 9.394531 80.335938 C 8.828125 80.628906 8.609375 81.332031 8.902344 81.898438 L 9.933594 81.363281 L 10.472656 82.394531 L 27.703125 73.386719 L 82.09375 177.425781 L 64.863281 186.425781 L 65.40625 187.453125 L 66.410156 186.878906 L 66.257812 186.605469 L 10.960938 80.824219 L 9.933594 81.363281 L 10.472656 82.394531 L 9.933594 81.363281"/><path d="M 53.632812 58.527344 L 108.933594 164.320312 L 109.105469 164.617188 L 127.363281 155.082031 L 71.898438 48.988281 L 53.632812 58.527344"/><path fill="#38B6FF" d="M 53.632812 58.527344 L 52.605469 59.066406 L 107.90625 164.855469 L 107.925781 164.894531 L 108.105469 165.199219 C 108.414062 165.738281 109.09375 165.9375 109.644531 165.648438 L 127.898438 156.109375 C 128.171875 155.964844 128.378906 155.722656 128.46875 155.429688 C 128.558594 155.136719 128.53125 154.816406 128.390625 154.542969 L 72.921875 48.449219 C 72.628906 47.882812 71.925781 47.660156 71.359375 47.960938 L 53.097656 57.5 C 52.527344 57.796875 52.308594 58.496094 52.605469 59.066406 L 53.632812 58.527344 L 54.171875 59.554688 L 71.40625 50.550781 L 125.792969 154.589844 L 108.570312 163.589844 L 109.105469 164.617188 L 110.113281 164.039062 L 109.949219 163.753906 L 54.664062 57.992188 L 53.632812 58.527344 L 54.171875 59.554688 L 53.632812 58.527344"/><path d="M 63.21875 32.386719 C 55.011719 18.257812 38.535156 12.203125 25.691406 18.914062 L 11.683594 26.230469 C -1.164062 32.941406 -5.601562 49.925781 1.320312 64.730469 L 63.21875 32.386719"/><path fill="#38B6FF" d="M 63.21875 32.386719 L 64.226562 31.800781 C 58.09375 21.257812 47.492188 15.023438 36.949219 15.015625 C 32.910156 15.011719 28.882812 15.9375 25.15625 17.886719 L 11.148438 25.203125 C 6.554688 27.605469 2.980469 31.261719 0.574219 35.628906 C -1.832031 40.003906 -3.09375 45.078125 -3.09375 50.355469 C -3.09375 55.273438 -2 60.363281 0.269531 65.21875 C 0.40625 65.507812 0.648438 65.726562 0.949219 65.832031 C 1.253906 65.929688 1.574219 65.910156 1.859375 65.757812 L 63.757812 33.414062 C 64.039062 33.265625 64.25 33.015625 64.335938 32.707031 C 64.425781 32.398438 64.382812 32.078125 64.226562 31.800781 L 63.21875 32.386719 L 62.683594 31.355469 L 0.785156 63.703125 L 1.320312 64.730469 L 2.371094 64.242188 C 0.242188 59.6875 -0.773438 54.929688 -0.773438 50.355469 C -0.773438 45.445312 0.402344 40.75 2.605469 36.75 C 4.816406 32.75 8.050781 29.441406 12.222656 27.261719 L 26.230469 19.941406 C 29.617188 18.171875 33.261719 17.335938 36.949219 17.332031 C 46.5625 17.328125 56.476562 23.078125 62.21875 32.96875 L 63.21875 32.386719 L 62.683594 31.355469 L 63.21875 32.386719"/><path d="M 116.261719 209.234375 L 65.394531 187.457031 L 127.417969 155.054688 Z M 116.261719 209.234375"/><path fill="#38B6FF" d="M 116.261719 209.234375 L 116.71875 208.167969 L 68.101562 187.351562 L 125.789062 157.214844 L 115.125 209 L 116.261719 209.234375 L 116.71875 208.167969 L 116.261719 209.234375 L 117.394531 209.46875 L 128.554688 155.289062 C 128.644531 154.847656 128.472656 154.394531 128.113281 154.128906 C 127.757812 153.855469 127.277344 153.816406 126.882812 154.023438 L 64.855469 186.429688 C 64.460938 186.636719 64.21875 187.054688 64.234375 187.503906 C 64.253906 187.949219 64.523438 188.351562 64.9375 188.527344 L 115.804688 210.300781 C 116.121094 210.441406 116.488281 210.425781 116.796875 210.261719 C 117.105469 210.101562 117.328125 209.808594 117.394531 209.46875 L 116.261719 209.234375"/><path d="M 99.753906 201.484375 L 116.257812 209.238281 L 119.3125 191.269531 Z M 99.753906 201.484375"/><path fill="#38B6FF" d="M 99.753906 201.484375 L 99.261719 202.53125 L 115.765625 210.285156 C 116.09375 210.445312 116.472656 210.433594 116.792969 210.261719 C 117.117188 210.09375 117.339844 209.792969 117.398438 209.429688 L 120.460938 191.457031 C 120.53125 191.027344 120.355469 190.589844 119.996094 190.328125 C 119.640625 190.066406 119.167969 190.035156 118.777344 190.238281 L 99.214844 200.457031 C 98.828125 200.660156 98.585938 201.070312 98.59375 201.507812 C 98.605469 201.949219 98.863281 202.347656 99.261719 202.53125 L 99.753906 201.484375 L 100.292969 202.515625 L 117.777344 193.378906 L 115.371094 207.539062 L 100.25 200.433594 L 99.753906 201.484375 L 100.292969 202.515625 L 99.753906 201.484375"/><path d="M 71.972656 49.128906 L 10.070312 81.46875 L 1.320312 64.730469 L 63.21875 32.386719 L 71.972656 49.128906"/><path fill="#38B6FF" d="M 71.972656 49.128906 L 71.4375 48.101562 L 10.558594 79.90625 L 2.890625 65.21875 L 62.730469 33.953125 L 70.941406 49.664062 L 71.972656 49.128906 L 71.4375 48.101562 L 71.972656 49.128906 L 73 48.589844 L 64.25 31.847656 C 63.949219 31.28125 63.25 31.0625 62.683594 31.355469 L 0.785156 63.703125 C 0.214844 64 -0.00390625 64.699219 0.292969 65.269531 L 9.039062 82.007812 C 9.179688 82.277344 9.429688 82.484375 9.722656 82.574219 C 10.015625 82.664062 10.335938 82.636719 10.609375 82.496094 L 72.511719 50.15625 C 72.78125 50.011719 72.988281 49.773438 73.078125 49.472656 C 73.171875 49.179688 73.144531 48.867188 73 48.589844 L 71.972656 49.128906"/><path d="M 24.128906 86.28125 L 55.199219 145.71875"/><path fill="#38B6FF" d="M 23.097656 86.816406 L 54.167969 146.253906 C 54.464844 146.824219 55.164062 147.042969 55.730469 146.742188 C 56.304688 146.449219 56.519531 145.746094 56.226562 145.179688 L 25.152344 85.742188 C 24.859375 85.175781 24.15625 84.953125 23.589844 85.253906 C 23.023438 85.546875 22.800781 86.25 23.097656 86.816406"/></svg>