<svg xmlns="http://www.w3.org/2000/svg" xmlns:xlink="http://www.w3.org/1999/xlink" width="375" viewBox="0 0 375 375" height="375" version="1.0"><defs><clipPath id="a"><path d="M 66.453125 268.796875 L 313 268.796875 L 313 346.046875 L 66.453125 346.046875 Z M 66.453125 268.796875"/></clipPath><clipPath id="b"><path d="M 273.292969 346.046875 L 105.808594 346.046875 C 95.558594 346.046875 85.933594 342.089844 78.613281 335.007812 C 71.292969 327.859375 67.179688 318.351562 66.96875 308.21875 C 66.761719 297.875 70.664062 288.089844 78.054688 280.664062 C 85.449219 273.097656 95.765625 268.796875 106.367188 268.796875 L 273.851562 268.796875 C 284.101562 268.796875 293.722656 272.75 301.042969 279.832031 C 308.363281 286.980469 312.480469 296.488281 312.6875 306.621094 C 312.898438 316.964844 308.992188 326.75 301.601562 334.175781 C 294.210938 341.742188 283.890625 346.046875 273.292969 346.046875 Z M 106.367188 279.898438 C 98.625 279.898438 91.375 282.953125 86.003906 288.4375 C 80.777344 293.710938 77.988281 300.652344 78.125 308.011719 C 78.40625 322.863281 90.816406 335.007812 105.808594 335.007812 L 273.292969 335.007812 C 281.03125 335.007812 288.285156 331.957031 293.652344 326.472656 C 298.882812 321.199219 301.671875 314.1875 301.53125 306.898438 C 301.253906 291.976562 288.839844 279.898438 273.917969 279.898438 Z M 106.367188 279.898438"/></clipPath><clipPath id="d"><path d="M 190 57.546875 L 339.75 57.546875 L 339.75 223 L 190 223 Z M 190 57.546875"/></clipPath><clipPath id="e"><path d="M 190 57.546875 L 338 57.546875 L 338 182 L 190 182 Z M 190 57.546875"/></clipPath><clipPath id="f"><path d="M 263 98 L 339.75 98 L 339.75 182 L 263 182 Z M 263 98"/></clipPath><clipPath id="g"><path d="M 37.5 57.546875 L 187.5 57.546875 L 187.5 223 L 37.5 223 Z M 37.5 57.546875"/></clipPath><clipPath id="h"><path d="M 37.5 57.546875 L 186 57.546875 L 186 182 L 37.5 182 Z M 37.5 57.546875"/></clipPath><clipPath id="i"><path d="M 110 98 L 187.5 98 L 187.5 182 L 110 182 Z M 110 98"/></clipPath><linearGradient x1="-.3" gradientTransform="matrix(.69727 0 0 .69407 66.97 268.795)" xmlns:xlink="http://www.w3.org/1999/xlink" y1="55.666" x2="352.7" gradientUnits="userSpaceOnUse" y2="55.666" xlink:type="simple" xlink:actuate="onLoad" id="c" xlink:show="other"><stop stop-color="#ED008C" offset="0"/><stop stop-color="#EC008C" offset=".004"/><stop stop-color="#EB018D" offset=".008"/><stop stop-color="#EA018D" offset=".012"/><stop stop-color="#E9028E" offset=".016"/><stop stop-color="#E8028E" offset=".02"/><stop stop-color="#E8028F" offset=".023"/><stop stop-color="#E7038F" offset=".027"/><stop stop-color="#E6038F" offset=".031"/><stop stop-color="#E50490" offset=".035"/><stop stop-color="#E40490" offset=".039"/><stop stop-color="#E30591" offset=".043"/><stop stop-color="#E20591" offset=".047"/><stop stop-color="#E10592" offset=".051"/><stop stop-color="#E00692" offset=".055"/><stop stop-color="#DF0693" offset=".059"/><stop stop-color="#DE0793" offset=".063"/><stop stop-color="#DD0794" offset=".066"/><stop stop-color="#DC0894" offset=".07"/><stop stop-color="#DB0894" offset=".074"/><stop stop-color="#DB0995" offset=".078"/><stop stop-color="#DA0995" offset=".082"/><stop stop-color="#D90996" offset=".086"/><stop stop-color="#D80A96" offset=".09"/><stop stop-color="#D70A97" offset=".094"/><stop stop-color="#D60B97" offset=".098"/><stop stop-color="#D50B98" offset=".102"/><stop stop-color="#D40C98" offset=".105"/><stop stop-color="#D30C98" offset=".109"/><stop stop-color="#D20C99" offset=".113"/><stop stop-color="#D10D99" offset=".117"/><stop stop-color="#D00D9A" offset=".121"/><stop stop-color="#CF0E9A" offset=".125"/><stop stop-color="#CF0E9B" offset=".129"/><stop stop-color="#CE0F9B" offset=".133"/><stop stop-color="#CD0F9C" offset=".137"/><stop stop-color="#CC0F9C" offset=".141"/><stop stop-color="#CB109D" offset=".145"/><stop stop-color="#CA109D" offset=".148"/><stop stop-color="#C9119D" offset=".152"/><stop stop-color="#C8119E" offset=".156"/><stop stop-color="#C7129E" offset=".16"/><stop stop-color="#C6129F" offset=".164"/><stop stop-color="#C5129F" offset=".168"/><stop stop-color="#C413A0" offset=".172"/><stop stop-color="#C313A0" offset=".176"/><stop stop-color="#C214A1" offset=".18"/><stop stop-color="#C214A1" offset=".184"/><stop stop-color="#C115A1" offset=".188"/><stop stop-color="#C015A2" offset=".191"/><stop stop-color="#BF15A2" offset=".195"/><stop stop-color="#BE16A3" offset=".199"/><stop stop-color="#BD16A3" offset=".203"/><stop stop-color="#BC17A4" offset=".207"/><stop stop-color="#BB17A4" offset=".211"/><stop stop-color="#BA18A5" offset=".215"/><stop stop-color="#B918A5" offset=".219"/><stop stop-color="#B818A6" offset=".223"/><stop stop-color="#B719A6" offset=".227"/><stop stop-color="#B619A6" offset=".23"/><stop stop-color="#B51AA7" offset=".234"/><stop stop-color="#B51AA7" offset=".238"/><stop stop-color="#B41BA8" offset=".242"/><stop stop-color="#B31BA8" offset=".246"/><stop stop-color="#B21BA9" offset=".25"/><stop stop-color="#B11CA9" offset=".254"/><stop stop-color="#B01CAA" offset=".258"/><stop stop-color="#AF1DAA" offset=".262"/><stop stop-color="#AE1DAA" offset=".266"/><stop stop-color="#AD1EAB" offset=".27"/><stop stop-color="#AC1EAB" offset=".273"/><stop stop-color="#AB1EAC" offset=".277"/><stop stop-color="#AA1FAC" offset=".281"/><stop stop-color="#A91FAD" offset=".285"/><stop stop-color="#A920AD" offset=".289"/><stop stop-color="#A820AE" offset=".293"/><stop stop-color="#A721AE" offset=".297"/><stop stop-color="#A621AF" offset=".301"/><stop stop-color="#A521AF" offset=".305"/><stop stop-color="#A422AF" offset=".309"/><stop stop-color="#A322B0" offset=".313"/><stop stop-color="#A223B0" offset=".316"/><stop stop-color="#A123B1" offset=".32"/><stop stop-color="#A024B1" offset=".324"/><stop stop-color="#9F24B2" offset=".328"/><stop stop-color="#9E24B2" offset=".332"/><stop stop-color="#9D25B3" offset=".336"/><stop stop-color="#9C25B3" offset=".34"/><stop stop-color="#9C26B3" offset=".344"/><stop stop-color="#9B26B4" offset=".348"/><stop stop-color="#9A27B4" offset=".352"/><stop stop-color="#9927B5" offset=".355"/><stop stop-color="#9827B5" offset=".359"/><stop stop-color="#9728B6" offset=".363"/><stop stop-color="#9628B6" offset=".367"/><stop stop-color="#9529B7" offset=".371"/><stop stop-color="#9429B7" offset=".375"/><stop stop-color="#932AB8" offset=".379"/><stop stop-color="#922AB8" offset=".383"/><stop stop-color="#912AB8" offset=".387"/><stop stop-color="#902BB9" offset=".391"/><stop stop-color="#8F2BB9" offset=".395"/><stop stop-color="#8F2CBA" offset=".398"/><stop stop-color="#8E2CBA" offset=".402"/><stop stop-color="#8D2DBB" offset=".406"/><stop stop-color="#8C2DBB" offset=".41"/><stop stop-color="#8B2DBC" offset=".414"/><stop stop-color="#8A2EBC" offset=".418"/><stop stop-color="#892EBC" offset=".422"/><stop stop-color="#882FBD" offset=".426"/><stop stop-color="#872FBD" offset=".43"/><stop stop-color="#8630BE" offset=".434"/><stop stop-color="#8530BE" offset=".438"/><stop stop-color="#8430BF" offset=".441"/><stop stop-color="#8331BF" offset=".445"/><stop stop-color="#8331C0" offset=".449"/><stop stop-color="#8232C0" offset=".453"/><stop stop-color="#8132C1" offset=".457"/><stop stop-color="#8033C1" offset=".461"/><stop stop-color="#7F33C1" offset=".465"/><stop stop-color="#7E34C2" offset=".469"/><stop stop-color="#7D34C2" offset=".473"/><stop stop-color="#7C34C3" offset=".477"/><stop stop-color="#7B35C3" offset=".48"/><stop stop-color="#7A35C4" offset=".484"/><stop stop-color="#7936C4" offset=".488"/><stop stop-color="#7836C5" offset=".492"/><stop stop-color="#7737C5" offset=".496"/><stop stop-color="#7637C5" offset=".5"/><stop stop-color="#7637C6" offset=".504"/><stop stop-color="#7538C6" offset=".508"/><stop stop-color="#7438C7" offset=".512"/><stop stop-color="#7339C7" offset=".516"/><stop stop-color="#7239C8" offset=".52"/><stop stop-color="#713AC8" offset=".523"/><stop stop-color="#703AC9" offset=".527"/><stop stop-color="#6F3AC9" offset=".531"/><stop stop-color="#6E3BCA" offset=".535"/><stop stop-color="#6D3BCA" offset=".539"/><stop stop-color="#6C3CCA" offset=".543"/><stop stop-color="#6B3CCB" offset=".547"/><stop stop-color="#6A3DCB" offset=".551"/><stop stop-color="#693DCC" offset=".555"/><stop stop-color="#693DCC" offset=".559"/><stop stop-color="#683ECD" offset=".563"/><stop stop-color="#673ECD" offset=".566"/><stop stop-color="#663FCE" offset=".57"/><stop stop-color="#653FCE" offset=".574"/><stop stop-color="#6440CE" offset=".578"/><stop stop-color="#6340CF" offset=".582"/><stop stop-color="#6240CF" offset=".586"/><stop stop-color="#6141D0" offset=".59"/><stop stop-color="#6041D0" offset=".594"/><stop stop-color="#5F42D1" offset=".598"/><stop stop-color="#5E42D1" offset=".602"/><stop stop-color="#5D43D2" offset=".605"/><stop stop-color="#5D43D2" offset=".609"/><stop stop-color="#5C43D3" offset=".613"/><stop stop-color="#5B44D3" offset=".617"/><stop stop-color="#5A44D3" offset=".621"/><stop stop-color="#5945D4" offset=".625"/><stop stop-color="#5845D4" offset=".629"/><stop stop-color="#5746D5" offset=".633"/><stop stop-color="#5646D5" offset=".637"/><stop stop-color="#5546D6" offset=".641"/><stop stop-color="#5447D6" offset=".645"/><stop stop-color="#5347D7" offset=".648"/><stop stop-color="#5248D7" offset=".652"/><stop stop-color="#5148D7" offset=".656"/><stop stop-color="#5049D8" offset=".66"/><stop stop-color="#5049D8" offset=".664"/><stop stop-color="#4F49D9" offset=".668"/><stop stop-color="#4E4AD9" offset=".672"/><stop stop-color="#4D4ADA" offset=".676"/><stop stop-color="#4C4BDA" offset=".68"/><stop stop-color="#4B4BDB" offset=".684"/><stop stop-color="#4A4CDB" offset=".688"/><stop stop-color="#494CDC" offset=".691"/><stop stop-color="#484CDC" offset=".695"/><stop stop-color="#474DDC" offset=".699"/><stop stop-color="#464DDD" offset=".703"/><stop stop-color="#454EDD" offset=".707"/><stop stop-color="#444EDE" offset=".711"/><stop stop-color="#434FDE" offset=".715"/><stop stop-color="#434FDF" offset=".719"/><stop stop-color="#424FDF" offset=".723"/><stop stop-color="#4150E0" offset=".727"/><stop stop-color="#4050E0" offset=".73"/><stop stop-color="#3F51E0" offset=".734"/><stop stop-color="#3E51E1" offset=".738"/><stop stop-color="#3D52E1" offset=".742"/><stop stop-color="#3C52E2" offset=".746"/><stop stop-color="#3B52E2" offset=".75"/><stop stop-color="#3A53E3" offset=".754"/><stop stop-color="#3953E3" offset=".758"/><stop stop-color="#3854E4" offset=".762"/><stop stop-color="#3754E4" offset=".766"/><stop stop-color="#3755E5" offset=".77"/><stop stop-color="#3655E5" offset=".773"/><stop stop-color="#3555E5" offset=".777"/><stop stop-color="#3456E6" offset=".781"/><stop stop-color="#3356E6" offset=".785"/><stop stop-color="#3257E7" offset=".789"/><stop stop-color="#3157E7" offset=".793"/><stop stop-color="#3058E8" offset=".797"/><stop stop-color="#2F58E8" offset=".801"/><stop stop-color="#2E58E9" offset=".805"/><stop stop-color="#2D59E9" offset=".809"/><stop stop-color="#2C59E9" offset=".813"/><stop stop-color="#2B5AEA" offset=".816"/><stop stop-color="#2A5AEA" offset=".82"/><stop stop-color="#2A5BEB" offset=".824"/><stop stop-color="#295BEB" offset=".828"/><stop stop-color="#285BEC" offset=".832"/><stop stop-color="#275CEC" offset=".836"/><stop stop-color="#265CED" offset=".84"/><stop stop-color="#255DED" offset=".844"/><stop stop-color="#245DEE" offset=".848"/><stop stop-color="#235EEE" offset=".852"/><stop stop-color="#225EEE" offset=".855"/><stop stop-color="#215FEF" offset=".859"/><stop stop-color="#205FEF" offset=".863"/><stop stop-color="#1F5FF0" offset=".867"/><stop stop-color="#1E60F0" offset=".871"/><stop stop-color="#1D60F1" offset=".875"/><stop stop-color="#1D61F1" offset=".879"/><stop stop-color="#1C61F2" offset=".883"/><stop stop-color="#1B62F2" offset=".887"/><stop stop-color="#1A62F2" offset=".891"/><stop stop-color="#1962F3" offset=".895"/><stop stop-color="#1863F3" offset=".898"/><stop stop-color="#1763F4" offset=".902"/><stop stop-color="#1664F4" offset=".906"/><stop stop-color="#1564F5" offset=".91"/><stop stop-color="#1465F5" offset=".914"/><stop stop-color="#1365F6" offset=".918"/><stop stop-color="#1265F6" offset=".922"/><stop stop-color="#1166F7" offset=".926"/><stop stop-color="#1166F7" offset=".93"/><stop stop-color="#1067F7" offset=".934"/><stop stop-color="#0F67F8" offset=".938"/><stop stop-color="#0E68F8" offset=".941"/><stop stop-color="#0D68F9" offset=".945"/><stop stop-color="#0C68F9" offset=".949"/><stop stop-color="#0B69FA" offset=".953"/><stop stop-color="#0A69FA" offset=".957"/><stop stop-color="#096AFB" offset=".961"/><stop stop-color="#086AFB" offset=".965"/><stop stop-color="#076BFB" offset=".969"/><stop stop-color="#066BFC" offset=".973"/><stop stop-color="#056BFC" offset=".977"/><stop stop-color="#046CFD" offset=".98"/><stop stop-color="#046CFD" offset=".984"/><stop stop-color="#036DFE" offset=".988"/><stop stop-color="#026DFE" offset=".992"/><stop stop-color="#016EFF" offset=".996"/><stop stop-color="#006EFF" offset="1"/></linearGradient></defs><path fill="#FFF" d="M-37.5 -37.5H412.5V412.5H-37.5z"/><path fill="#FFF" d="M-37.5 -37.5H412.5V412.5H-37.5z"/><path d="M-37.5 -37.5H412.5V412.5H-37.5z"/><g clip-path="url(#a)"><g clip-path="url(#b)"><path fill="url(#c)" d="M 66.761719 268.796875 L 66.761719 346.046875 L 312.898438 346.046875 L 312.898438 268.796875 Z M 66.761719 268.796875"/></g></g><g clip-path="url(#d)"><path fill="#00549D" d="M 260.445312 59.0625 C 263.109375 57.566406 266.390625 57.566406 269.050781 59.0625 C 282.222656 66.457031 321.855469 88.71875 335.027344 96.117188 C 337.695312 97.609375 339.335938 100.371094 339.335938 103.367188 C 339.335938 118.15625 339.335938 162.679688 339.335938 177.46875 C 339.335938 180.464844 337.695312 183.226562 335.027344 184.726562 C 321.859375 192.121094 282.226562 214.382812 269.050781 221.777344 C 266.386719 223.273438 263.105469 223.273438 260.445312 221.777344 C 247.273438 214.382812 207.640625 192.121094 194.46875 184.726562 C 191.804688 183.226562 190.164062 180.46875 190.164062 177.472656 C 190.164062 162.683594 190.164062 118.160156 190.164062 103.371094 C 190.164062 100.375 191.804688 97.613281 194.472656 96.117188 C 207.636719 88.71875 247.277344 66.457031 260.445312 59.0625 Z M 260.445312 59.0625" fill-rule="evenodd"/></g><g clip-path="url(#e)"><path fill="#0086D4" d="M 191.359375 181.285156 C 190.316406 179.886719 190.164062 178.558594 190.164062 176.769531 C 190.164062 162.066406 190.164062 117.800781 190.164062 103.089844 C 190.164062 100.113281 191.800781 97.363281 194.460938 95.878906 C 207.582031 88.527344 247.082031 66.394531 260.203125 59.039062 C 262.863281 57.550781 266.460938 57.582031 269.117188 59.070312 C 282.242188 66.421875 321.605469 88.367188 334.730469 95.71875 C 335.789062 96.316406 336.597656 97.035156 337.320312 97.980469 Z M 191.359375 181.285156" fill-rule="evenodd"/></g><path fill="#FFF" d="M 264.75 85.433594 C 295.082031 85.433594 319.707031 110.070312 319.707031 140.421875 C 319.707031 170.769531 295.082031 195.40625 264.75 195.40625 C 234.417969 195.40625 209.792969 170.769531 209.792969 140.421875 C 209.792969 110.070312 234.417969 85.433594 264.75 85.433594 Z M 264.75 112.925781 C 279.914062 112.925781 292.226562 125.242188 292.226562 140.421875 C 292.226562 155.59375 279.914062 167.914062 264.75 167.914062 C 249.585938 167.914062 237.269531 155.59375 237.269531 140.421875 C 237.269531 125.242188 249.582031 112.925781 264.75 112.925781 Z M 264.75 112.925781" fill-rule="evenodd"/><g clip-path="url(#f)"><path fill="#0075C0" d="M 337.3125 98.019531 C 339.339844 99.917969 339.300781 102.777344 339.300781 105.027344 C 339.300781 119.933594 339.171875 162.328125 339.335938 177.234375 C 339.351562 178.789062 338.835938 180.429688 338.066406 181.660156 L 263.152344 140.421875 Z M 337.3125 98.019531" fill-rule="evenodd"/></g><path fill="#FFF" d="M 292.226562 128.636719 L 300.078125 128.636719 L 300.078125 152.203125 L 292.226562 152.203125 Z M 319.707031 128.636719 L 327.558594 128.636719 L 327.558594 152.203125 L 319.707031 152.203125 Z M 319.707031 128.636719" fill-rule="evenodd"/><path fill="#FFF" d="M 284.378906 136.492188 L 307.929688 136.492188 L 307.929688 144.347656 L 284.378906 144.347656 Z M 311.855469 136.492188 L 335.410156 136.492188 L 335.410156 144.347656 L 311.855469 144.347656 Z M 311.855469 136.492188" fill-rule="evenodd"/><g clip-path="url(#g)"><path fill="#00549D" d="M 108.195312 59.0625 C 110.859375 57.566406 114.140625 57.566406 116.800781 59.0625 C 129.972656 66.457031 169.605469 88.71875 182.777344 96.117188 C 185.445312 97.609375 187.085938 100.371094 187.085938 103.367188 C 187.085938 118.15625 187.085938 162.679688 187.085938 177.46875 C 187.085938 180.464844 185.445312 183.226562 182.777344 184.726562 C 169.609375 192.121094 129.976562 214.382812 116.800781 221.777344 C 114.136719 223.273438 110.855469 223.273438 108.195312 221.777344 C 95.023438 214.382812 55.390625 192.121094 42.21875 184.726562 C 39.554688 183.226562 37.914062 180.46875 37.914062 177.472656 C 37.914062 162.683594 37.914062 118.160156 37.914062 103.371094 C 37.914062 100.375 39.554688 97.613281 42.222656 96.117188 C 55.386719 88.71875 95.027344 66.457031 108.195312 59.0625 Z M 108.195312 59.0625" fill-rule="evenodd"/></g><g clip-path="url(#h)"><path fill="#0086D4" d="M 39.109375 181.285156 C 38.066406 179.886719 37.914062 178.558594 37.914062 176.769531 C 37.914062 162.066406 37.914062 117.800781 37.914062 103.089844 C 37.914062 100.113281 39.550781 97.363281 42.210938 95.878906 C 55.332031 88.527344 94.832031 66.394531 107.953125 59.039062 C 110.613281 57.550781 114.210938 57.582031 116.867188 59.070312 C 129.992188 66.421875 169.355469 88.367188 182.480469 95.71875 C 183.539062 96.316406 184.347656 97.035156 185.070312 97.980469 Z M 39.109375 181.285156" fill-rule="evenodd"/></g><path fill="#FFF" d="M 112.5 85.433594 C 142.832031 85.433594 167.457031 110.070312 167.457031 140.421875 C 167.457031 170.769531 142.832031 195.40625 112.5 195.40625 C 82.167969 195.40625 57.542969 170.769531 57.542969 140.421875 C 57.542969 110.070312 82.167969 85.433594 112.5 85.433594 Z M 112.5 112.925781 C 127.664062 112.925781 139.980469 125.242188 139.980469 140.421875 C 139.980469 155.59375 127.664062 167.914062 112.5 167.914062 C 97.335938 167.914062 85.019531 155.59375 85.019531 140.421875 C 85.019531 125.242188 97.332031 112.925781 112.5 112.925781 Z M 112.5 112.925781" fill-rule="evenodd"/><g clip-path="url(#i)"><path fill="#0075C0" d="M 185.0625 98.019531 C 187.089844 99.917969 187.050781 102.777344 187.050781 105.027344 C 187.050781 119.933594 186.921875 162.328125 187.085938 177.234375 C 187.101562 178.789062 186.585938 180.429688 185.816406 181.660156 L 110.902344 140.421875 Z M 185.0625 98.019531" fill-rule="evenodd"/></g><g fill="#006EFF"><g><g><path d="M 0.929688 0 L 4.171875 0 L 4.171875 -4.136719 L 8.640625 -4.136719 C 11.777344 -4.136719 13.6875 -5.714844 13.707031 -8.289062 C 13.707031 -10.882812 11.8125 -12.480469 8.675781 -12.480469 L 0.929688 -12.480469 Z M 4.171875 -6.308594 L 4.171875 -10.304688 L 7.886719 -10.304688 C 9.480469 -10.304688 10.429688 -9.550781 10.429688 -8.308594 C 10.429688 -7.0625 9.480469 -6.308594 7.886719 -6.308594 Z M 4.171875 -6.308594" transform="translate(141.713 322.324)"/></g></g></g><g fill="#006EFF"><g><g><path d="M 12.269531 0.332031 C 13.285156 0.332031 14.320312 -0.0859375 14.933594 -0.699219 L 14.25 -2.15625 C 14.023438 -1.859375 13.652344 -1.648438 13.320312 -1.648438 C 12.882812 -1.648438 12.636719 -1.929688 12.460938 -2.3125 L 11.832031 -3.804688 C 11.566406 -4.433594 11.199219 -4.90625 10.621094 -5.152344 L 10.621094 -5.171875 C 12.707031 -5.574219 13.933594 -6.871094 13.933594 -8.640625 C 13.933594 -11.023438 12.078125 -12.480469 9.042969 -12.480469 L 0.929688 -12.480469 L 0.929688 0 L 4.1875 0 L 4.1875 -4.609375 L 7.0625 -4.609375 C 7.851562 -4.609375 8.484375 -4.101562 8.816406 -3.3125 L 9.515625 -1.59375 C 9.992188 -0.527344 10.832031 0.332031 12.269531 0.332031 Z M 4.1875 -6.695312 L 4.1875 -10.269531 L 8.359375 -10.269531 C 9.78125 -10.269531 10.675781 -9.570312 10.675781 -8.464844 C 10.675781 -7.378906 9.78125 -6.695312 8.359375 -6.695312 Z M 4.1875 -6.695312" transform="translate(158.85 322.324)"/></g></g></g><g fill="#006EFF"><g><g><path d="M 8.484375 0.4375 C 13.25 0.4375 16.421875 -2.226562 16.421875 -6.238281 C 16.421875 -10.253906 13.25 -12.917969 8.484375 -12.917969 C 3.734375 -12.917969 0.578125 -10.253906 0.578125 -6.238281 C 0.578125 -2.226562 3.734375 0.4375 8.484375 0.4375 Z M 8.484375 -2.121094 C 5.695312 -2.121094 3.839844 -3.785156 3.839844 -6.238281 C 3.839844 -8.710938 5.695312 -10.359375 8.484375 -10.359375 C 11.289062 -10.359375 13.144531 -8.710938 13.144531 -6.238281 C 13.144531 -3.785156 11.289062 -2.121094 8.484375 -2.121094 Z M 8.484375 -2.121094" transform="translate(176.949 322.324)"/></g></g></g><g fill="#006EFF"><g><g><path d="M 5.660156 0.351562 C 8.921875 0.351562 10.902344 -1.332031 10.902344 -4.171875 L 10.902344 -12.480469 L 7.640625 -12.480469 L 7.640625 -4.363281 C 7.640625 -2.925781 6.835938 -2.085938 5.539062 -2.085938 C 4.152344 -2.085938 3.207031 -2.945312 2.996094 -4.433594 L 0.191406 -3.558594 C 0.578125 -1.085938 2.558594 0.351562 5.660156 0.351562 Z M 5.660156 0.351562" transform="translate(197.046 322.324)"/></g></g></g><g fill="#006EFF"><g><g><path d="M 0.929688 0 L 11.882812 0 L 11.882812 -2.347656 L 4.082031 -2.347656 L 4.082031 -5.347656 L 11.007812 -5.347656 L 11.007812 -7.433594 L 4.082031 -7.433594 L 4.082031 -10.132812 L 11.707031 -10.132812 L 11.707031 -12.480469 L 0.929688 -12.480469 Z M 0.929688 0" transform="translate(211.816 322.324)"/></g></g></g><g fill="#006EFF"><g><g><path d="M 8.378906 0.402344 C 12.339844 0.402344 15.214844 -1.613281 15.773438 -4.765625 L 12.742188 -5.277344 C 12.339844 -3.382812 10.675781 -2.171875 8.449219 -2.171875 C 5.625 -2.171875 3.839844 -3.75 3.839844 -6.238281 C 3.839844 -8.730469 5.449219 -10.304688 7.992188 -10.304688 C 9.867188 -10.304688 11.269531 -9.289062 11.671875 -7.660156 L 14.652344 -8.378906 C 13.988281 -11.128906 11.375 -12.882812 7.941406 -12.882812 C 3.417969 -12.882812 0.578125 -10.289062 0.578125 -6.238281 C 0.578125 -2.136719 3.609375 0.402344 8.378906 0.402344 Z M 8.378906 0.402344" transform="translate(227.2 322.324)"/></g></g></g><g fill="#006EFF"><g><g><path d="M 4.679688 0 L 7.941406 0 L 7.941406 -9.921875 L 12.425781 -9.921875 L 12.425781 -12.480469 L 0.191406 -12.480469 L 0.191406 -9.921875 L 4.679688 -9.921875 Z M 4.679688 0" transform="translate(246.421 322.324)"/></g></g></g><g fill="#006EFF"><g><g><path d="M 7.097656 0.421875 C 10.832031 0.421875 13.355469 -1.210938 13.355469 -3.769531 C 13.355469 -5.855469 11.847656 -6.992188 8.449219 -7.464844 L 6.257812 -7.800781 C 4.699219 -8.027344 4.03125 -8.429688 4.050781 -9.132812 C 4.050781 -10.027344 5.152344 -10.65625 6.75 -10.65625 C 8.378906 -10.65625 9.851562 -9.921875 10.515625 -8.78125 L 12.460938 -10.097656 C 11.636719 -11.796875 9.394531 -12.898438 6.765625 -12.898438 C 3.296875 -12.898438 0.859375 -11.375 0.859375 -8.867188 C 0.859375 -6.851562 2.242188 -5.765625 5.414062 -5.3125 L 7.605469 -4.960938 C 9.414062 -4.679688 10.183594 -4.222656 10.183594 -3.46875 C 10.183594 -2.523438 9.042969 -1.875 7.257812 -1.875 C 5.101562 -1.875 3.136719 -2.875 2.453125 -4.363281 L 0.367188 -3.066406 C 1.226562 -0.894531 3.945312 0.421875 7.097656 0.421875 Z M 7.097656 0.421875" transform="translate(262.156 322.324)"/></g></g></g><g fill="#ED008C"><g><g><path d="M 9.132812 0.4375 C 13.449219 0.4375 16.582031 -1.757812 17.191406 -5.195312 L 13.886719 -5.75 C 13.449219 -3.6875 11.632812 -2.367188 9.207031 -2.367188 C 6.132812 -2.367188 4.183594 -4.089844 4.183594 -6.800781 C 4.183594 -9.511719 5.941406 -11.230469 8.710938 -11.230469 C 10.753906 -11.230469 12.28125 -10.125 12.722656 -8.347656 L 15.96875 -9.132812 C 15.242188 -12.128906 12.398438 -14.039062 8.652344 -14.039062 C 3.726562 -14.039062 0.628906 -11.214844 0.628906 -6.800781 C 0.628906 -2.332031 3.933594 0.4375 9.132812 0.4375 Z M 9.132812 0.4375" transform="translate(112.174 301.238)"/></g></g></g><g fill="#ED008C"><g><g><path d="M 0.820312 4.585938 L 8.519531 -13.523438 L 7.832031 -13.8125 L 0.132812 4.296875 Z M 0.820312 4.585938" transform="translate(141.133 301.238)"/></g></g></g><g fill="#ED008C"><g><g><path d="M 9.132812 0.4375 C 13.449219 0.4375 16.582031 -1.757812 17.191406 -5.195312 L 13.886719 -5.75 C 13.449219 -3.6875 11.632812 -2.367188 9.207031 -2.367188 C 6.132812 -2.367188 4.183594 -4.089844 4.183594 -6.800781 C 4.183594 -9.511719 5.941406 -11.230469 8.710938 -11.230469 C 10.753906 -11.230469 12.28125 -10.125 12.722656 -8.347656 L 15.96875 -9.132812 C 15.242188 -12.128906 12.398438 -14.039062 8.652344 -14.039062 C 3.726562 -14.039062 0.628906 -11.214844 0.628906 -6.800781 C 0.628906 -2.332031 3.933594 0.4375 9.132812 0.4375 Z M 9.132812 0.4375" transform="translate(161.191 301.238)"/></g></g></g><g fill="#ED008C"><g><g><path d="M 4.738281 -2.636719 L 7.679688 -2.636719 L 7.679688 -5.828125 L 11.671875 -5.828125 L 11.671875 -8.023438 L 7.679688 -8.023438 L 7.679688 -11.078125 L 4.738281 -11.078125 L 4.738281 -8.023438 L 0.78125 -8.023438 L 0.78125 -5.828125 L 4.738281 -5.828125 Z M 4.738281 -2.636719" transform="translate(182.146 301.238)"/></g></g></g><g fill="#ED008C"><g><g><path d="M 4.738281 -2.636719 L 7.679688 -2.636719 L 7.679688 -5.828125 L 11.671875 -5.828125 L 11.671875 -8.023438 L 7.679688 -8.023438 L 7.679688 -11.078125 L 4.738281 -11.078125 L 4.738281 -8.023438 L 0.78125 -8.023438 L 0.78125 -5.828125 L 4.738281 -5.828125 Z M 4.738281 -2.636719" transform="translate(197.982 301.238)"/></g></g></g></svg>