<svg xmlns="http://www.w3.org/2000/svg" xmlns:xlink="http://www.w3.org/1999/xlink" width="375" viewBox="0 0 375 375" height="375" version="1.0"><defs><clipPath id="a"><path d="M 66.453125 268.796875 L 313 268.796875 L 313 346.046875 L 66.453125 346.046875 Z M 66.453125 268.796875"/></clipPath><clipPath id="b"><path d="M 273.292969 346.046875 L 105.808594 346.046875 C 95.558594 346.046875 85.933594 342.089844 78.613281 335.007812 C 71.292969 327.859375 67.179688 318.351562 66.96875 308.21875 C 66.761719 297.875 70.664062 288.089844 78.054688 280.664062 C 85.449219 273.097656 95.765625 268.796875 106.367188 268.796875 L 273.851562 268.796875 C 284.101562 268.796875 293.722656 272.75 301.042969 279.832031 C 308.363281 286.980469 312.480469 296.488281 312.6875 306.621094 C 312.898438 316.964844 308.992188 326.75 301.601562 334.175781 C 294.210938 341.742188 283.890625 346.046875 273.292969 346.046875 Z M 106.367188 279.898438 C 98.625 279.898438 91.375 282.953125 86.003906 288.4375 C 80.777344 293.710938 77.988281 300.652344 78.125 308.011719 C 78.40625 322.863281 90.816406 335.007812 105.808594 335.007812 L 273.292969 335.007812 C 281.03125 335.007812 288.285156 331.957031 293.652344 326.472656 C 298.882812 321.199219 301.671875 314.1875 301.53125 306.898438 C 301.253906 291.976562 288.839844 279.898438 273.917969 279.898438 Z M 106.367188 279.898438"/></clipPath><clipPath id="d"><path d="M 58 32.28125 L 309 32.28125 L 309 251.28125 L 58 251.28125 Z M 58 32.28125"/></clipPath><clipPath id="e"><path d="M 46.519531 129 L 105 129 L 105 157 L 46.519531 157 Z M 46.519531 129"/></clipPath><linearGradient x1="-.3" gradientTransform="matrix(.69727 0 0 .69407 66.97 268.795)" xmlns:xlink="http://www.w3.org/1999/xlink" y1="55.666" x2="352.7" gradientUnits="userSpaceOnUse" y2="55.666" xlink:type="simple" xlink:actuate="onLoad" id="c" xlink:show="other"><stop stop-color="#ED008C" offset="0"/><stop stop-color="#EC008C" offset=".004"/><stop stop-color="#EB018D" offset=".008"/><stop stop-color="#EA018D" offset=".012"/><stop stop-color="#E9028E" offset=".016"/><stop stop-color="#E8028E" offset=".02"/><stop stop-color="#E8028F" offset=".023"/><stop stop-color="#E7038F" offset=".027"/><stop stop-color="#E6038F" offset=".031"/><stop stop-color="#E50490" offset=".035"/><stop stop-color="#E40490" offset=".039"/><stop stop-color="#E30591" offset=".043"/><stop stop-color="#E20591" offset=".047"/><stop stop-color="#E10592" offset=".051"/><stop stop-color="#E00692" offset=".055"/><stop stop-color="#DF0693" offset=".059"/><stop stop-color="#DE0793" offset=".063"/><stop stop-color="#DD0794" offset=".066"/><stop stop-color="#DC0894" offset=".07"/><stop stop-color="#DB0894" offset=".074"/><stop stop-color="#DB0995" offset=".078"/><stop stop-color="#DA0995" offset=".082"/><stop stop-color="#D90996" offset=".086"/><stop stop-color="#D80A96" offset=".09"/><stop stop-color="#D70A97" offset=".094"/><stop stop-color="#D60B97" offset=".098"/><stop stop-color="#D50B98" offset=".102"/><stop stop-color="#D40C98" offset=".105"/><stop stop-color="#D30C98" offset=".109"/><stop stop-color="#D20C99" offset=".113"/><stop stop-color="#D10D99" offset=".117"/><stop stop-color="#D00D9A" offset=".121"/><stop stop-color="#CF0E9A" offset=".125"/><stop stop-color="#CF0E9B" offset=".129"/><stop stop-color="#CE0F9B" offset=".133"/><stop stop-color="#CD0F9C" offset=".137"/><stop stop-color="#CC0F9C" offset=".141"/><stop stop-color="#CB109D" offset=".145"/><stop stop-color="#CA109D" offset=".148"/><stop stop-color="#C9119D" offset=".152"/><stop stop-color="#C8119E" offset=".156"/><stop stop-color="#C7129E" offset=".16"/><stop stop-color="#C6129F" offset=".164"/><stop stop-color="#C5129F" offset=".168"/><stop stop-color="#C413A0" offset=".172"/><stop stop-color="#C313A0" offset=".176"/><stop stop-color="#C214A1" offset=".18"/><stop stop-color="#C214A1" offset=".184"/><stop stop-color="#C115A1" offset=".188"/><stop stop-color="#C015A2" offset=".191"/><stop stop-color="#BF15A2" offset=".195"/><stop stop-color="#BE16A3" offset=".199"/><stop stop-color="#BD16A3" offset=".203"/><stop stop-color="#BC17A4" offset=".207"/><stop stop-color="#BB17A4" offset=".211"/><stop stop-color="#BA18A5" offset=".215"/><stop stop-color="#B918A5" offset=".219"/><stop stop-color="#B818A6" offset=".223"/><stop stop-color="#B719A6" offset=".227"/><stop stop-color="#B619A6" offset=".23"/><stop stop-color="#B51AA7" offset=".234"/><stop stop-color="#B51AA7" offset=".238"/><stop stop-color="#B41BA8" offset=".242"/><stop stop-color="#B31BA8" offset=".246"/><stop stop-color="#B21BA9" offset=".25"/><stop stop-color="#B11CA9" offset=".254"/><stop stop-color="#B01CAA" offset=".258"/><stop stop-color="#AF1DAA" offset=".262"/><stop stop-color="#AE1DAA" offset=".266"/><stop stop-color="#AD1EAB" offset=".27"/><stop stop-color="#AC1EAB" offset=".273"/><stop stop-color="#AB1EAC" offset=".277"/><stop stop-color="#AA1FAC" offset=".281"/><stop stop-color="#A91FAD" offset=".285"/><stop stop-color="#A920AD" offset=".289"/><stop stop-color="#A820AE" offset=".293"/><stop stop-color="#A721AE" offset=".297"/><stop stop-color="#A621AF" offset=".301"/><stop stop-color="#A521AF" offset=".305"/><stop stop-color="#A422AF" offset=".309"/><stop stop-color="#A322B0" offset=".313"/><stop stop-color="#A223B0" offset=".316"/><stop stop-color="#A123B1" offset=".32"/><stop stop-color="#A024B1" offset=".324"/><stop stop-color="#9F24B2" offset=".328"/><stop stop-color="#9E24B2" offset=".332"/><stop stop-color="#9D25B3" offset=".336"/><stop stop-color="#9C25B3" offset=".34"/><stop stop-color="#9C26B3" offset=".344"/><stop stop-color="#9B26B4" offset=".348"/><stop stop-color="#9A27B4" offset=".352"/><stop stop-color="#9927B5" offset=".355"/><stop stop-color="#9827B5" offset=".359"/><stop stop-color="#9728B6" offset=".363"/><stop stop-color="#9628B6" offset=".367"/><stop stop-color="#9529B7" offset=".371"/><stop stop-color="#9429B7" offset=".375"/><stop stop-color="#932AB8" offset=".379"/><stop stop-color="#922AB8" offset=".383"/><stop stop-color="#912AB8" offset=".387"/><stop stop-color="#902BB9" offset=".391"/><stop stop-color="#8F2BB9" offset=".395"/><stop stop-color="#8F2CBA" offset=".398"/><stop stop-color="#8E2CBA" offset=".402"/><stop stop-color="#8D2DBB" offset=".406"/><stop stop-color="#8C2DBB" offset=".41"/><stop stop-color="#8B2DBC" offset=".414"/><stop stop-color="#8A2EBC" offset=".418"/><stop stop-color="#892EBC" offset=".422"/><stop stop-color="#882FBD" offset=".426"/><stop stop-color="#872FBD" offset=".43"/><stop stop-color="#8630BE" offset=".434"/><stop stop-color="#8530BE" offset=".438"/><stop stop-color="#8430BF" offset=".441"/><stop stop-color="#8331BF" offset=".445"/><stop stop-color="#8331C0" offset=".449"/><stop stop-color="#8232C0" offset=".453"/><stop stop-color="#8132C1" offset=".457"/><stop stop-color="#8033C1" offset=".461"/><stop stop-color="#7F33C1" offset=".465"/><stop stop-color="#7E34C2" offset=".469"/><stop stop-color="#7D34C2" offset=".473"/><stop stop-color="#7C34C3" offset=".477"/><stop stop-color="#7B35C3" offset=".48"/><stop stop-color="#7A35C4" offset=".484"/><stop stop-color="#7936C4" offset=".488"/><stop stop-color="#7836C5" offset=".492"/><stop stop-color="#7737C5" offset=".496"/><stop stop-color="#7637C5" offset=".5"/><stop stop-color="#7637C6" offset=".504"/><stop stop-color="#7538C6" offset=".508"/><stop stop-color="#7438C7" offset=".512"/><stop stop-color="#7339C7" offset=".516"/><stop stop-color="#7239C8" offset=".52"/><stop stop-color="#713AC8" offset=".523"/><stop stop-color="#703AC9" offset=".527"/><stop stop-color="#6F3AC9" offset=".531"/><stop stop-color="#6E3BCA" offset=".535"/><stop stop-color="#6D3BCA" offset=".539"/><stop stop-color="#6C3CCA" offset=".543"/><stop stop-color="#6B3CCB" offset=".547"/><stop stop-color="#6A3DCB" offset=".551"/><stop stop-color="#693DCC" offset=".555"/><stop stop-color="#693DCC" offset=".559"/><stop stop-color="#683ECD" offset=".563"/><stop stop-color="#673ECD" offset=".566"/><stop stop-color="#663FCE" offset=".57"/><stop stop-color="#653FCE" offset=".574"/><stop stop-color="#6440CE" offset=".578"/><stop stop-color="#6340CF" offset=".582"/><stop stop-color="#6240CF" offset=".586"/><stop stop-color="#6141D0" offset=".59"/><stop stop-color="#6041D0" offset=".594"/><stop stop-color="#5F42D1" offset=".598"/><stop stop-color="#5E42D1" offset=".602"/><stop stop-color="#5D43D2" offset=".605"/><stop stop-color="#5D43D2" offset=".609"/><stop stop-color="#5C43D3" offset=".613"/><stop stop-color="#5B44D3" offset=".617"/><stop stop-color="#5A44D3" offset=".621"/><stop stop-color="#5945D4" offset=".625"/><stop stop-color="#5845D4" offset=".629"/><stop stop-color="#5746D5" offset=".633"/><stop stop-color="#5646D5" offset=".637"/><stop stop-color="#5546D6" offset=".641"/><stop stop-color="#5447D6" offset=".645"/><stop stop-color="#5347D7" offset=".648"/><stop stop-color="#5248D7" offset=".652"/><stop stop-color="#5148D7" offset=".656"/><stop stop-color="#5049D8" offset=".66"/><stop stop-color="#5049D8" offset=".664"/><stop stop-color="#4F49D9" offset=".668"/><stop stop-color="#4E4AD9" offset=".672"/><stop stop-color="#4D4ADA" offset=".676"/><stop stop-color="#4C4BDA" offset=".68"/><stop stop-color="#4B4BDB" offset=".684"/><stop stop-color="#4A4CDB" offset=".688"/><stop stop-color="#494CDC" offset=".691"/><stop stop-color="#484CDC" offset=".695"/><stop stop-color="#474DDC" offset=".699"/><stop stop-color="#464DDD" offset=".703"/><stop stop-color="#454EDD" offset=".707"/><stop stop-color="#444EDE" offset=".711"/><stop stop-color="#434FDE" offset=".715"/><stop stop-color="#434FDF" offset=".719"/><stop stop-color="#424FDF" offset=".723"/><stop stop-color="#4150E0" offset=".727"/><stop stop-color="#4050E0" offset=".73"/><stop stop-color="#3F51E0" offset=".734"/><stop stop-color="#3E51E1" offset=".738"/><stop stop-color="#3D52E1" offset=".742"/><stop stop-color="#3C52E2" offset=".746"/><stop stop-color="#3B52E2" offset=".75"/><stop stop-color="#3A53E3" offset=".754"/><stop stop-color="#3953E3" offset=".758"/><stop stop-color="#3854E4" offset=".762"/><stop stop-color="#3754E4" offset=".766"/><stop stop-color="#3755E5" offset=".77"/><stop stop-color="#3655E5" offset=".773"/><stop stop-color="#3555E5" offset=".777"/><stop stop-color="#3456E6" offset=".781"/><stop stop-color="#3356E6" offset=".785"/><stop stop-color="#3257E7" offset=".789"/><stop stop-color="#3157E7" offset=".793"/><stop stop-color="#3058E8" offset=".797"/><stop stop-color="#2F58E8" offset=".801"/><stop stop-color="#2E58E9" offset=".805"/><stop stop-color="#2D59E9" offset=".809"/><stop stop-color="#2C59E9" offset=".813"/><stop stop-color="#2B5AEA" offset=".816"/><stop stop-color="#2A5AEA" offset=".82"/><stop stop-color="#2A5BEB" offset=".824"/><stop stop-color="#295BEB" offset=".828"/><stop stop-color="#285BEC" offset=".832"/><stop stop-color="#275CEC" offset=".836"/><stop stop-color="#265CED" offset=".84"/><stop stop-color="#255DED" offset=".844"/><stop stop-color="#245DEE" offset=".848"/><stop stop-color="#235EEE" offset=".852"/><stop stop-color="#225EEE" offset=".855"/><stop stop-color="#215FEF" offset=".859"/><stop stop-color="#205FEF" offset=".863"/><stop stop-color="#1F5FF0" offset=".867"/><stop stop-color="#1E60F0" offset=".871"/><stop stop-color="#1D60F1" offset=".875"/><stop stop-color="#1D61F1" offset=".879"/><stop stop-color="#1C61F2" offset=".883"/><stop stop-color="#1B62F2" offset=".887"/><stop stop-color="#1A62F2" offset=".891"/><stop stop-color="#1962F3" offset=".895"/><stop stop-color="#1863F3" offset=".898"/><stop stop-color="#1763F4" offset=".902"/><stop stop-color="#1664F4" offset=".906"/><stop stop-color="#1564F5" offset=".91"/><stop stop-color="#1465F5" offset=".914"/><stop stop-color="#1365F6" offset=".918"/><stop stop-color="#1265F6" offset=".922"/><stop stop-color="#1166F7" offset=".926"/><stop stop-color="#1166F7" offset=".93"/><stop stop-color="#1067F7" offset=".934"/><stop stop-color="#0F67F8" offset=".938"/><stop stop-color="#0E68F8" offset=".941"/><stop stop-color="#0D68F9" offset=".945"/><stop stop-color="#0C68F9" offset=".949"/><stop stop-color="#0B69FA" offset=".953"/><stop stop-color="#0A69FA" offset=".957"/><stop stop-color="#096AFB" offset=".961"/><stop stop-color="#086AFB" offset=".965"/><stop stop-color="#076BFB" offset=".969"/><stop stop-color="#066BFC" offset=".973"/><stop stop-color="#056BFC" offset=".977"/><stop stop-color="#046CFD" offset=".98"/><stop stop-color="#046CFD" offset=".984"/><stop stop-color="#036DFE" offset=".988"/><stop stop-color="#026DFE" offset=".992"/><stop stop-color="#016EFF" offset=".996"/><stop stop-color="#006EFF" offset="1"/></linearGradient></defs><path fill="#FFF" d="M-37.5 -37.5H412.5V412.5H-37.5z"/><path fill="#FFF" d="M-37.5 -37.5H412.5V412.5H-37.5z"/><path d="M-37.5 -37.5H412.5V412.5H-37.5z"/><g clip-path="url(#a)"><g clip-path="url(#b)"><path fill="url(#c)" d="M 66.761719 268.796875 L 66.761719 346.046875 L 312.898438 346.046875 L 312.898438 268.796875 Z M 66.761719 268.796875"/></g></g><g clip-path="url(#d)"><path fill="#C7EDE6" d="M 297.324219 162.1875 C 300.785156 155.632812 302.769531 148.183594 302.769531 140.257812 C 302.769531 120.121094 290.089844 102.976562 272.277344 96.222656 C 272.277344 96.199219 272.28125 96.179688 272.28125 96.15625 C 272.28125 60.878906 243.617188 32.28125 208.257812 32.28125 C 178.425781 32.28125 153.4375 52.660156 146.324219 80.207031 C 141.824219 78.730469 137.03125 77.90625 132.035156 77.90625 C 108.585938 77.90625 89.28125 95.523438 86.640625 118.210938 C 70.773438 121.5625 58.867188 135.601562 58.867188 152.425781 C 58.867188 171.742188 74.5625 187.40625 93.925781 187.40625 C 94.464844 187.40625 95 187.367188 95.53125 187.335938 C 95.519531 187.871094 95.449219 188.390625 95.449219 188.925781 C 95.449219 223.363281 123.433594 251.28125 157.949219 251.28125 C 177.574219 251.28125 195.070312 242.238281 206.53125 228.121094 C 213.171875 234.886719 222.402344 239.113281 232.644531 239.113281 C 246.824219 239.113281 259.089844 231.050781 265.164062 219.289062 C 268.371094 220.304688 271.785156 220.863281 275.328125 220.863281 C 293.851562 220.863281 308.867188 205.882812 308.867188 187.40625 C 308.867188 177.332031 304.382812 168.324219 297.324219 162.1875 Z M 297.324219 162.1875"/></g><path fill="#FDFCEF" d="M 267.707031 173.71875 L 267.707031 175.238281 L 276.855469 175.238281 L 276.855469 173.71875 C 276.855469 173.71875 289.785156 173.71875 293.621094 173.71875 C 301.199219 173.71875 307.339844 167.589844 307.339844 160.03125 C 307.339844 152.933594 301.910156 147.167969 294.980469 146.480469 C 295.046875 145.929688 295.144531 145.390625 295.144531 144.820312 C 295.144531 137.261719 289.003906 131.132812 281.425781 131.132812 C 277.042969 131.132812 273.1875 133.21875 270.671875 136.414062 C 270.246094 128.394531 263.65625 122.007812 255.511719 122.007812 C 247.09375 122.007812 240.269531 128.820312 240.269531 137.21875 C 240.269531 138.574219 240.503906 139.863281 240.839844 141.117188 C 238.882812 138.753906 235.957031 137.21875 232.644531 137.21875 C 227.214844 137.21875 222.785156 141.277344 222.113281 146.507812 C 221.5625 146.441406 221.019531 146.34375 220.449219 146.34375 C 212.875 146.34375 206.730469 152.472656 206.730469 160.03125 C 206.730469 167.589844 212.875 173.71875 220.449219 173.71875 C 228.027344 173.71875 249.414062 173.71875 249.414062 173.71875 Z M 267.707031 173.71875"/><path fill="#472B29" d="M 255.511719 120.488281 C 246.265625 120.488281 238.742188 127.992188 238.742188 137.21875 C 238.742188 137.265625 238.742188 137.3125 238.742188 137.359375 C 236.910156 136.28125 234.8125 135.695312 232.644531 135.695312 C 227.0625 135.695312 222.246094 139.53125 220.882812 144.835938 C 220.742188 144.828125 220.597656 144.820312 220.449219 144.820312 C 212.046875 144.820312 205.207031 151.644531 205.207031 160.03125 C 205.207031 168.414062 212.046875 175.238281 220.449219 175.238281 L 267.707031 175.238281 C 268.546875 175.238281 269.230469 174.554688 269.230469 173.71875 C 269.230469 172.878906 268.546875 172.195312 267.707031 172.195312 L 220.449219 172.195312 C 213.726562 172.195312 208.257812 166.738281 208.257812 160.03125 C 208.257812 153.320312 213.726562 147.863281 220.449219 147.863281 C 220.808594 147.863281 221.152344 147.914062 221.496094 147.960938 L 221.925781 148.019531 C 221.992188 148.027344 222.050781 148.03125 222.117188 148.03125 C 222.867188 148.03125 223.523438 147.46875 223.625 146.699219 C 224.207031 142.160156 228.085938 138.738281 232.644531 138.738281 C 235.34375 138.738281 237.898438 139.957031 239.660156 142.082031 C 239.960938 142.441406 240.394531 142.636719 240.839844 142.636719 C 241.074219 142.636719 241.3125 142.582031 241.535156 142.46875 C 242.171875 142.140625 242.492188 141.414062 242.308594 140.722656 C 241.957031 139.402344 241.792969 138.289062 241.792969 137.21875 C 241.792969 129.671875 247.949219 123.53125 255.511719 123.53125 C 262.769531 123.53125 268.765625 129.222656 269.152344 136.496094 C 269.1875 137.128906 269.609375 137.671875 270.214844 137.863281 C 270.367188 137.914062 270.523438 137.9375 270.679688 137.9375 C 271.136719 137.9375 271.582031 137.726562 271.875 137.355469 C 274.226562 134.367188 277.703125 132.65625 281.425781 132.65625 C 288.152344 132.65625 293.621094 138.109375 293.621094 144.820312 C 293.621094 145.175781 293.570312 145.519531 293.523438 145.863281 L 293.464844 146.292969 C 293.417969 146.699219 293.535156 147.109375 293.789062 147.429688 C 294.046875 147.746094 294.421875 147.949219 294.824219 147.992188 C 301.09375 148.613281 305.816406 153.792969 305.816406 160.03125 C 305.816406 166.738281 300.347656 172.195312 293.621094 172.195312 L 276.855469 172.195312 C 276.011719 172.195312 275.328125 172.878906 275.328125 173.71875 C 275.328125 174.554688 276.011719 175.238281 276.855469 175.238281 L 293.621094 175.238281 C 302.027344 175.238281 308.867188 168.414062 308.867188 160.03125 C 308.867188 152.738281 303.714844 146.605469 296.660156 145.195312 C 296.667969 145.070312 296.671875 144.945312 296.671875 144.820312 C 296.671875 136.433594 289.832031 129.613281 281.425781 129.613281 C 277.839844 129.613281 274.4375 130.878906 271.722656 133.152344 C 269.898438 125.839844 263.300781 120.488281 255.511719 120.488281 Z M 255.511719 120.488281"/><path fill="#472B29" d="M 250.9375 141.78125 C 246.660156 141.78125 242.984375 144.816406 242.058594 148.898438 C 240.9375 148.226562 239.660156 147.863281 238.363281 147.863281 C 234.699219 147.863281 231.660156 150.589844 231.1875 154.152344 C 230.570312 154.011719 229.980469 153.945312 229.410156 153.945312 C 224.746094 153.945312 220.839844 157.597656 220.511719 162.257812 C 220.480469 162.675781 220.796875 163.039062 221.214844 163.070312 C 221.234375 163.070312 221.253906 163.070312 221.269531 163.070312 C 221.667969 163.070312 222.003906 162.765625 222.03125 162.367188 C 222.300781 158.5 225.539062 155.46875 229.40625 155.46875 C 230.101562 155.46875 230.839844 155.59375 231.65625 155.851562 C 231.722656 155.875 231.792969 155.882812 231.859375 155.882812 C 232.027344 155.882812 232.195312 155.824219 232.335938 155.71875 C 232.53125 155.578125 232.644531 155.332031 232.644531 155.085938 C 232.644531 151.941406 235.210938 149.382812 238.363281 149.382812 C 239.726562 149.382812 241.0625 149.894531 242.117188 150.824219 C 242.257812 150.945312 242.4375 151.015625 242.617188 151.015625 C 242.714844 151.015625 242.8125 150.996094 242.902344 150.957031 C 243.171875 150.851562 243.355469 150.601562 243.375 150.3125 C 243.691406 146.378906 247.011719 143.300781 250.9375 143.300781 C 251.574219 143.300781 252.234375 143.402344 253.019531 143.625 C 253.089844 143.648438 253.160156 143.65625 253.230469 143.65625 C 253.5625 143.65625 253.863281 143.433594 253.960938 143.101562 C 254.074219 142.699219 253.839844 142.277344 253.4375 142.164062 C 252.515625 141.902344 251.71875 141.78125 250.9375 141.78125 Z M 293.265625 146.34375 C 289.222656 146.34375 285.617188 149.070312 284.503906 152.980469 C 284.386719 153.382812 284.621094 153.804688 285.027344 153.917969 C 285.101562 153.9375 285.171875 153.945312 285.238281 153.945312 C 285.570312 153.945312 285.875 153.726562 285.96875 153.394531 C 286.898438 150.136719 289.898438 147.863281 293.265625 147.863281 C 293.621094 147.863281 293.964844 147.90625 294.308594 147.949219 C 294.34375 147.957031 294.378906 147.960938 294.414062 147.960938 C 294.785156 147.960938 295.113281 147.679688 295.164062 147.300781 C 295.222656 146.882812 294.929688 146.5 294.511719 146.445312 C 294.105469 146.390625 293.6875 146.34375 293.265625 146.34375 Z M 293.265625 146.34375"/><path fill="#FDE751" d="M 191.421875 129.019531 L 208.964844 129.019531 L 208.964844 158.257812 L 179.121094 209.828125 L 183.1875 212.167969 C 185.417969 212.382812 187.675781 212.5 189.964844 212.5 C 229.113281 212.5 260.847656 180.835938 260.847656 141.78125 C 260.847656 127.363281 256.511719 113.957031 249.085938 102.777344 L 191.421875 102.777344 Z M 191.421875 129.019531"/><path fill="#472B29" d="M 189.964844 214.019531 C 187.734375 214.019531 185.402344 213.90625 183.039062 213.683594 L 182.421875 213.488281 L 177.035156 210.382812 L 207.4375 157.851562 L 207.4375 130.539062 L 189.898438 130.539062 L 189.898438 101.253906 L 249.902344 101.253906 L 250.355469 101.933594 C 258.214844 113.769531 262.367188 127.542969 262.367188 141.78125 C 262.371094 181.613281 229.890625 214.019531 189.964844 214.019531 Z M 183.660156 210.683594 C 185.8125 210.878906 187.929688 210.976562 189.964844 210.976562 C 228.207031 210.976562 259.324219 179.933594 259.324219 141.78125 C 259.324219 128.417969 255.5 115.476562 248.261719 104.296875 L 192.949219 104.296875 L 192.949219 127.503906 L 210.484375 127.503906 L 210.484375 158.667969 L 181.199219 209.273438 Z M 183.660156 210.683594"/><path fill="#EA5167" d="M 189.964844 71.0625 C 150.8125 71.0625 119.078125 102.722656 119.078125 141.78125 C 119.078125 147.429688 119.761719 152.917969 121.019531 158.183594 L 188.503906 158.183594 L 188.503906 117.355469 L 256.507812 117.355469 C 246.535156 90.335938 220.507812 71.0625 189.964844 71.0625 Z M 189.964844 71.0625"/><path fill="#472B29" d="M 190.027344 159.703125 L 119.8125 159.703125 L 119.535156 158.53125 C 118.21875 153.023438 117.554688 147.386719 117.554688 141.78125 C 117.554688 101.945312 150.035156 69.539062 189.964844 69.539062 C 220.1875 69.539062 247.5 88.542969 257.933594 116.832031 L 258.6875 118.878906 L 190.027344 118.878906 Z M 122.230469 156.664062 L 186.976562 156.664062 L 186.976562 115.835938 L 254.28125 115.835938 C 243.746094 89.875 218.175781 72.582031 189.964844 72.582031 C 151.71875 72.582031 120.601562 103.625 120.601562 141.78125 C 120.601562 146.753906 121.152344 151.753906 122.230469 156.664062 Z M 122.230469 156.664062"/><path fill="#67BA8C" d="M 200.644531 211.699219 C 200.671875 211.695312 200.695312 211.691406 200.71875 211.6875 C 200.695312 211.691406 200.671875 211.691406 200.644531 211.699219 Z M 200.644531 211.699219"/><path fill="#472B29" d="M 201.070312 213.167969 L 200.277344 210.222656 L 200.496094 210.183594 Z M 201.070312 213.167969"/><path fill="#67BA8C" d="M 183.1875 212.167969 L 179.121094 209.828125 L 208.964844 158.257812 L 208.964844 152.347656 L 167.453125 152.347656 L 135.289062 96.765625 C 125.164062 108.996094 119.078125 124.679688 119.078125 141.78125 C 119.078125 179.695312 148.984375 210.628906 186.546875 212.414062 C 185.417969 212.355469 184.296875 212.273438 183.1875 212.167969 Z M 183.1875 212.167969"/><path fill="#472B29" d="M 186.472656 213.929688 C 186.46875 213.929688 186.46875 213.929688 186.472656 213.929688 C 186.46875 213.929688 186.464844 213.929688 186.464844 213.929688 C 147.824219 212.097656 117.554688 180.40625 117.554688 141.78125 C 117.554688 125.023438 123.4375 108.691406 134.117188 95.800781 L 135.511719 94.113281 L 168.335938 150.828125 L 210.488281 150.828125 L 210.488281 158.664062 L 181.203125 209.269531 L 183.660156 210.683594 C 184.640625 210.769531 185.628906 210.84375 186.621094 210.890625 Z M 135.085938 99.457031 C 125.730469 111.523438 120.601562 126.464844 120.601562 141.78125 C 120.601562 175.632812 144.875 203.925781 177.355469 209.835938 L 207.4375 157.851562 L 207.4375 153.871094 L 166.574219 153.871094 Z M 135.085938 99.457031"/><path fill="#67BA8C" d="M 194.796875 212.316406 C 195.199219 212.289062 195.597656 212.257812 195.992188 212.222656 C 195.59375 212.257812 195.199219 212.289062 194.796875 212.316406 Z M 194.796875 212.316406"/><path fill="#472B29" d="M 194.898438 213.832031 L 194.695312 210.796875 L 195.867188 210.710938 L 196.117188 213.738281 Z M 194.898438 213.832031"/><path fill="#67BA8C" d="M 205.367188 210.804688 C 205.726562 210.726562 206.085938 210.640625 206.445312 210.554688 C 206.089844 210.640625 205.726562 210.726562 205.367188 210.804688 Z M 205.367188 210.804688"/><path fill="#472B29" d="M 205.695312 212.292969 L 205.035156 209.320312 L 206.089844 209.078125 L 206.800781 212.035156 Z M 205.695312 212.292969"/><path fill="#67BA8C" d="M 216.3125 207.429688 C 216.007812 207.550781 215.699219 207.675781 215.386719 207.792969 C 215.695312 207.675781 216.007812 207.550781 216.3125 207.429688 Z M 216.3125 207.429688"/><path fill="#472B29" d="M 215.929688 209.214844 L 214.839844 206.371094 L 215.742188 206.019531 L 216.886719 208.835938 Z M 215.929688 209.214844"/><path fill="#67BA8C" d="M 225.507812 202.957031 C 225.242188 203.109375 224.976562 203.265625 224.710938 203.414062 C 224.976562 203.261719 225.242188 203.109375 225.507812 202.957031 Z M 225.507812 202.957031"/><path fill="#472B29" d="M 225.464844 204.734375 L 223.957031 202.089844 L 224.738281 201.644531 L 226.28125 204.265625 L 226.277344 204.265625 Z M 225.464844 204.734375"/><path fill="#67BA8C" d="M 220.554688 205.585938 C 220.550781 205.585938 220.546875 205.589844 220.546875 205.589844 C 220.550781 205.589844 220.550781 205.585938 220.554688 205.585938 Z M 220.554688 205.585938"/><path fill="#472B29" d="M 220.550781 204.070312 C 220.347656 204.070312 220.15625 204.109375 219.96875 204.1875 C 219.78125 204.261719 219.617188 204.371094 219.472656 204.515625 C 219.332031 204.65625 219.21875 204.824219 219.144531 205.007812 C 219.066406 205.195312 219.027344 205.390625 219.027344 205.589844 C 219.027344 205.792969 219.066406 205.988281 219.144531 206.171875 C 219.21875 206.359375 219.332031 206.523438 219.472656 206.667969 C 219.617188 206.808594 219.78125 206.917969 219.96875 206.996094 C 220.15625 207.074219 220.347656 207.113281 220.550781 207.113281 C 220.753906 207.113281 220.949219 207.074219 221.136719 206.996094 C 221.320312 206.917969 221.488281 206.808594 221.628906 206.667969 C 221.773438 206.523438 221.882812 206.359375 221.960938 206.171875 C 222.039062 205.988281 222.074219 205.792969 222.074219 205.589844 C 222.074219 205.390625 222.039062 205.195312 221.960938 205.007812 C 221.882812 204.824219 221.773438 204.65625 221.628906 204.515625 C 221.488281 204.371094 221.320312 204.261719 221.136719 204.1875 C 220.949219 204.109375 220.753906 204.070312 220.550781 204.070312 Z M 220.550781 204.070312"/><path fill="#67BA8C" d="M 210.949219 209.347656 C 210.9375 209.351562 210.929688 209.351562 210.921875 209.355469 C 210.929688 209.351562 210.9375 209.347656 210.949219 209.347656 Z M 210.949219 209.347656"/><path fill="#472B29" d="M 211.195312 210.847656 L 210.4375 207.910156 L 211.511719 210.757812 Z M 211.195312 210.847656"/><path fill="#67BA8C" d="M 229.410156 200.539062 L 229.421875 200.53125 Z M 229.410156 200.539062"/><path fill="#472B29" d="M 229.898438 201.976562 L 229.425781 200.558594 L 228.566406 199.269531 L 228.9375 199.089844 L 229.410156 200.507812 L 230.269531 201.792969 Z M 229.898438 201.976562"/><path fill="#48BED8" d="M 189.964844 116.992188 C 189.148438 116.992188 188.335938 117.03125 187.527344 117.109375 C 186.714844 117.191406 185.914062 117.308594 185.113281 117.464844 C 184.316406 117.625 183.527344 117.820312 182.746094 118.054688 C 181.96875 118.292969 181.203125 118.566406 180.449219 118.875 C 179.699219 119.183594 178.960938 119.53125 178.246094 119.914062 C 177.527344 120.296875 176.828125 120.714844 176.152344 121.164062 C 175.476562 121.617188 174.820312 122.097656 174.191406 122.613281 C 173.5625 123.128906 172.960938 123.671875 172.382812 124.246094 C 171.808594 124.820312 171.261719 125.421875 170.746094 126.050781 C 170.230469 126.675781 169.746094 127.328125 169.292969 128.003906 C 168.839844 128.679688 168.421875 129.375 168.039062 130.089844 C 167.652344 130.808594 167.304688 131.539062 166.996094 132.289062 C 166.683594 133.039062 166.410156 133.804688 166.171875 134.582031 C 165.9375 135.359375 165.738281 136.144531 165.578125 136.941406 C 165.421875 137.738281 165.300781 138.539062 165.222656 139.347656 C 165.140625 140.15625 165.101562 140.96875 165.101562 141.78125 C 165.101562 142.589844 165.140625 143.402344 165.222656 144.210938 C 165.300781 145.019531 165.421875 145.820312 165.578125 146.617188 C 165.738281 147.414062 165.9375 148.199219 166.171875 148.976562 C 166.410156 149.753906 166.683594 150.519531 166.996094 151.269531 C 167.304688 152.019531 167.652344 152.753906 168.039062 153.46875 C 168.421875 154.183594 168.839844 154.878906 169.292969 155.554688 C 169.746094 156.230469 170.230469 156.882812 170.746094 157.511719 C 171.261719 158.136719 171.808594 158.738281 172.382812 159.3125 C 172.960938 159.886719 173.5625 160.429688 174.191406 160.945312 C 174.820312 161.460938 175.476562 161.945312 176.152344 162.394531 C 176.828125 162.84375 177.527344 163.261719 178.246094 163.644531 C 178.960938 164.027344 179.699219 164.375 180.449219 164.683594 C 181.203125 164.996094 181.96875 165.265625 182.746094 165.503906 C 183.527344 165.738281 184.316406 165.933594 185.113281 166.09375 C 185.914062 166.25 186.714844 166.371094 187.527344 166.449219 C 188.335938 166.527344 189.148438 166.566406 189.964844 166.566406 C 190.777344 166.566406 191.589844 166.527344 192.398438 166.449219 C 193.210938 166.371094 194.015625 166.25 194.8125 166.09375 C 195.609375 165.933594 196.398438 165.738281 197.179688 165.503906 C 197.957031 165.265625 198.722656 164.996094 199.476562 164.683594 C 200.226562 164.375 200.964844 164.027344 201.679688 163.644531 C 202.398438 163.261719 203.097656 162.84375 203.773438 162.394531 C 204.453125 161.945312 205.105469 161.460938 205.734375 160.945312 C 206.363281 160.429688 206.964844 159.886719 207.542969 159.3125 C 208.117188 158.738281 208.664062 158.136719 209.179688 157.507812 C 209.695312 156.882812 210.183594 156.230469 210.632812 155.554688 C 211.085938 154.878906 211.503906 154.183594 211.890625 153.46875 C 212.273438 152.753906 212.621094 152.019531 212.933594 151.269531 C 213.242188 150.519531 213.519531 149.753906 213.753906 148.976562 C 213.992188 148.199219 214.1875 147.414062 214.347656 146.617188 C 214.507812 145.820312 214.625 145.019531 214.707031 144.210938 C 214.785156 143.402344 214.824219 142.589844 214.824219 141.78125 C 214.824219 140.96875 214.785156 140.15625 214.707031 139.347656 C 214.625 138.539062 214.507812 137.738281 214.347656 136.941406 C 214.1875 136.144531 213.992188 135.359375 213.753906 134.582031 C 213.519531 133.804688 213.242188 133.039062 212.933594 132.289062 C 212.621094 131.539062 212.273438 130.808594 211.890625 130.089844 C 211.503906 129.375 211.085938 128.679688 210.632812 128.003906 C 210.183594 127.328125 209.695312 126.675781 209.179688 126.050781 C 208.664062 125.421875 208.117188 124.820312 207.542969 124.246094 C 206.964844 123.671875 206.363281 123.128906 205.734375 122.613281 C 205.105469 122.097656 204.453125 121.617188 203.773438 121.164062 C 203.097656 120.714844 202.398438 120.296875 201.679688 119.914062 C 200.964844 119.53125 200.226562 119.183594 199.476562 118.875 C 198.722656 118.566406 197.957031 118.292969 197.179688 118.054688 C 196.398438 117.820312 195.609375 117.625 194.8125 117.464844 C 194.015625 117.308594 193.210938 117.191406 192.398438 117.109375 C 191.589844 117.03125 190.777344 116.992188 189.964844 116.992188 Z M 189.964844 116.992188"/><path fill="#472B29" d="M 189.964844 168.085938 C 175.421875 168.085938 163.59375 156.285156 163.59375 141.78125 C 163.59375 127.273438 175.421875 115.472656 189.964844 115.472656 C 204.503906 115.472656 216.332031 127.273438 216.332031 141.78125 C 216.332031 156.285156 204.507812 168.085938 189.964844 168.085938 Z M 189.964844 118.515625 C 177.101562 118.515625 166.644531 128.953125 166.644531 141.78125 C 166.644531 154.605469 177.105469 165.046875 189.964844 165.046875 C 202.820312 165.046875 213.285156 154.605469 213.285156 141.78125 C 213.285156 128.953125 202.824219 118.515625 189.964844 118.515625 Z M 189.964844 118.515625"/><path fill="#472B29" d="M 189.964844 214.628906 C 149.699219 214.628906 116.945312 181.949219 116.945312 141.78125 C 116.945312 101.609375 149.699219 68.933594 189.964844 68.933594 C 230.226562 68.933594 262.980469 101.609375 262.980469 141.78125 C 262.980469 181.949219 230.226562 214.628906 189.964844 214.628906 Z M 189.964844 73.191406 C 152.054688 73.191406 121.214844 103.957031 121.214844 141.78125 C 121.214844 179.601562 152.054688 210.371094 189.964844 210.371094 C 227.871094 210.371094 258.714844 179.601562 258.714844 141.78125 C 258.714844 103.957031 227.871094 73.191406 189.964844 73.191406 Z M 189.964844 73.191406"/><path fill="#472B29" d="M 234.382812 104.335938 C 233.964844 104.335938 233.546875 104.167969 233.246094 103.832031 C 232.660156 103.179688 232.0625 102.546875 231.449219 101.921875 C 229.070312 99.507812 226.453125 97.296875 223.671875 95.339844 C 222.980469 94.855469 222.816406 93.902344 223.300781 93.21875 C 223.785156 92.535156 224.734375 92.371094 225.425781 92.851562 C 228.359375 94.914062 231.117188 97.246094 233.621094 99.789062 C 234.269531 100.441406 234.898438 101.117188 235.515625 101.800781 C 236.078125 102.421875 236.023438 103.382812 235.398438 103.949219 C 235.109375 104.207031 234.742188 104.335938 234.382812 104.335938 Z M 234.382812 104.335938"/><path fill="#472B29" d="M 189.917969 202.746094 C 166.859375 202.746094 144.777344 189.683594 134.511719 167.519531 C 127.6875 152.789062 127.046875 136.28125 132.695312 121.03125 C 138.34375 105.789062 149.613281 93.632812 164.421875 86.808594 C 180.289062 79.496094 198.570312 79.292969 214.574219 86.273438 C 215.785156 86.800781 216.980469 87.367188 218.15625 87.976562 C 218.902344 88.363281 219.195312 89.28125 218.808594 90.027344 C 218.421875 90.769531 217.503906 91.070312 216.753906 90.679688 C 215.636719 90.105469 214.507812 89.566406 213.355469 89.0625 C 198.148438 82.441406 180.78125 82.621094 165.703125 89.574219 C 151.628906 96.058594 140.925781 107.605469 135.558594 122.085938 C 130.191406 136.570312 130.804688 152.253906 137.28125 166.246094 C 150.660156 195.136719 185.179688 207.746094 214.226562 194.359375 C 228.300781 187.871094 239.007812 176.324219 244.375 161.84375 C 249.742188 147.359375 249.128906 131.679688 242.648438 117.683594 C 241.433594 115.050781 240.007812 112.5 238.421875 110.09375 C 237.957031 109.390625 238.152344 108.449219 238.855469 107.988281 C 239.5625 107.527344 240.507812 107.722656 240.964844 108.421875 C 242.636719 110.957031 244.136719 113.644531 245.417969 116.410156 C 252.242188 131.144531 252.882812 147.648438 247.234375 162.898438 C 241.585938 178.144531 230.316406 190.296875 215.507812 197.121094 C 207.214844 200.9375 198.496094 202.746094 189.917969 202.746094 Z M 189.917969 202.746094"/><g clip-path="url(#e)"><path fill="#FFF" d="M 78.683594 144.820312 L 48.195312 144.820312 C 47.351562 144.820312 46.671875 144.140625 46.671875 143.300781 C 46.671875 142.460938 47.351562 141.78125 48.195312 141.78125 L 78.683594 141.78125 C 79.523438 141.78125 80.207031 142.460938 80.207031 143.300781 C 80.207031 144.140625 79.527344 144.820312 78.683594 144.820312 Z M 87.828125 144.820312 L 84.78125 144.820312 C 83.9375 144.820312 83.253906 144.140625 83.253906 143.300781 C 83.253906 142.460938 83.9375 141.78125 84.78125 141.78125 L 87.828125 141.78125 C 88.671875 141.78125 89.351562 142.460938 89.351562 143.300781 C 89.351562 144.140625 88.671875 144.820312 87.828125 144.820312 Z M 103.046875 150.90625 L 75.632812 150.90625 C 74.792969 150.90625 74.109375 150.222656 74.109375 149.382812 C 74.109375 148.542969 74.792969 147.863281 75.632812 147.863281 L 103.046875 147.863281 C 103.886719 147.863281 104.570312 148.542969 104.570312 149.382812 C 104.570312 150.222656 103.886719 150.90625 103.046875 150.90625 Z M 69.535156 150.90625 L 66.488281 150.90625 C 65.644531 150.90625 64.964844 150.222656 64.964844 149.382812 C 64.964844 148.542969 65.644531 147.863281 66.488281 147.863281 L 69.535156 147.863281 C 70.378906 147.863281 71.058594 148.542969 71.058594 149.382812 C 71.058594 150.222656 70.378906 150.90625 69.535156 150.90625 Z M 60.390625 150.90625 L 54.292969 150.90625 C 53.449219 150.90625 52.769531 150.222656 52.769531 149.382812 C 52.769531 148.542969 53.449219 147.863281 54.292969 147.863281 L 60.390625 147.863281 C 61.230469 147.863281 61.914062 148.542969 61.914062 149.382812 C 61.914062 150.222656 61.234375 150.90625 60.390625 150.90625 Z M 78.683594 156.988281 L 72.585938 156.988281 C 71.742188 156.988281 71.058594 156.304688 71.058594 155.46875 C 71.058594 154.628906 71.742188 153.945312 72.585938 153.945312 L 78.683594 153.945312 C 79.523438 153.945312 80.207031 154.628906 80.207031 155.46875 C 80.207031 156.304688 79.523438 156.988281 78.683594 156.988281 Z M 87.828125 129.613281 C 87.289062 129.613281 85.320312 129.613281 84.78125 129.613281 C 83.9375 129.613281 83.253906 130.292969 83.253906 131.132812 C 83.253906 131.972656 83.9375 132.65625 84.78125 132.65625 C 85.320312 132.65625 87.289062 132.65625 87.828125 132.65625 C 88.671875 132.65625 89.351562 131.972656 89.351562 131.132812 C 89.351562 130.292969 88.671875 129.613281 87.828125 129.613281 Z M 87.828125 135.695312 C 87.289062 135.695312 73.125 135.695312 72.585938 135.695312 C 71.742188 135.695312 71.058594 136.378906 71.058594 137.21875 C 71.058594 138.054688 71.742188 138.738281 72.585938 138.738281 C 73.125 138.738281 87.289062 138.738281 87.828125 138.738281 C 88.671875 138.738281 89.351562 138.054688 89.351562 137.21875 C 89.351562 136.378906 88.671875 135.695312 87.828125 135.695312 Z M 103.074219 141.78125 C 102.53125 141.78125 94.464844 141.78125 93.925781 141.78125 C 93.085938 141.78125 92.402344 142.460938 92.402344 143.300781 C 92.402344 144.140625 93.085938 144.820312 93.925781 144.820312 C 94.464844 144.820312 102.53125 144.820312 103.074219 144.820312 C 103.914062 144.820312 104.597656 144.140625 104.597656 143.300781 C 104.597656 142.460938 103.914062 141.78125 103.074219 141.78125 Z M 103.074219 141.78125"/></g><path fill="#FFF" d="M 252.464844 62.695312 L 221.976562 62.695312 C 221.132812 62.695312 220.449219 62.015625 220.449219 61.175781 C 220.449219 60.335938 221.132812 59.65625 221.976562 59.65625 L 252.464844 59.65625 C 253.304688 59.65625 253.988281 60.335938 253.988281 61.175781 C 253.988281 62.015625 253.304688 62.695312 252.464844 62.695312 Z M 264.660156 62.695312 L 258.5625 62.695312 C 257.71875 62.695312 257.035156 62.015625 257.035156 61.175781 C 257.035156 60.335938 257.71875 59.65625 258.5625 59.65625 L 264.660156 59.65625 C 265.5 59.65625 266.183594 60.335938 266.183594 61.175781 C 266.183594 62.015625 265.5 62.695312 264.660156 62.695312 Z M 279.902344 68.78125 L 249.414062 68.78125 C 248.574219 68.78125 247.890625 68.097656 247.890625 67.257812 C 247.890625 66.417969 248.574219 65.738281 249.414062 65.738281 L 279.902344 65.738281 C 280.742188 65.738281 281.425781 66.417969 281.425781 67.257812 C 281.425781 68.097656 280.746094 68.78125 279.902344 68.78125 Z M 243.316406 68.78125 L 240.269531 68.78125 C 239.425781 68.78125 238.742188 68.097656 238.742188 67.257812 C 238.742188 66.417969 239.425781 65.738281 240.269531 65.738281 L 243.316406 65.738281 C 244.160156 65.738281 244.839844 66.417969 244.839844 67.257812 C 244.839844 68.097656 244.160156 68.78125 243.316406 68.78125 Z M 234.078125 68.78125 L 228.074219 68.78125 C 227.230469 68.78125 226.546875 68.097656 226.546875 67.257812 C 226.546875 66.417969 227.230469 65.738281 228.074219 65.738281 L 234.078125 65.738281 C 234.921875 65.738281 235.601562 66.417969 235.601562 67.257812 C 235.601562 68.097656 234.921875 68.78125 234.078125 68.78125 Z M 261.609375 56.613281 L 246.367188 56.613281 C 245.523438 56.613281 244.839844 55.929688 244.839844 55.09375 C 244.839844 54.253906 245.523438 53.570312 246.367188 53.570312 L 261.609375 53.570312 C 262.449219 53.570312 263.132812 54.253906 263.132812 55.09375 C 263.132812 55.929688 262.453125 56.613281 261.609375 56.613281 Z M 252.464844 74.863281 L 246.367188 74.863281 C 245.523438 74.863281 244.839844 74.179688 244.839844 73.34375 C 244.839844 72.503906 245.523438 71.820312 246.367188 71.820312 L 252.464844 71.820312 C 253.304688 71.820312 253.988281 72.503906 253.988281 73.34375 C 253.988281 74.179688 253.304688 74.863281 252.464844 74.863281 Z M 252.464844 74.863281"/><path fill="#FDFCEF" d="M 142.707031 213.257812 C 142.707031 213.257812 147.484375 213.257812 153.378906 213.257812 C 159.269531 213.257812 164.046875 208.492188 164.046875 202.613281 C 164.046875 197.195312 159.976562 192.777344 154.734375 192.105469 C 154.820312 191.558594 154.902344 191.015625 154.902344 190.445312 C 154.902344 184.566406 150.125 179.800781 144.230469 179.800781 C 141.085938 179.800781 138.285156 181.183594 136.335938 183.34375 C 135.164062 177.84375 130.277344 173.71875 124.414062 173.71875 C 117.679688 173.71875 112.21875 179.164062 112.21875 185.882812 C 112.21875 186.464844 112.3125 187.019531 112.390625 187.582031 C 111.085938 186.535156 109.449219 185.882812 107.644531 185.882812 C 103.902344 185.882812 100.800781 188.582031 100.160156 192.132812 C 99.617188 192.050781 99.070312 191.96875 98.5 191.96875 C 92.605469 191.96875 87.828125 196.734375 87.828125 202.613281 C 87.828125 208.492188 92.605469 213.257812 98.5 213.257812 C 104.394531 213.257812 121.367188 213.257812 121.367188 213.257812 L 121.367188 214.78125 L 142.707031 214.78125 Z M 142.707031 213.257812"/><path fill="#472B29" d="M 148.042969 199.570312 C 147.621094 199.570312 147.28125 199.230469 147.28125 198.8125 C 147.28125 195.089844 150.3125 192.0625 154.042969 192.0625 C 154.144531 192.089844 156.289062 192.0625 157.835938 192.476562 C 158.242188 192.585938 158.480469 193.003906 158.371094 193.410156 C 158.261719 193.816406 157.84375 194.058594 157.4375 193.945312 C 156.085938 193.578125 154.085938 193.578125 154.046875 193.585938 C 151.15625 193.585938 148.804688 195.929688 148.804688 198.8125 C 148.804688 199.230469 148.464844 199.570312 148.042969 199.570312 Z M 127.464844 211.738281 C 127.261719 211.738281 127.066406 211.777344 126.878906 211.855469 C 126.691406 211.929688 126.527344 212.039062 126.386719 212.183594 C 126.242188 212.324219 126.132812 212.492188 126.054688 212.675781 C 125.976562 212.863281 125.9375 213.058594 125.9375 213.257812 C 125.9375 213.460938 125.976562 213.65625 126.054688 213.839844 C 126.132812 214.027344 126.242188 214.191406 126.386719 214.335938 C 126.527344 214.476562 126.691406 214.585938 126.878906 214.664062 C 127.066406 214.742188 127.261719 214.78125 127.464844 214.78125 C 127.664062 214.78125 127.859375 214.742188 128.046875 214.664062 C 128.234375 214.585938 128.398438 214.476562 128.539062 214.335938 C 128.683594 214.191406 128.792969 214.027344 128.871094 213.839844 C 128.949219 213.65625 128.988281 213.460938 128.988281 213.257812 C 128.988281 213.058594 128.949219 212.863281 128.871094 212.675781 C 128.792969 212.492188 128.683594 212.324219 128.539062 212.183594 C 128.398438 212.039062 128.234375 211.929688 128.046875 211.855469 C 127.859375 211.777344 127.664062 211.738281 127.464844 211.738281 Z M 127.464844 211.738281"/><path fill="#472B29" d="M 153.378906 214.78125 L 142.707031 214.78125 C 141.867188 214.78125 141.183594 214.097656 141.183594 213.257812 C 141.183594 212.417969 141.867188 211.738281 142.707031 211.738281 L 153.378906 211.738281 C 158.421875 211.738281 162.523438 207.644531 162.523438 202.613281 C 162.523438 198.0625 159.09375 194.195312 154.542969 193.613281 C 154.132812 193.558594 153.765625 193.34375 153.519531 193.015625 C 153.269531 192.6875 153.167969 192.273438 153.230469 191.871094 C 153.300781 191.402344 153.378906 190.933594 153.378906 190.445312 C 153.378906 185.414062 149.273438 181.320312 144.230469 181.320312 C 141.640625 181.320312 139.238281 182.402344 137.464844 184.363281 C 137.085938 184.785156 136.488281 184.964844 135.941406 184.8125 C 135.386719 184.664062 134.964844 184.21875 134.84375 183.660156 C 133.804688 178.78125 129.417969 175.238281 124.414062 175.238281 C 118.53125 175.238281 113.742188 180.011719 113.742188 185.882812 C 113.742188 186.320312 113.808594 186.734375 113.867188 187.15625 C 113.957031 187.773438 113.675781 188.488281 113.128906 188.796875 C 112.585938 189.109375 111.921875 189.15625 111.4375 188.765625 C 110.324219 187.875 109.015625 187.40625 107.644531 187.40625 C 104.699219 187.40625 102.183594 189.507812 101.660156 192.40625 C 101.515625 193.21875 100.757812 193.761719 99.925781 193.636719 C 99.457031 193.5625 98.988281 193.488281 98.5 193.488281 C 93.457031 193.488281 89.351562 197.582031 89.351562 202.613281 C 89.351562 207.644531 93.457031 211.738281 98.5 211.738281 L 121.367188 211.738281 C 122.207031 211.738281 122.890625 212.417969 122.890625 213.257812 C 122.890625 214.097656 122.207031 214.78125 121.367188 214.78125 L 98.5 214.78125 C 91.773438 214.78125 86.304688 209.324219 86.304688 202.613281 C 86.304688 195.902344 91.773438 190.445312 98.5 190.445312 C 98.679688 190.445312 98.851562 190.453125 99.03125 190.464844 C 100.292969 186.855469 103.714844 184.363281 107.644531 184.363281 C 108.710938 184.363281 109.746094 184.546875 110.726562 184.910156 C 111.230469 177.8125 117.175781 172.195312 124.414062 172.195312 C 129.996094 172.195312 134.980469 175.625 137.074219 180.632812 C 139.148438 179.117188 141.65625 178.28125 144.230469 178.28125 C 150.957031 178.28125 156.425781 183.734375 156.425781 190.445312 C 156.425781 190.59375 156.421875 190.734375 156.414062 190.878906 C 161.726562 192.242188 165.574219 197.042969 165.574219 202.613281 C 165.574219 209.324219 160.101562 214.78125 153.378906 214.78125 Z M 153.378906 214.78125"/><path fill="#472B29" d="M 136.609375 211.738281 C 136.125 211.738281 134.046875 211.738281 133.5625 211.738281 C 132.71875 211.738281 132.035156 212.417969 132.035156 213.257812 C 132.035156 214.097656 132.71875 214.78125 133.5625 214.78125 C 134.046875 214.78125 136.125 214.78125 136.609375 214.78125 C 137.449219 214.78125 138.132812 214.097656 138.132812 213.257812 C 138.132812 212.417969 137.449219 211.738281 136.609375 211.738281 Z M 136.609375 211.738281"/><g fill="#006EFF"><g><g><path d="M 0.929688 0 L 11.882812 0 L 11.882812 -2.347656 L 4.082031 -2.347656 L 4.082031 -5.347656 L 11.007812 -5.347656 L 11.007812 -7.433594 L 4.082031 -7.433594 L 4.082031 -10.132812 L 11.707031 -10.132812 L 11.707031 -12.480469 L 0.929688 -12.480469 Z M 0.929688 0" transform="translate(141.713 322.324)"/></g></g></g><g fill="#006EFF"><g><g><path d="M 0.0703125 0 L 3.679688 0 L 7.292969 -4.644531 L 10.9375 0 L 14.617188 0 L 9.359375 -6.539062 L 14.511719 -12.480469 L 10.847656 -12.480469 L 7.273438 -8.21875 L 3.769531 -12.480469 L 0.15625 -12.480469 L 5.207031 -6.519531 Z M 0.0703125 0" transform="translate(157.097 322.324)"/></g></g></g><g fill="#006EFF"><g><g><path d="M 4.679688 0 L 7.941406 0 L 7.941406 -9.921875 L 12.425781 -9.921875 L 12.425781 -12.480469 L 0.191406 -12.480469 L 0.191406 -9.921875 L 4.679688 -9.921875 Z M 4.679688 0" transform="translate(174.899 322.324)"/></g></g></g><g fill="#006EFF"><g><g><path d="M 0.929688 0 L 11.882812 0 L 11.882812 -2.347656 L 4.082031 -2.347656 L 4.082031 -5.347656 L 11.007812 -5.347656 L 11.007812 -7.433594 L 4.082031 -7.433594 L 4.082031 -10.132812 L 11.707031 -10.132812 L 11.707031 -12.480469 L 0.929688 -12.480469 Z M 0.929688 0" transform="translate(190.633 322.324)"/></g></g></g><g fill="#006EFF"><g><g><path d="M 0.929688 0 L 4.015625 0 L 4.015625 -9.027344 L 4.03125 -9.027344 L 10.5 0 L 14.390625 0 L 14.390625 -12.480469 L 11.289062 -12.480469 L 11.289062 -3.488281 L 11.269531 -3.488281 L 4.820312 -12.480469 L 0.929688 -12.480469 Z M 0.929688 0" transform="translate(206.017 322.324)"/></g></g></g><g fill="#006EFF"><g><g><path d="M 7.097656 0.421875 C 10.832031 0.421875 13.355469 -1.210938 13.355469 -3.769531 C 13.355469 -5.855469 11.847656 -6.992188 8.449219 -7.464844 L 6.257812 -7.800781 C 4.699219 -8.027344 4.03125 -8.429688 4.050781 -9.132812 C 4.050781 -10.027344 5.152344 -10.65625 6.75 -10.65625 C 8.378906 -10.65625 9.851562 -9.921875 10.515625 -8.78125 L 12.460938 -10.097656 C 11.636719 -11.796875 9.394531 -12.898438 6.765625 -12.898438 C 3.296875 -12.898438 0.859375 -11.375 0.859375 -8.867188 C 0.859375 -6.851562 2.242188 -5.765625 5.414062 -5.3125 L 7.605469 -4.960938 C 9.414062 -4.679688 10.183594 -4.222656 10.183594 -3.46875 C 10.183594 -2.523438 9.042969 -1.875 7.257812 -1.875 C 5.101562 -1.875 3.136719 -2.875 2.453125 -4.363281 L 0.367188 -3.066406 C 1.226562 -0.894531 3.945312 0.421875 7.097656 0.421875 Z M 7.097656 0.421875" transform="translate(224.45 322.324)"/></g></g></g><g fill="#006EFF"><g><g><path d="M 0.929688 0 L 4.171875 0 L 4.171875 -12.480469 L 0.929688 -12.480469 Z M 0.929688 0" transform="translate(241.218 322.324)"/></g></g></g><g fill="#006EFF"><g><g><path d="M 8.484375 0.4375 C 13.25 0.4375 16.421875 -2.226562 16.421875 -6.238281 C 16.421875 -10.253906 13.25 -12.917969 8.484375 -12.917969 C 3.734375 -12.917969 0.578125 -10.253906 0.578125 -6.238281 C 0.578125 -2.226562 3.734375 0.4375 8.484375 0.4375 Z M 8.484375 -2.121094 C 5.695312 -2.121094 3.839844 -3.785156 3.839844 -6.238281 C 3.839844 -8.710938 5.695312 -10.359375 8.484375 -10.359375 C 11.289062 -10.359375 13.144531 -8.710938 13.144531 -6.238281 C 13.144531 -3.785156 11.289062 -2.121094 8.484375 -2.121094 Z M 8.484375 -2.121094" transform="translate(249.436 322.324)"/></g></g></g><g fill="#006EFF"><g><g><path d="M 0.929688 0 L 4.015625 0 L 4.015625 -9.027344 L 4.03125 -9.027344 L 10.5 0 L 14.390625 0 L 14.390625 -12.480469 L 11.289062 -12.480469 L 11.289062 -3.488281 L 11.269531 -3.488281 L 4.820312 -12.480469 L 0.929688 -12.480469 Z M 0.929688 0" transform="translate(269.533 322.324)"/></g></g></g><g fill="#ED008C"><g><g><path d="M 9.132812 0.4375 C 13.449219 0.4375 16.582031 -1.757812 17.191406 -5.195312 L 13.886719 -5.75 C 13.449219 -3.6875 11.632812 -2.367188 9.207031 -2.367188 C 6.132812 -2.367188 4.183594 -4.089844 4.183594 -6.800781 C 4.183594 -9.511719 5.941406 -11.230469 8.710938 -11.230469 C 10.753906 -11.230469 12.28125 -10.125 12.722656 -8.347656 L 15.96875 -9.132812 C 15.242188 -12.128906 12.398438 -14.039062 8.652344 -14.039062 C 3.726562 -14.039062 0.628906 -11.214844 0.628906 -6.800781 C 0.628906 -2.332031 3.933594 0.4375 9.132812 0.4375 Z M 9.132812 0.4375" transform="translate(98.405 301.238)"/></g></g></g><g fill="#ED008C"><g><g><path d="M 1.011719 0 L 4.566406 0 L 4.566406 -5.75 L 11.730469 -5.75 L 11.730469 0 L 15.28125 0 L 15.28125 -13.601562 L 11.730469 -13.601562 L 11.730469 -8.40625 L 4.566406 -8.40625 L 4.566406 -13.601562 L 1.011719 -13.601562 Z M 1.011719 0" transform="translate(119.36 301.238)"/></g></g></g><g fill="#ED008C"><g><g><path d="M 13.371094 0.363281 C 14.480469 0.363281 15.605469 -0.09375 16.273438 -0.765625 L 15.53125 -2.347656 C 15.28125 -2.023438 14.878906 -1.796875 14.519531 -1.796875 C 14.039062 -1.796875 13.773438 -2.101562 13.582031 -2.523438 L 12.894531 -4.144531 C 12.609375 -4.832031 12.207031 -5.347656 11.574219 -5.617188 L 11.574219 -5.636719 C 13.847656 -6.074219 15.1875 -7.488281 15.1875 -9.417969 C 15.1875 -12.015625 13.160156 -13.601562 9.855469 -13.601562 L 1.011719 -13.601562 L 1.011719 0 L 4.566406 0 L 4.566406 -5.023438 L 7.699219 -5.023438 C 8.558594 -5.023438 9.246094 -4.46875 9.609375 -3.609375 L 10.371094 -1.738281 C 10.886719 -0.574219 11.804688 0.363281 13.371094 0.363281 Z M 4.566406 -7.296875 L 4.566406 -11.195312 L 9.113281 -11.195312 C 10.660156 -11.195312 11.632812 -10.429688 11.632812 -9.226562 C 11.632812 -8.042969 10.660156 -7.296875 9.113281 -7.296875 Z M 4.566406 -7.296875" transform="translate(139.054 301.238)"/></g></g></g><g fill="#ED008C"><g><g><path d="M 9.246094 0.476562 C 14.441406 0.476562 17.898438 -2.425781 17.898438 -6.800781 C 17.898438 -11.175781 14.441406 -14.078125 9.246094 -14.078125 C 4.070312 -14.078125 0.628906 -11.175781 0.628906 -6.800781 C 0.628906 -2.425781 4.070312 0.476562 9.246094 0.476562 Z M 9.246094 -2.3125 C 6.207031 -2.3125 4.183594 -4.125 4.183594 -6.800781 C 4.183594 -9.492188 6.207031 -11.289062 9.246094 -11.289062 C 12.300781 -11.289062 14.328125 -9.492188 14.328125 -6.800781 C 14.328125 -4.125 12.300781 -2.3125 9.246094 -2.3125 Z M 9.246094 -2.3125" transform="translate(158.787 301.238)"/></g></g></g><g fill="#ED008C"><g><g><path d="M 1.011719 0 L 4.316406 0 L 4.316406 -9.589844 L 4.355469 -9.589844 L 8.882812 0 L 11.9375 0 L 16.410156 -9.609375 L 16.445312 -9.609375 L 16.445312 0 L 19.769531 0 L 19.769531 -13.601562 L 15.089844 -13.601562 L 10.410156 -3.535156 L 10.371094 -3.535156 L 5.671875 -13.601562 L 1.011719 -13.601562 Z M 1.011719 0" transform="translate(180.697 301.238)"/></g></g></g><g fill="#ED008C"><g><g><path d="M 1.011719 0 L 12.953125 0 L 12.953125 -2.558594 L 4.449219 -2.558594 L 4.449219 -5.828125 L 11.996094 -5.828125 L 11.996094 -8.097656 L 4.449219 -8.097656 L 4.449219 -11.042969 L 12.761719 -11.042969 L 12.761719 -13.601562 L 1.011719 -13.601562 Z M 1.011719 0" transform="translate(204.88 301.238)"/></g></g></g></svg>