<svg xmlns="http://www.w3.org/2000/svg" xmlns:xlink="http://www.w3.org/1999/xlink" width="375" viewBox="0 0 375 375" height="375" version="1.0"><defs><clipPath id="a"><path d="M 66.453125 268.796875 L 313 268.796875 L 313 346.046875 L 66.453125 346.046875 Z M 66.453125 268.796875"/></clipPath><clipPath id="b"><path d="M 273.292969 346.046875 L 105.808594 346.046875 C 95.558594 346.046875 85.933594 342.089844 78.613281 335.007812 C 71.292969 327.859375 67.179688 318.351562 66.96875 308.21875 C 66.761719 297.875 70.664062 288.089844 78.054688 280.664062 C 85.449219 273.097656 95.765625 268.796875 106.367188 268.796875 L 273.851562 268.796875 C 284.101562 268.796875 293.722656 272.75 301.042969 279.832031 C 308.363281 286.980469 312.480469 296.488281 312.6875 306.621094 C 312.898438 316.964844 308.992188 326.75 301.601562 334.175781 C 294.210938 341.742188 283.890625 346.046875 273.292969 346.046875 Z M 106.367188 279.898438 C 98.625 279.898438 91.375 282.953125 86.003906 288.4375 C 80.777344 293.710938 77.988281 300.652344 78.125 308.011719 C 78.40625 322.863281 90.816406 335.007812 105.808594 335.007812 L 273.292969 335.007812 C 281.03125 335.007812 288.285156 331.957031 293.652344 326.472656 C 298.882812 321.199219 301.671875 314.1875 301.53125 306.898438 C 301.253906 291.976562 288.839844 279.898438 273.917969 279.898438 Z M 106.367188 279.898438"/></clipPath><clipPath id="d"><path d="M 153 37.5 L 228 37.5 L 228 160 L 153 160 Z M 153 37.5"/></clipPath><linearGradient x1="-.3" gradientTransform="matrix(.69727 0 0 .69407 66.97 268.795)" xmlns:xlink="http://www.w3.org/1999/xlink" y1="55.666" x2="352.7" gradientUnits="userSpaceOnUse" y2="55.666" xlink:type="simple" xlink:actuate="onLoad" id="c" xlink:show="other"><stop stop-color="#ED008C" offset="0"/><stop stop-color="#EC008C" offset=".004"/><stop stop-color="#EB018D" offset=".008"/><stop stop-color="#EA018D" offset=".012"/><stop stop-color="#E9028E" offset=".016"/><stop stop-color="#E8028E" offset=".02"/><stop stop-color="#E8028F" offset=".023"/><stop stop-color="#E7038F" offset=".027"/><stop stop-color="#E6038F" offset=".031"/><stop stop-color="#E50490" offset=".035"/><stop stop-color="#E40490" offset=".039"/><stop stop-color="#E30591" offset=".043"/><stop stop-color="#E20591" offset=".047"/><stop stop-color="#E10592" offset=".051"/><stop stop-color="#E00692" offset=".055"/><stop stop-color="#DF0693" offset=".059"/><stop stop-color="#DE0793" offset=".063"/><stop stop-color="#DD0794" offset=".066"/><stop stop-color="#DC0894" offset=".07"/><stop stop-color="#DB0894" offset=".074"/><stop stop-color="#DB0995" offset=".078"/><stop stop-color="#DA0995" offset=".082"/><stop stop-color="#D90996" offset=".086"/><stop stop-color="#D80A96" offset=".09"/><stop stop-color="#D70A97" offset=".094"/><stop stop-color="#D60B97" offset=".098"/><stop stop-color="#D50B98" offset=".102"/><stop stop-color="#D40C98" offset=".105"/><stop stop-color="#D30C98" offset=".109"/><stop stop-color="#D20C99" offset=".113"/><stop stop-color="#D10D99" offset=".117"/><stop stop-color="#D00D9A" offset=".121"/><stop stop-color="#CF0E9A" offset=".125"/><stop stop-color="#CF0E9B" offset=".129"/><stop stop-color="#CE0F9B" offset=".133"/><stop stop-color="#CD0F9C" offset=".137"/><stop stop-color="#CC0F9C" offset=".141"/><stop stop-color="#CB109D" offset=".145"/><stop stop-color="#CA109D" offset=".148"/><stop stop-color="#C9119D" offset=".152"/><stop stop-color="#C8119E" offset=".156"/><stop stop-color="#C7129E" offset=".16"/><stop stop-color="#C6129F" offset=".164"/><stop stop-color="#C5129F" offset=".168"/><stop stop-color="#C413A0" offset=".172"/><stop stop-color="#C313A0" offset=".176"/><stop stop-color="#C214A1" offset=".18"/><stop stop-color="#C214A1" offset=".184"/><stop stop-color="#C115A1" offset=".188"/><stop stop-color="#C015A2" offset=".191"/><stop stop-color="#BF15A2" offset=".195"/><stop stop-color="#BE16A3" offset=".199"/><stop stop-color="#BD16A3" offset=".203"/><stop stop-color="#BC17A4" offset=".207"/><stop stop-color="#BB17A4" offset=".211"/><stop stop-color="#BA18A5" offset=".215"/><stop stop-color="#B918A5" offset=".219"/><stop stop-color="#B818A6" offset=".223"/><stop stop-color="#B719A6" offset=".227"/><stop stop-color="#B619A6" offset=".23"/><stop stop-color="#B51AA7" offset=".234"/><stop stop-color="#B51AA7" offset=".238"/><stop stop-color="#B41BA8" offset=".242"/><stop stop-color="#B31BA8" offset=".246"/><stop stop-color="#B21BA9" offset=".25"/><stop stop-color="#B11CA9" offset=".254"/><stop stop-color="#B01CAA" offset=".258"/><stop stop-color="#AF1DAA" offset=".262"/><stop stop-color="#AE1DAA" offset=".266"/><stop stop-color="#AD1EAB" offset=".27"/><stop stop-color="#AC1EAB" offset=".273"/><stop stop-color="#AB1EAC" offset=".277"/><stop stop-color="#AA1FAC" offset=".281"/><stop stop-color="#A91FAD" offset=".285"/><stop stop-color="#A920AD" offset=".289"/><stop stop-color="#A820AE" offset=".293"/><stop stop-color="#A721AE" offset=".297"/><stop stop-color="#A621AF" offset=".301"/><stop stop-color="#A521AF" offset=".305"/><stop stop-color="#A422AF" offset=".309"/><stop stop-color="#A322B0" offset=".313"/><stop stop-color="#A223B0" offset=".316"/><stop stop-color="#A123B1" offset=".32"/><stop stop-color="#A024B1" offset=".324"/><stop stop-color="#9F24B2" offset=".328"/><stop stop-color="#9E24B2" offset=".332"/><stop stop-color="#9D25B3" offset=".336"/><stop stop-color="#9C25B3" offset=".34"/><stop stop-color="#9C26B3" offset=".344"/><stop stop-color="#9B26B4" offset=".348"/><stop stop-color="#9A27B4" offset=".352"/><stop stop-color="#9927B5" offset=".355"/><stop stop-color="#9827B5" offset=".359"/><stop stop-color="#9728B6" offset=".363"/><stop stop-color="#9628B6" offset=".367"/><stop stop-color="#9529B7" offset=".371"/><stop stop-color="#9429B7" offset=".375"/><stop stop-color="#932AB8" offset=".379"/><stop stop-color="#922AB8" offset=".383"/><stop stop-color="#912AB8" offset=".387"/><stop stop-color="#902BB9" offset=".391"/><stop stop-color="#8F2BB9" offset=".395"/><stop stop-color="#8F2CBA" offset=".398"/><stop stop-color="#8E2CBA" offset=".402"/><stop stop-color="#8D2DBB" offset=".406"/><stop stop-color="#8C2DBB" offset=".41"/><stop stop-color="#8B2DBC" offset=".414"/><stop stop-color="#8A2EBC" offset=".418"/><stop stop-color="#892EBC" offset=".422"/><stop stop-color="#882FBD" offset=".426"/><stop stop-color="#872FBD" offset=".43"/><stop stop-color="#8630BE" offset=".434"/><stop stop-color="#8530BE" offset=".438"/><stop stop-color="#8430BF" offset=".441"/><stop stop-color="#8331BF" offset=".445"/><stop stop-color="#8331C0" offset=".449"/><stop stop-color="#8232C0" offset=".453"/><stop stop-color="#8132C1" offset=".457"/><stop stop-color="#8033C1" offset=".461"/><stop stop-color="#7F33C1" offset=".465"/><stop stop-color="#7E34C2" offset=".469"/><stop stop-color="#7D34C2" offset=".473"/><stop stop-color="#7C34C3" offset=".477"/><stop stop-color="#7B35C3" offset=".48"/><stop stop-color="#7A35C4" offset=".484"/><stop stop-color="#7936C4" offset=".488"/><stop stop-color="#7836C5" offset=".492"/><stop stop-color="#7737C5" offset=".496"/><stop stop-color="#7637C5" offset=".5"/><stop stop-color="#7637C6" offset=".504"/><stop stop-color="#7538C6" offset=".508"/><stop stop-color="#7438C7" offset=".512"/><stop stop-color="#7339C7" offset=".516"/><stop stop-color="#7239C8" offset=".52"/><stop stop-color="#713AC8" offset=".523"/><stop stop-color="#703AC9" offset=".527"/><stop stop-color="#6F3AC9" offset=".531"/><stop stop-color="#6E3BCA" offset=".535"/><stop stop-color="#6D3BCA" offset=".539"/><stop stop-color="#6C3CCA" offset=".543"/><stop stop-color="#6B3CCB" offset=".547"/><stop stop-color="#6A3DCB" offset=".551"/><stop stop-color="#693DCC" offset=".555"/><stop stop-color="#693DCC" offset=".559"/><stop stop-color="#683ECD" offset=".563"/><stop stop-color="#673ECD" offset=".566"/><stop stop-color="#663FCE" offset=".57"/><stop stop-color="#653FCE" offset=".574"/><stop stop-color="#6440CE" offset=".578"/><stop stop-color="#6340CF" offset=".582"/><stop stop-color="#6240CF" offset=".586"/><stop stop-color="#6141D0" offset=".59"/><stop stop-color="#6041D0" offset=".594"/><stop stop-color="#5F42D1" offset=".598"/><stop stop-color="#5E42D1" offset=".602"/><stop stop-color="#5D43D2" offset=".605"/><stop stop-color="#5D43D2" offset=".609"/><stop stop-color="#5C43D3" offset=".613"/><stop stop-color="#5B44D3" offset=".617"/><stop stop-color="#5A44D3" offset=".621"/><stop stop-color="#5945D4" offset=".625"/><stop stop-color="#5845D4" offset=".629"/><stop stop-color="#5746D5" offset=".633"/><stop stop-color="#5646D5" offset=".637"/><stop stop-color="#5546D6" offset=".641"/><stop stop-color="#5447D6" offset=".645"/><stop stop-color="#5347D7" offset=".648"/><stop stop-color="#5248D7" offset=".652"/><stop stop-color="#5148D7" offset=".656"/><stop stop-color="#5049D8" offset=".66"/><stop stop-color="#5049D8" offset=".664"/><stop stop-color="#4F49D9" offset=".668"/><stop stop-color="#4E4AD9" offset=".672"/><stop stop-color="#4D4ADA" offset=".676"/><stop stop-color="#4C4BDA" offset=".68"/><stop stop-color="#4B4BDB" offset=".684"/><stop stop-color="#4A4CDB" offset=".688"/><stop stop-color="#494CDC" offset=".691"/><stop stop-color="#484CDC" offset=".695"/><stop stop-color="#474DDC" offset=".699"/><stop stop-color="#464DDD" offset=".703"/><stop stop-color="#454EDD" offset=".707"/><stop stop-color="#444EDE" offset=".711"/><stop stop-color="#434FDE" offset=".715"/><stop stop-color="#434FDF" offset=".719"/><stop stop-color="#424FDF" offset=".723"/><stop stop-color="#4150E0" offset=".727"/><stop stop-color="#4050E0" offset=".73"/><stop stop-color="#3F51E0" offset=".734"/><stop stop-color="#3E51E1" offset=".738"/><stop stop-color="#3D52E1" offset=".742"/><stop stop-color="#3C52E2" offset=".746"/><stop stop-color="#3B52E2" offset=".75"/><stop stop-color="#3A53E3" offset=".754"/><stop stop-color="#3953E3" offset=".758"/><stop stop-color="#3854E4" offset=".762"/><stop stop-color="#3754E4" offset=".766"/><stop stop-color="#3755E5" offset=".77"/><stop stop-color="#3655E5" offset=".773"/><stop stop-color="#3555E5" offset=".777"/><stop stop-color="#3456E6" offset=".781"/><stop stop-color="#3356E6" offset=".785"/><stop stop-color="#3257E7" offset=".789"/><stop stop-color="#3157E7" offset=".793"/><stop stop-color="#3058E8" offset=".797"/><stop stop-color="#2F58E8" offset=".801"/><stop stop-color="#2E58E9" offset=".805"/><stop stop-color="#2D59E9" offset=".809"/><stop stop-color="#2C59E9" offset=".813"/><stop stop-color="#2B5AEA" offset=".816"/><stop stop-color="#2A5AEA" offset=".82"/><stop stop-color="#2A5BEB" offset=".824"/><stop stop-color="#295BEB" offset=".828"/><stop stop-color="#285BEC" offset=".832"/><stop stop-color="#275CEC" offset=".836"/><stop stop-color="#265CED" offset=".84"/><stop stop-color="#255DED" offset=".844"/><stop stop-color="#245DEE" offset=".848"/><stop stop-color="#235EEE" offset=".852"/><stop stop-color="#225EEE" offset=".855"/><stop stop-color="#215FEF" offset=".859"/><stop stop-color="#205FEF" offset=".863"/><stop stop-color="#1F5FF0" offset=".867"/><stop stop-color="#1E60F0" offset=".871"/><stop stop-color="#1D60F1" offset=".875"/><stop stop-color="#1D61F1" offset=".879"/><stop stop-color="#1C61F2" offset=".883"/><stop stop-color="#1B62F2" offset=".887"/><stop stop-color="#1A62F2" offset=".891"/><stop stop-color="#1962F3" offset=".895"/><stop stop-color="#1863F3" offset=".898"/><stop stop-color="#1763F4" offset=".902"/><stop stop-color="#1664F4" offset=".906"/><stop stop-color="#1564F5" offset=".91"/><stop stop-color="#1465F5" offset=".914"/><stop stop-color="#1365F6" offset=".918"/><stop stop-color="#1265F6" offset=".922"/><stop stop-color="#1166F7" offset=".926"/><stop stop-color="#1166F7" offset=".93"/><stop stop-color="#1067F7" offset=".934"/><stop stop-color="#0F67F8" offset=".938"/><stop stop-color="#0E68F8" offset=".941"/><stop stop-color="#0D68F9" offset=".945"/><stop stop-color="#0C68F9" offset=".949"/><stop stop-color="#0B69FA" offset=".953"/><stop stop-color="#0A69FA" offset=".957"/><stop stop-color="#096AFB" offset=".961"/><stop stop-color="#086AFB" offset=".965"/><stop stop-color="#076BFB" offset=".969"/><stop stop-color="#066BFC" offset=".973"/><stop stop-color="#056BFC" offset=".977"/><stop stop-color="#046CFD" offset=".98"/><stop stop-color="#046CFD" offset=".984"/><stop stop-color="#036DFE" offset=".988"/><stop stop-color="#026DFE" offset=".992"/><stop stop-color="#016EFF" offset=".996"/><stop stop-color="#006EFF" offset="1"/></linearGradient></defs><path fill="#FFF" d="M-37.5 -37.5H412.5V412.5H-37.5z"/><path fill="#FFF" d="M-37.5 -37.5H412.5V412.5H-37.5z"/><path d="M-37.5 -37.5H412.5V412.5H-37.5z"/><g clip-path="url(#a)"><g clip-path="url(#b)"><path fill="url(#c)" d="M 66.761719 268.796875 L 66.761719 346.046875 L 312.898438 346.046875 L 312.898438 268.796875 Z M 66.761719 268.796875"/></g></g><path fill="#006EFF" d="M 153.660156 198.347656 C 153.660156 198.347656 145.652344 203.210938 159.226562 204.601562 C 175.5625 206.683594 184.265625 206.339844 202.347656 202.867188 C 205.992188 205.09375 209.816406 206.949219 213.824219 208.425781 C 173.140625 225.796875 121.652344 207.386719 153.652344 198.347656 Z M 148.453125 175.769531 C 148.453125 175.769531 139.757812 182.367188 153.320312 183.765625 C 171.058594 185.5 184.96875 185.847656 208.976562 180.988281 C 211.34375 183.386719 214.125 185.125 217.320312 186.195312 C 168.28125 200.785156 113.328125 187.589844 148.453125 175.773438 Z M 244.445312 215.363281 C 244.445312 215.363281 250.355469 220.226562 237.839844 224.050781 C 214.535156 231.003906 140.109375 233.085938 119.238281 224.050781 C 111.9375 220.929688 125.847656 216.410156 130.304688 215.714844 C 134.828125 214.671875 137.269531 214.671875 137.269531 214.671875 C 129.261719 209.113281 84.058594 226.136719 114.316406 230.992188 C 197.441406 244.542969 265.957031 225.089844 244.394531 215.363281 Z M 157.421875 152.140625 C 157.421875 152.140625 119.511719 161.179688 143.855469 164.300781 C 154.292969 165.691406 174.808594 165.339844 193.9375 163.957031 C 209.585938 162.5625 225.25 159.792969 225.25 159.792969 C 225.25 159.792969 219.683594 162.226562 215.855469 164.65625 C 177.257812 174.734375 103.167969 170.214844 124.386719 159.792969 C 142.472656 151.109375 157.429688 152.15625 157.429688 152.15625 Z M 225.25 190.007812 C 264.199219 169.851562 246.117188 150.414062 233.59375 152.835938 C 230.46875 153.53125 229.070312 154.230469 229.070312 154.230469 C 229.070312 154.230469 230.113281 152.148438 232.546875 151.453125 C 257.242188 142.765625 276.71875 177.503906 224.539062 191.046875 C 224.539062 191.046875 224.882812 190.703125 225.234375 190.007812 Z M 161.261719 244.894531 C 198.820312 247.324219 256.214844 243.5 257.601562 225.777344 C 257.601562 225.777344 254.820312 232.734375 226.648438 237.9375 C 194.648438 243.839844 155 243.136719 131.699219 239.328125 C 131.699219 239.328125 136.566406 243.488281 161.261719 244.886719 Z M 161.261719 244.894531"/><g clip-path="url(#d)"><path fill="#F58219" d="M 201.660156 37.507812 C 201.660156 37.507812 223.222656 59.390625 181.140625 92.390625 C 147.40625 119.140625 173.492188 134.425781 181.140625 151.796875 C 161.316406 134.082031 147.058594 118.445312 156.796875 103.859375 C 171.054688 82.316406 210.355469 71.957031 201.660156 37.507812 Z M 190.59375 137.207031 C 200.683594 148.671875 187.8125 159.09375 187.8125 159.09375 C 187.8125 159.09375 213.550781 145.894531 201.722656 129.5625 C 190.945312 113.933594 182.585938 106.285156 227.808594 80.234375 C 227.808594 80.234375 156.511719 97.953125 190.59375 137.207031 Z M 190.59375 137.207031"/></g><g fill="#006EFF"><g><g><path d="M 0.929688 0 L 4.171875 0 L 4.171875 -4.136719 L 8.640625 -4.136719 C 11.777344 -4.136719 13.6875 -5.714844 13.707031 -8.289062 C 13.707031 -10.882812 11.8125 -12.480469 8.675781 -12.480469 L 0.929688 -12.480469 Z M 4.171875 -6.308594 L 4.171875 -10.304688 L 7.886719 -10.304688 C 9.480469 -10.304688 10.429688 -9.550781 10.429688 -8.308594 C 10.429688 -7.0625 9.480469 -6.308594 7.886719 -6.308594 Z M 4.171875 -6.308594" transform="translate(141.713 322.324)"/></g></g></g><g fill="#006EFF"><g><g><path d="M 12.269531 0.332031 C 13.285156 0.332031 14.320312 -0.0859375 14.933594 -0.699219 L 14.25 -2.15625 C 14.023438 -1.859375 13.652344 -1.648438 13.320312 -1.648438 C 12.882812 -1.648438 12.636719 -1.929688 12.460938 -2.3125 L 11.832031 -3.804688 C 11.566406 -4.433594 11.199219 -4.90625 10.621094 -5.152344 L 10.621094 -5.171875 C 12.707031 -5.574219 13.933594 -6.871094 13.933594 -8.640625 C 13.933594 -11.023438 12.078125 -12.480469 9.042969 -12.480469 L 0.929688 -12.480469 L 0.929688 0 L 4.1875 0 L 4.1875 -4.609375 L 7.0625 -4.609375 C 7.851562 -4.609375 8.484375 -4.101562 8.816406 -3.3125 L 9.515625 -1.59375 C 9.992188 -0.527344 10.832031 0.332031 12.269531 0.332031 Z M 4.1875 -6.695312 L 4.1875 -10.269531 L 8.359375 -10.269531 C 9.78125 -10.269531 10.675781 -9.570312 10.675781 -8.464844 C 10.675781 -7.378906 9.78125 -6.695312 8.359375 -6.695312 Z M 4.1875 -6.695312" transform="translate(158.85 322.324)"/></g></g></g><g fill="#006EFF"><g><g><path d="M 8.484375 0.4375 C 13.25 0.4375 16.421875 -2.226562 16.421875 -6.238281 C 16.421875 -10.253906 13.25 -12.917969 8.484375 -12.917969 C 3.734375 -12.917969 0.578125 -10.253906 0.578125 -6.238281 C 0.578125 -2.226562 3.734375 0.4375 8.484375 0.4375 Z M 8.484375 -2.121094 C 5.695312 -2.121094 3.839844 -3.785156 3.839844 -6.238281 C 3.839844 -8.710938 5.695312 -10.359375 8.484375 -10.359375 C 11.289062 -10.359375 13.144531 -8.710938 13.144531 -6.238281 C 13.144531 -3.785156 11.289062 -2.121094 8.484375 -2.121094 Z M 8.484375 -2.121094" transform="translate(176.949 322.324)"/></g></g></g><g fill="#006EFF"><g><g><path d="M 5.660156 0.351562 C 8.921875 0.351562 10.902344 -1.332031 10.902344 -4.171875 L 10.902344 -12.480469 L 7.640625 -12.480469 L 7.640625 -4.363281 C 7.640625 -2.925781 6.835938 -2.085938 5.539062 -2.085938 C 4.152344 -2.085938 3.207031 -2.945312 2.996094 -4.433594 L 0.191406 -3.558594 C 0.578125 -1.085938 2.558594 0.351562 5.660156 0.351562 Z M 5.660156 0.351562" transform="translate(197.046 322.324)"/></g></g></g><g fill="#006EFF"><g><g><path d="M 0.929688 0 L 11.882812 0 L 11.882812 -2.347656 L 4.082031 -2.347656 L 4.082031 -5.347656 L 11.007812 -5.347656 L 11.007812 -7.433594 L 4.082031 -7.433594 L 4.082031 -10.132812 L 11.707031 -10.132812 L 11.707031 -12.480469 L 0.929688 -12.480469 Z M 0.929688 0" transform="translate(211.816 322.324)"/></g></g></g><g fill="#006EFF"><g><g><path d="M 8.378906 0.402344 C 12.339844 0.402344 15.214844 -1.613281 15.773438 -4.765625 L 12.742188 -5.277344 C 12.339844 -3.382812 10.675781 -2.171875 8.449219 -2.171875 C 5.625 -2.171875 3.839844 -3.75 3.839844 -6.238281 C 3.839844 -8.730469 5.449219 -10.304688 7.992188 -10.304688 C 9.867188 -10.304688 11.269531 -9.289062 11.671875 -7.660156 L 14.652344 -8.378906 C 13.988281 -11.128906 11.375 -12.882812 7.941406 -12.882812 C 3.417969 -12.882812 0.578125 -10.289062 0.578125 -6.238281 C 0.578125 -2.136719 3.609375 0.402344 8.378906 0.402344 Z M 8.378906 0.402344" transform="translate(227.2 322.324)"/></g></g></g><g fill="#006EFF"><g><g><path d="M 4.679688 0 L 7.941406 0 L 7.941406 -9.921875 L 12.425781 -9.921875 L 12.425781 -12.480469 L 0.191406 -12.480469 L 0.191406 -9.921875 L 4.679688 -9.921875 Z M 4.679688 0" transform="translate(246.421 322.324)"/></g></g></g><g fill="#006EFF"><g><g><path d="M 7.097656 0.421875 C 10.832031 0.421875 13.355469 -1.210938 13.355469 -3.769531 C 13.355469 -5.855469 11.847656 -6.992188 8.449219 -7.464844 L 6.257812 -7.800781 C 4.699219 -8.027344 4.03125 -8.429688 4.050781 -9.132812 C 4.050781 -10.027344 5.152344 -10.65625 6.75 -10.65625 C 8.378906 -10.65625 9.851562 -9.921875 10.515625 -8.78125 L 12.460938 -10.097656 C 11.636719 -11.796875 9.394531 -12.898438 6.765625 -12.898438 C 3.296875 -12.898438 0.859375 -11.375 0.859375 -8.867188 C 0.859375 -6.851562 2.242188 -5.765625 5.414062 -5.3125 L 7.605469 -4.960938 C 9.414062 -4.679688 10.183594 -4.222656 10.183594 -3.46875 C 10.183594 -2.523438 9.042969 -1.875 7.257812 -1.875 C 5.101562 -1.875 3.136719 -2.875 2.453125 -4.363281 L 0.367188 -3.066406 C 1.226562 -0.894531 3.945312 0.421875 7.097656 0.421875 Z M 7.097656 0.421875" transform="translate(262.156 322.324)"/></g></g></g><g fill="#ED008C"><g><g><path d="M 6.171875 0.382812 C 9.722656 0.382812 11.882812 -1.453125 11.882812 -4.546875 L 11.882812 -13.601562 L 8.328125 -13.601562 L 8.328125 -4.757812 C 8.328125 -3.191406 7.449219 -2.273438 6.035156 -2.273438 C 4.527344 -2.273438 3.496094 -3.210938 3.265625 -4.832031 L 0.210938 -3.878906 C 0.628906 -1.183594 2.789062 0.382812 6.171875 0.382812 Z M 6.171875 0.382812" transform="translate(108.881 301.238)"/></g></g></g><g fill="#ED008C"><g><g><path d="M 0.078125 0 L 3.761719 0 L 4.851562 -2.675781 L 11.289062 -2.675781 L 12.378906 0 L 16.085938 0 L 10.238281 -13.601562 L 6 -13.601562 Z M 5.578125 -4.984375 L 8.082031 -11.058594 L 8.117188 -11.058594 L 10.5625 -4.984375 Z M 5.578125 -4.984375" transform="translate(124.985 301.238)"/></g></g></g><g fill="#ED008C"><g><g><path d="M 5.980469 0 L 10.007812 0 L 15.949219 -13.601562 L 12.226562 -13.601562 L 8.023438 -3.113281 L 7.984375 -3.113281 L 3.742188 -13.601562 L 0.0585938 -13.601562 Z M 5.980469 0" transform="translate(144.545 301.238)"/></g></g></g><g fill="#ED008C"><g><g><path d="M 0.078125 0 L 3.761719 0 L 4.851562 -2.675781 L 11.289062 -2.675781 L 12.378906 0 L 16.085938 0 L 10.238281 -13.601562 L 6 -13.601562 Z M 5.578125 -4.984375 L 8.082031 -11.058594 L 8.117188 -11.058594 L 10.5625 -4.984375 Z M 5.578125 -4.984375" transform="translate(163.934 301.238)"/></g></g></g></svg>