<svg xmlns="http://www.w3.org/2000/svg" xmlns:xlink="http://www.w3.org/1999/xlink" width="375" viewBox="0 0 375 375" height="375" version="1.0"><defs><clipPath id="a"><path d="M 66.453125 268.796875 L 313 268.796875 L 313 346.046875 L 66.453125 346.046875 Z M 66.453125 268.796875"/></clipPath><clipPath id="b"><path d="M 273.292969 346.046875 L 105.808594 346.046875 C 95.558594 346.046875 85.933594 342.089844 78.613281 335.007812 C 71.292969 327.859375 67.179688 318.351562 66.96875 308.21875 C 66.761719 297.875 70.664062 288.089844 78.054688 280.664062 C 85.449219 273.097656 95.765625 268.796875 106.367188 268.796875 L 273.851562 268.796875 C 284.101562 268.796875 293.722656 272.75 301.042969 279.832031 C 308.363281 286.980469 312.480469 296.488281 312.6875 306.621094 C 312.898438 316.964844 308.992188 326.75 301.601562 334.175781 C 294.210938 341.742188 283.890625 346.046875 273.292969 346.046875 Z M 106.367188 279.898438 C 98.625 279.898438 91.375 282.953125 86.003906 288.4375 C 80.777344 293.710938 77.988281 300.652344 78.125 308.011719 C 78.40625 322.863281 90.816406 335.007812 105.808594 335.007812 L 273.292969 335.007812 C 281.03125 335.007812 288.285156 331.957031 293.652344 326.472656 C 298.882812 321.199219 301.671875 314.1875 301.53125 306.898438 C 301.253906 291.976562 288.839844 279.898438 273.917969 279.898438 Z M 106.367188 279.898438"/></clipPath><clipPath id="d"><path d="M 66.453125 37.5 L 307.203125 37.5 L 307.203125 249 L 66.453125 249 Z M 66.453125 37.5"/></clipPath><linearGradient x1="-.3" gradientTransform="matrix(.69727 0 0 .69407 66.97 268.795)" xmlns:xlink="http://www.w3.org/1999/xlink" y1="55.666" x2="352.7" gradientUnits="userSpaceOnUse" y2="55.666" xlink:type="simple" xlink:actuate="onLoad" id="c" xlink:show="other"><stop stop-color="#ED008C" offset="0"/><stop stop-color="#EC008C" offset=".004"/><stop stop-color="#EB018D" offset=".008"/><stop stop-color="#EA018D" offset=".012"/><stop stop-color="#E9028E" offset=".016"/><stop stop-color="#E8028E" offset=".02"/><stop stop-color="#E8028F" offset=".023"/><stop stop-color="#E7038F" offset=".027"/><stop stop-color="#E6038F" offset=".031"/><stop stop-color="#E50490" offset=".035"/><stop stop-color="#E40490" offset=".039"/><stop stop-color="#E30591" offset=".043"/><stop stop-color="#E20591" offset=".047"/><stop stop-color="#E10592" offset=".051"/><stop stop-color="#E00692" offset=".055"/><stop stop-color="#DF0693" offset=".059"/><stop stop-color="#DE0793" offset=".063"/><stop stop-color="#DD0794" offset=".066"/><stop stop-color="#DC0894" offset=".07"/><stop stop-color="#DB0894" offset=".074"/><stop stop-color="#DB0995" offset=".078"/><stop stop-color="#DA0995" offset=".082"/><stop stop-color="#D90996" offset=".086"/><stop stop-color="#D80A96" offset=".09"/><stop stop-color="#D70A97" offset=".094"/><stop stop-color="#D60B97" offset=".098"/><stop stop-color="#D50B98" offset=".102"/><stop stop-color="#D40C98" offset=".105"/><stop stop-color="#D30C98" offset=".109"/><stop stop-color="#D20C99" offset=".113"/><stop stop-color="#D10D99" offset=".117"/><stop stop-color="#D00D9A" offset=".121"/><stop stop-color="#CF0E9A" offset=".125"/><stop stop-color="#CF0E9B" offset=".129"/><stop stop-color="#CE0F9B" offset=".133"/><stop stop-color="#CD0F9C" offset=".137"/><stop stop-color="#CC0F9C" offset=".141"/><stop stop-color="#CB109D" offset=".145"/><stop stop-color="#CA109D" offset=".148"/><stop stop-color="#C9119D" offset=".152"/><stop stop-color="#C8119E" offset=".156"/><stop stop-color="#C7129E" offset=".16"/><stop stop-color="#C6129F" offset=".164"/><stop stop-color="#C5129F" offset=".168"/><stop stop-color="#C413A0" offset=".172"/><stop stop-color="#C313A0" offset=".176"/><stop stop-color="#C214A1" offset=".18"/><stop stop-color="#C214A1" offset=".184"/><stop stop-color="#C115A1" offset=".188"/><stop stop-color="#C015A2" offset=".191"/><stop stop-color="#BF15A2" offset=".195"/><stop stop-color="#BE16A3" offset=".199"/><stop stop-color="#BD16A3" offset=".203"/><stop stop-color="#BC17A4" offset=".207"/><stop stop-color="#BB17A4" offset=".211"/><stop stop-color="#BA18A5" offset=".215"/><stop stop-color="#B918A5" offset=".219"/><stop stop-color="#B818A6" offset=".223"/><stop stop-color="#B719A6" offset=".227"/><stop stop-color="#B619A6" offset=".23"/><stop stop-color="#B51AA7" offset=".234"/><stop stop-color="#B51AA7" offset=".238"/><stop stop-color="#B41BA8" offset=".242"/><stop stop-color="#B31BA8" offset=".246"/><stop stop-color="#B21BA9" offset=".25"/><stop stop-color="#B11CA9" offset=".254"/><stop stop-color="#B01CAA" offset=".258"/><stop stop-color="#AF1DAA" offset=".262"/><stop stop-color="#AE1DAA" offset=".266"/><stop stop-color="#AD1EAB" offset=".27"/><stop stop-color="#AC1EAB" offset=".273"/><stop stop-color="#AB1EAC" offset=".277"/><stop stop-color="#AA1FAC" offset=".281"/><stop stop-color="#A91FAD" offset=".285"/><stop stop-color="#A920AD" offset=".289"/><stop stop-color="#A820AE" offset=".293"/><stop stop-color="#A721AE" offset=".297"/><stop stop-color="#A621AF" offset=".301"/><stop stop-color="#A521AF" offset=".305"/><stop stop-color="#A422AF" offset=".309"/><stop stop-color="#A322B0" offset=".313"/><stop stop-color="#A223B0" offset=".316"/><stop stop-color="#A123B1" offset=".32"/><stop stop-color="#A024B1" offset=".324"/><stop stop-color="#9F24B2" offset=".328"/><stop stop-color="#9E24B2" offset=".332"/><stop stop-color="#9D25B3" offset=".336"/><stop stop-color="#9C25B3" offset=".34"/><stop stop-color="#9C26B3" offset=".344"/><stop stop-color="#9B26B4" offset=".348"/><stop stop-color="#9A27B4" offset=".352"/><stop stop-color="#9927B5" offset=".355"/><stop stop-color="#9827B5" offset=".359"/><stop stop-color="#9728B6" offset=".363"/><stop stop-color="#9628B6" offset=".367"/><stop stop-color="#9529B7" offset=".371"/><stop stop-color="#9429B7" offset=".375"/><stop stop-color="#932AB8" offset=".379"/><stop stop-color="#922AB8" offset=".383"/><stop stop-color="#912AB8" offset=".387"/><stop stop-color="#902BB9" offset=".391"/><stop stop-color="#8F2BB9" offset=".395"/><stop stop-color="#8F2CBA" offset=".398"/><stop stop-color="#8E2CBA" offset=".402"/><stop stop-color="#8D2DBB" offset=".406"/><stop stop-color="#8C2DBB" offset=".41"/><stop stop-color="#8B2DBC" offset=".414"/><stop stop-color="#8A2EBC" offset=".418"/><stop stop-color="#892EBC" offset=".422"/><stop stop-color="#882FBD" offset=".426"/><stop stop-color="#872FBD" offset=".43"/><stop stop-color="#8630BE" offset=".434"/><stop stop-color="#8530BE" offset=".438"/><stop stop-color="#8430BF" offset=".441"/><stop stop-color="#8331BF" offset=".445"/><stop stop-color="#8331C0" offset=".449"/><stop stop-color="#8232C0" offset=".453"/><stop stop-color="#8132C1" offset=".457"/><stop stop-color="#8033C1" offset=".461"/><stop stop-color="#7F33C1" offset=".465"/><stop stop-color="#7E34C2" offset=".469"/><stop stop-color="#7D34C2" offset=".473"/><stop stop-color="#7C34C3" offset=".477"/><stop stop-color="#7B35C3" offset=".48"/><stop stop-color="#7A35C4" offset=".484"/><stop stop-color="#7936C4" offset=".488"/><stop stop-color="#7836C5" offset=".492"/><stop stop-color="#7737C5" offset=".496"/><stop stop-color="#7637C5" offset=".5"/><stop stop-color="#7637C6" offset=".504"/><stop stop-color="#7538C6" offset=".508"/><stop stop-color="#7438C7" offset=".512"/><stop stop-color="#7339C7" offset=".516"/><stop stop-color="#7239C8" offset=".52"/><stop stop-color="#713AC8" offset=".523"/><stop stop-color="#703AC9" offset=".527"/><stop stop-color="#6F3AC9" offset=".531"/><stop stop-color="#6E3BCA" offset=".535"/><stop stop-color="#6D3BCA" offset=".539"/><stop stop-color="#6C3CCA" offset=".543"/><stop stop-color="#6B3CCB" offset=".547"/><stop stop-color="#6A3DCB" offset=".551"/><stop stop-color="#693DCC" offset=".555"/><stop stop-color="#693DCC" offset=".559"/><stop stop-color="#683ECD" offset=".563"/><stop stop-color="#673ECD" offset=".566"/><stop stop-color="#663FCE" offset=".57"/><stop stop-color="#653FCE" offset=".574"/><stop stop-color="#6440CE" offset=".578"/><stop stop-color="#6340CF" offset=".582"/><stop stop-color="#6240CF" offset=".586"/><stop stop-color="#6141D0" offset=".59"/><stop stop-color="#6041D0" offset=".594"/><stop stop-color="#5F42D1" offset=".598"/><stop stop-color="#5E42D1" offset=".602"/><stop stop-color="#5D43D2" offset=".605"/><stop stop-color="#5D43D2" offset=".609"/><stop stop-color="#5C43D3" offset=".613"/><stop stop-color="#5B44D3" offset=".617"/><stop stop-color="#5A44D3" offset=".621"/><stop stop-color="#5945D4" offset=".625"/><stop stop-color="#5845D4" offset=".629"/><stop stop-color="#5746D5" offset=".633"/><stop stop-color="#5646D5" offset=".637"/><stop stop-color="#5546D6" offset=".641"/><stop stop-color="#5447D6" offset=".645"/><stop stop-color="#5347D7" offset=".648"/><stop stop-color="#5248D7" offset=".652"/><stop stop-color="#5148D7" offset=".656"/><stop stop-color="#5049D8" offset=".66"/><stop stop-color="#5049D8" offset=".664"/><stop stop-color="#4F49D9" offset=".668"/><stop stop-color="#4E4AD9" offset=".672"/><stop stop-color="#4D4ADA" offset=".676"/><stop stop-color="#4C4BDA" offset=".68"/><stop stop-color="#4B4BDB" offset=".684"/><stop stop-color="#4A4CDB" offset=".688"/><stop stop-color="#494CDC" offset=".691"/><stop stop-color="#484CDC" offset=".695"/><stop stop-color="#474DDC" offset=".699"/><stop stop-color="#464DDD" offset=".703"/><stop stop-color="#454EDD" offset=".707"/><stop stop-color="#444EDE" offset=".711"/><stop stop-color="#434FDE" offset=".715"/><stop stop-color="#434FDF" offset=".719"/><stop stop-color="#424FDF" offset=".723"/><stop stop-color="#4150E0" offset=".727"/><stop stop-color="#4050E0" offset=".73"/><stop stop-color="#3F51E0" offset=".734"/><stop stop-color="#3E51E1" offset=".738"/><stop stop-color="#3D52E1" offset=".742"/><stop stop-color="#3C52E2" offset=".746"/><stop stop-color="#3B52E2" offset=".75"/><stop stop-color="#3A53E3" offset=".754"/><stop stop-color="#3953E3" offset=".758"/><stop stop-color="#3854E4" offset=".762"/><stop stop-color="#3754E4" offset=".766"/><stop stop-color="#3755E5" offset=".77"/><stop stop-color="#3655E5" offset=".773"/><stop stop-color="#3555E5" offset=".777"/><stop stop-color="#3456E6" offset=".781"/><stop stop-color="#3356E6" offset=".785"/><stop stop-color="#3257E7" offset=".789"/><stop stop-color="#3157E7" offset=".793"/><stop stop-color="#3058E8" offset=".797"/><stop stop-color="#2F58E8" offset=".801"/><stop stop-color="#2E58E9" offset=".805"/><stop stop-color="#2D59E9" offset=".809"/><stop stop-color="#2C59E9" offset=".813"/><stop stop-color="#2B5AEA" offset=".816"/><stop stop-color="#2A5AEA" offset=".82"/><stop stop-color="#2A5BEB" offset=".824"/><stop stop-color="#295BEB" offset=".828"/><stop stop-color="#285BEC" offset=".832"/><stop stop-color="#275CEC" offset=".836"/><stop stop-color="#265CED" offset=".84"/><stop stop-color="#255DED" offset=".844"/><stop stop-color="#245DEE" offset=".848"/><stop stop-color="#235EEE" offset=".852"/><stop stop-color="#225EEE" offset=".855"/><stop stop-color="#215FEF" offset=".859"/><stop stop-color="#205FEF" offset=".863"/><stop stop-color="#1F5FF0" offset=".867"/><stop stop-color="#1E60F0" offset=".871"/><stop stop-color="#1D60F1" offset=".875"/><stop stop-color="#1D61F1" offset=".879"/><stop stop-color="#1C61F2" offset=".883"/><stop stop-color="#1B62F2" offset=".887"/><stop stop-color="#1A62F2" offset=".891"/><stop stop-color="#1962F3" offset=".895"/><stop stop-color="#1863F3" offset=".898"/><stop stop-color="#1763F4" offset=".902"/><stop stop-color="#1664F4" offset=".906"/><stop stop-color="#1564F5" offset=".91"/><stop stop-color="#1465F5" offset=".914"/><stop stop-color="#1365F6" offset=".918"/><stop stop-color="#1265F6" offset=".922"/><stop stop-color="#1166F7" offset=".926"/><stop stop-color="#1166F7" offset=".93"/><stop stop-color="#1067F7" offset=".934"/><stop stop-color="#0F67F8" offset=".938"/><stop stop-color="#0E68F8" offset=".941"/><stop stop-color="#0D68F9" offset=".945"/><stop stop-color="#0C68F9" offset=".949"/><stop stop-color="#0B69FA" offset=".953"/><stop stop-color="#0A69FA" offset=".957"/><stop stop-color="#096AFB" offset=".961"/><stop stop-color="#086AFB" offset=".965"/><stop stop-color="#076BFB" offset=".969"/><stop stop-color="#066BFC" offset=".973"/><stop stop-color="#056BFC" offset=".977"/><stop stop-color="#046CFD" offset=".98"/><stop stop-color="#046CFD" offset=".984"/><stop stop-color="#036DFE" offset=".988"/><stop stop-color="#026DFE" offset=".992"/><stop stop-color="#016EFF" offset=".996"/><stop stop-color="#006EFF" offset="1"/></linearGradient></defs><path fill="#FFF" d="M-37.5 -37.5H412.5V412.5H-37.5z"/><path fill="#FFF" d="M-37.5 -37.5H412.5V412.5H-37.5z"/><path d="M-37.5 -37.5H412.5V412.5H-37.5z"/><g clip-path="url(#a)"><g clip-path="url(#b)"><path fill="url(#c)" d="M 66.761719 268.796875 L 66.761719 346.046875 L 312.898438 346.046875 L 312.898438 268.796875 Z M 66.761719 268.796875"/></g></g><path fill="#FFF6CC" d="M 70.074219 41.023438 L 303.582031 41.023438 L 303.582031 245.476562 L 70.074219 245.476562 Z M 70.074219 41.023438"/><path fill="#FFF1B5" d="M 284.789062 41.023438 L 303.582031 41.023438 L 303.582031 245.476562 L 284.789062 245.476562 Z M 284.789062 41.023438"/><path fill="#7B7B7F" d="M 70.074219 41.023438 L 303.582031 41.023438 L 303.582031 67.894531 L 70.074219 67.894531 Z M 70.074219 41.023438"/><path fill="#6B6B73" d="M 284.789062 41.023438 L 303.582031 41.023438 L 303.582031 67.894531 L 284.789062 67.894531 Z M 284.789062 41.023438"/><path fill="#80E1FF" d="M 132.796875 135.148438 L 280.324219 135.148438 L 280.324219 222.367188 L 132.796875 222.367188 Z M 132.796875 135.148438"/><path fill="#FD0" d="M 171.992188 130.847656 C 171.992188 132.132812 171.929688 133.414062 171.800781 134.691406 C 171.675781 135.96875 171.488281 137.238281 171.238281 138.496094 C 170.988281 139.757812 170.675781 141 170.304688 142.230469 C 169.929688 143.457031 169.5 144.664062 169.007812 145.851562 C 168.515625 147.039062 167.96875 148.195312 167.363281 149.328125 C 166.757812 150.460938 166.097656 151.5625 165.386719 152.628906 C 164.671875 153.699219 163.910156 154.726562 163.09375 155.71875 C 162.28125 156.710938 161.417969 157.664062 160.511719 158.570312 C 159.605469 159.480469 158.652344 160.339844 157.660156 161.15625 C 156.667969 161.96875 155.640625 162.734375 154.574219 163.445312 C 153.503906 164.160156 152.40625 164.820312 151.273438 165.425781 C 150.140625 166.03125 148.980469 166.578125 147.796875 167.070312 C 146.609375 167.5625 145.402344 167.992188 144.175781 168.367188 C 142.945312 168.738281 141.703125 169.050781 140.445312 169.300781 C 139.183594 169.550781 137.917969 169.738281 136.640625 169.867188 C 135.363281 169.992188 134.082031 170.054688 132.796875 170.054688 C 131.515625 170.054688 130.234375 169.992188 128.957031 169.867188 C 127.679688 169.738281 126.410156 169.550781 125.152344 169.300781 C 123.894531 169.050781 122.648438 168.738281 121.421875 168.367188 C 120.191406 167.992188 118.984375 167.5625 117.800781 167.070312 C 116.613281 166.578125 115.453125 166.03125 114.320312 165.425781 C 113.191406 164.820312 112.089844 164.160156 111.023438 163.445312 C 109.957031 162.734375 108.925781 161.96875 107.933594 161.15625 C 106.941406 160.339844 105.992188 159.480469 105.085938 158.570312 C 104.175781 157.664062 103.316406 156.710938 102.5 155.71875 C 101.6875 154.726562 100.921875 153.699219 100.210938 152.628906 C 99.496094 151.5625 98.835938 150.460938 98.234375 149.328125 C 97.628906 148.195312 97.078125 147.039062 96.589844 145.851562 C 96.097656 144.664062 95.664062 143.457031 95.292969 142.230469 C 94.917969 141 94.609375 139.757812 94.359375 138.496094 C 94.105469 137.238281 93.917969 135.96875 93.792969 134.691406 C 93.667969 133.414062 93.605469 132.132812 93.605469 130.847656 C 93.605469 129.5625 93.667969 128.28125 93.792969 127.003906 C 93.917969 125.726562 94.105469 124.457031 94.359375 123.199219 C 94.609375 121.9375 94.917969 120.695312 95.292969 119.464844 C 95.664062 118.238281 96.097656 117.03125 96.589844 115.84375 C 97.078125 114.65625 97.628906 113.5 98.234375 112.367188 C 98.835938 111.234375 99.496094 110.132812 100.210938 109.066406 C 100.921875 107.996094 101.6875 106.96875 102.5 105.976562 C 103.316406 104.980469 104.175781 104.03125 105.085938 103.125 C 105.992188 102.214844 106.941406 101.355469 107.933594 100.539062 C 108.925781 99.726562 109.957031 98.960938 111.023438 98.25 C 112.089844 97.535156 113.191406 96.875 114.320312 96.269531 C 115.453125 95.664062 116.613281 95.117188 117.800781 94.625 C 118.984375 94.132812 120.191406 93.703125 121.421875 93.328125 C 122.648438 92.957031 123.894531 92.644531 125.152344 92.394531 C 126.410156 92.144531 127.679688 91.957031 128.957031 91.828125 C 130.234375 91.703125 131.515625 91.640625 132.796875 91.640625 C 134.082031 91.640625 135.363281 91.703125 136.640625 91.828125 C 137.917969 91.957031 139.183594 92.144531 140.445312 92.394531 C 141.703125 92.644531 142.945312 92.957031 144.175781 93.328125 C 145.402344 93.703125 146.609375 94.132812 147.796875 94.625 C 148.980469 95.117188 150.140625 95.664062 151.273438 96.269531 C 152.40625 96.875 153.503906 97.535156 154.574219 98.25 C 155.640625 98.960938 156.667969 99.726562 157.660156 100.539062 C 158.652344 101.355469 159.605469 102.214844 160.511719 103.125 C 161.417969 104.03125 162.28125 104.980469 163.09375 105.976562 C 163.910156 106.96875 164.671875 107.996094 165.386719 109.066406 C 166.097656 110.132812 166.757812 111.234375 167.363281 112.367188 C 167.96875 113.5 168.515625 114.65625 169.007812 115.84375 C 169.5 117.03125 169.929688 118.238281 170.304688 119.464844 C 170.675781 120.695312 170.988281 121.9375 171.238281 123.199219 C 171.488281 124.457031 171.675781 125.726562 171.800781 127.003906 C 171.929688 128.28125 171.992188 129.5625 171.992188 130.847656 Z M 171.992188 130.847656"/><path fill="#F7D200" d="M 132.796875 91.640625 C 129.558594 91.640625 126.414062 92.042969 123.402344 92.785156 C 140.507812 96.996094 153.199219 112.433594 153.199219 130.847656 C 153.199219 149.261719 140.507812 164.699219 123.402344 168.914062 C 126.414062 169.652344 129.558594 170.054688 132.796875 170.054688 C 154.445312 170.054688 171.992188 152.5 171.992188 130.847656 C 171.992188 109.195312 154.445312 91.640625 132.796875 91.640625 Z M 132.796875 91.640625"/><path fill="#FFF" d="M 132.796875 170.054688 C 144.125 170.054688 154.328125 165.25 161.484375 157.5625 C 158.039062 144.949219 146.5 135.679688 132.796875 135.679688 C 119.09375 135.679688 107.558594 144.949219 104.113281 157.5625 C 111.265625 165.25 121.472656 170.054688 132.796875 170.054688 Z M 132.796875 170.054688"/><path fill="#FFF1B5" d="M 151.496094 142.300781 C 147.496094 155.417969 136.804688 165.613281 123.402344 168.914062 C 137.199219 172.308594 151.867188 167.882812 161.480469 157.554688 C 159.816406 151.46875 156.261719 146.164062 151.496094 142.300781 Z M 151.496094 142.300781"/><path fill="#FFF" d="M 146.316406 128.273438 C 146.316406 129.160156 146.230469 130.039062 146.058594 130.910156 C 145.886719 131.78125 145.628906 132.625 145.289062 133.445312 C 144.949219 134.269531 144.53125 135.046875 144.039062 135.785156 C 143.546875 136.523438 142.984375 137.207031 142.359375 137.835938 C 141.730469 138.464844 141.046875 139.023438 140.308594 139.515625 C 139.570312 140.011719 138.792969 140.425781 137.972656 140.765625 C 137.152344 141.105469 136.304688 141.363281 135.433594 141.535156 C 134.566406 141.710938 133.683594 141.796875 132.796875 141.796875 C 131.910156 141.796875 131.03125 141.710938 130.160156 141.535156 C 129.289062 141.363281 128.445312 141.105469 127.625 140.765625 C 126.804688 140.425781 126.023438 140.011719 125.285156 139.515625 C 124.546875 139.023438 123.867188 138.464844 123.238281 137.835938 C 122.609375 137.207031 122.050781 136.523438 121.554688 135.785156 C 121.0625 135.046875 120.648438 134.269531 120.308594 133.445312 C 119.96875 132.625 119.710938 131.78125 119.539062 130.910156 C 119.363281 130.039062 119.277344 129.160156 119.277344 128.273438 C 119.277344 127.382812 119.363281 126.503906 119.539062 125.632812 C 119.710938 124.761719 119.96875 123.917969 120.308594 123.097656 C 120.648438 122.277344 121.0625 121.496094 121.554688 120.757812 C 122.050781 120.019531 122.609375 119.335938 123.238281 118.707031 C 123.867188 118.082031 124.546875 117.519531 125.285156 117.027344 C 126.023438 116.53125 126.804688 116.117188 127.625 115.777344 C 128.445312 115.4375 129.289062 115.179688 130.160156 115.007812 C 131.03125 114.832031 131.910156 114.746094 132.796875 114.746094 C 133.683594 114.746094 134.566406 114.832031 135.433594 115.007812 C 136.304688 115.179688 137.152344 115.4375 137.972656 115.777344 C 138.792969 116.117188 139.570312 116.53125 140.308594 117.027344 C 141.046875 117.519531 141.730469 118.082031 142.359375 118.707031 C 142.984375 119.335938 143.546875 120.019531 144.039062 120.757812 C 144.53125 121.496094 144.949219 122.277344 145.289062 123.097656 C 145.628906 123.917969 145.886719 124.761719 146.058594 125.632812 C 146.230469 126.503906 146.316406 127.382812 146.316406 128.273438 Z M 146.316406 128.273438"/><path fill="#FD0" d="M 232.289062 96.410156 L 232.289062 99.859375 C 232.289062 102.492188 234.421875 104.628906 237.058594 104.628906 L 238.089844 104.628906 C 238.089844 104.628906 239.363281 113.171875 234.113281 118.761719 C 233.308594 119.617188 234.144531 121 235.273438 120.679688 C 240.820312 119.117188 249.292969 114.339844 249.292969 99.734375 L 249.292969 96.414062 C 249.292969 93.777344 247.160156 91.640625 244.523438 91.640625 L 237.058594 91.640625 C 234.421875 91.640625 232.289062 93.777344 232.289062 96.410156 Z M 232.289062 96.410156"/><path fill="#FD0" d="M 259.261719 96.410156 L 259.261719 99.859375 C 259.261719 102.492188 261.398438 104.628906 264.03125 104.628906 L 265.066406 104.628906 C 265.066406 104.628906 266.335938 113.171875 261.085938 118.761719 C 260.28125 119.617188 261.117188 121 262.25 120.679688 C 267.792969 119.117188 276.265625 114.339844 276.265625 99.734375 L 276.265625 96.414062 C 276.265625 93.777344 274.132812 91.640625 271.496094 91.640625 L 264.03125 91.640625 C 261.398438 91.640625 259.261719 93.777344 259.261719 96.410156 Z M 259.261719 96.410156"/><path d="M 86.246094 57.984375 C 90.941406 57.984375 90.949219 50.933594 86.246094 50.933594 C 81.554688 50.933594 81.546875 57.984375 86.246094 57.984375 Z M 86.246094 57.984375"/><path d="M 98.855469 57.984375 C 103.550781 57.984375 103.554688 50.933594 98.855469 50.933594 C 94.160156 50.933594 94.152344 57.984375 98.855469 57.984375 Z M 98.855469 57.984375"/><path d="M 111.460938 57.984375 C 116.15625 57.984375 116.164062 50.933594 111.460938 50.933594 C 106.765625 50.933594 106.757812 57.984375 111.460938 57.984375 Z M 111.460938 57.984375"/><g clip-path="url(#d)"><path d="M 303.582031 37.5 L 70.074219 37.5 C 68.128906 37.5 66.550781 39.078125 66.550781 41.023438 L 66.550781 245.476562 C 66.550781 247.421875 68.128906 249 70.074219 249 L 303.582031 249 C 305.53125 249 307.105469 247.421875 307.105469 245.476562 L 307.105469 202.929688 C 307.105469 198.371094 300.058594 198.371094 300.058594 202.929688 L 300.058594 241.949219 L 73.597656 241.949219 L 73.597656 71.417969 L 300.058594 71.417969 L 300.058594 184.148438 C 300.058594 188.703125 307.105469 188.703125 307.105469 184.148438 L 307.105469 41.023438 C 307.105469 39.078125 305.53125 37.5 303.582031 37.5 Z M 73.597656 64.367188 L 73.597656 44.550781 L 300.058594 44.550781 L 300.058594 64.367188 Z M 73.597656 64.367188"/></g><path d="M 132.796875 225.890625 L 280.324219 225.890625 C 282.273438 225.890625 283.851562 224.3125 283.851562 222.367188 L 283.851562 135.148438 C 283.851562 133.203125 282.273438 131.625 280.324219 131.625 L 175.507812 131.625 C 176.226562 100.15625 141.671875 78.054688 113.605469 92.675781 C 109.535156 94.726562 112.707031 101.023438 116.777344 98.972656 C 149.625 82.910156 182.324219 119.992188 162.542969 150.519531 C 159.398438 144.242188 154.332031 139.09375 148.0625 135.855469 C 153.75 124.816406 145.269531 111.058594 132.796875 111.222656 C 120.324219 111.054688 111.84375 124.820312 117.535156 135.859375 C 111.28125 139.097656 106.203125 144.273438 103.058594 150.527344 C 94.964844 138.828125 95.1875 121.417969 103.945312 109.878906 C 106.628906 106.191406 100.929688 102.042969 98.25 105.726562 C 78.550781 132.019531 96.722656 170.929688 129.273438 173.4375 L 129.273438 222.367188 C 129.273438 224.3125 130.851562 225.890625 132.796875 225.890625 Z M 276.800781 138.675781 L 276.800781 218.839844 L 136.320312 218.839844 L 136.320312 173.4375 C 147.09375 172.550781 156.742188 167.652344 163.773438 160.242188 C 163.976562 160.070312 164.15625 159.875 164.316406 159.664062 C 169.59375 153.890625 173.3125 146.671875 174.796875 138.675781 Z M 132.796875 118.273438 C 138.308594 118.273438 142.792969 122.757812 142.792969 128.269531 C 142.246094 141.539062 123.347656 141.535156 122.800781 128.269531 C 122.800781 122.757812 127.285156 118.273438 132.796875 118.273438 Z M 122.054688 141.5 C 128.238281 146.535156 137.355469 146.535156 143.542969 141.5 C 150.042969 144.417969 155.085938 149.875 157.484375 156.582031 C 144.308594 169.75 121.285156 169.746094 108.113281 156.582031 C 110.507812 149.910156 115.570312 144.421875 122.054688 141.5 Z M 122.054688 141.5"/><path d="M 196.382812 163.539062 L 256.519531 163.539062 C 261.078125 163.539062 261.078125 156.488281 256.519531 156.488281 L 196.382812 156.488281 C 191.824219 156.488281 191.824219 163.539062 196.382812 163.539062 Z M 196.382812 163.539062"/><path d="M 175.394531 182.964844 L 256.519531 182.964844 C 261.078125 182.964844 261.078125 175.914062 256.519531 175.914062 L 175.394531 175.914062 C 170.839844 175.914062 170.839844 182.964844 175.394531 182.964844 Z M 175.394531 182.964844"/><path d="M 256.519531 200.042969 L 238.039062 200.042969 C 233.484375 200.042969 233.484375 207.089844 238.039062 207.089844 L 256.519531 207.089844 C 261.078125 207.089844 261.078125 200.042969 256.519531 200.042969 Z M 256.519531 200.042969"/><path d="M 224.257812 200.042969 L 212.355469 200.042969 C 207.800781 200.042969 207.800781 207.089844 212.355469 207.089844 L 224.257812 207.089844 C 228.816406 207.089844 228.816406 200.042969 224.257812 200.042969 Z M 224.257812 200.042969"/><path d="M 230.957031 121.992188 C 231.988281 123.691406 234.324219 124.609375 236.230469 124.070312 C 240.542969 122.855469 244.273438 120.554688 247.015625 117.417969 C 251.808594 112.054688 253.125 104.648438 252.816406 96.414062 C 252.816406 91.839844 249.097656 88.117188 244.523438 88.117188 L 237.058594 88.117188 C 232.484375 88.117188 228.765625 91.839844 228.765625 96.414062 L 228.765625 99.859375 C 228.765625 103.605469 231.261719 106.78125 234.679688 107.808594 C 234.574219 110.21875 233.957031 113.777344 231.546875 116.347656 C 230.085938 117.898438 229.851562 120.167969 230.957031 121.992188 Z M 235.8125 96.410156 C 235.8125 95.726562 236.371094 95.167969 237.058594 95.167969 L 244.523438 95.167969 C 245.210938 95.167969 245.769531 95.726562 245.769531 96.410156 L 245.769531 99.734375 C 245.769531 106.652344 243.644531 110.976562 240.835938 113.667969 C 242.234375 108.773438 241.617188 104.386719 241.574219 104.109375 C 241.238281 101.835938 239.070312 100.90625 237.058594 101.105469 C 236.371094 101.105469 235.8125 100.546875 235.8125 99.859375 Z M 235.8125 96.410156"/><path d="M 257.929688 121.992188 C 258.960938 123.691406 261.296875 124.609375 263.203125 124.070312 C 267.515625 122.855469 271.246094 120.554688 273.988281 117.417969 C 278.78125 112.054688 280.097656 104.648438 279.789062 96.414062 C 279.789062 91.839844 276.070312 88.117188 271.496094 88.117188 L 264.03125 88.117188 C 259.457031 88.117188 255.738281 91.839844 255.738281 96.414062 L 255.738281 99.859375 C 255.738281 103.605469 258.234375 106.78125 261.65625 107.808594 C 261.546875 110.21875 260.933594 113.773438 258.519531 116.347656 C 257.058594 117.898438 256.824219 120.167969 257.929688 121.992188 Z M 262.785156 96.410156 C 262.785156 95.726562 263.34375 95.167969 264.03125 95.167969 L 271.496094 95.167969 C 272.183594 95.167969 272.742188 95.726562 272.742188 96.410156 L 272.742188 99.734375 C 272.742188 106.652344 270.617188 110.976562 267.808594 113.667969 C 269.207031 108.773438 268.589844 104.386719 268.550781 104.109375 C 268.210938 101.835938 266.042969 100.90625 264.03125 101.105469 C 263.34375 101.105469 262.785156 100.546875 262.785156 99.859375 Z M 262.785156 96.410156"/><g fill="#006EFF"><g><g><path d="M 0.929688 0 L 4.171875 0 L 4.171875 -4.136719 L 8.640625 -4.136719 C 11.777344 -4.136719 13.6875 -5.714844 13.707031 -8.289062 C 13.707031 -10.882812 11.8125 -12.480469 8.675781 -12.480469 L 0.929688 -12.480469 Z M 4.171875 -6.308594 L 4.171875 -10.304688 L 7.886719 -10.304688 C 9.480469 -10.304688 10.429688 -9.550781 10.429688 -8.308594 C 10.429688 -7.0625 9.480469 -6.308594 7.886719 -6.308594 Z M 4.171875 -6.308594" transform="translate(141.713 322.324)"/></g></g></g><g fill="#006EFF"><g><g><path d="M 12.269531 0.332031 C 13.285156 0.332031 14.320312 -0.0859375 14.933594 -0.699219 L 14.25 -2.15625 C 14.023438 -1.859375 13.652344 -1.648438 13.320312 -1.648438 C 12.882812 -1.648438 12.636719 -1.929688 12.460938 -2.3125 L 11.832031 -3.804688 C 11.566406 -4.433594 11.199219 -4.90625 10.621094 -5.152344 L 10.621094 -5.171875 C 12.707031 -5.574219 13.933594 -6.871094 13.933594 -8.640625 C 13.933594 -11.023438 12.078125 -12.480469 9.042969 -12.480469 L 0.929688 -12.480469 L 0.929688 0 L 4.1875 0 L 4.1875 -4.609375 L 7.0625 -4.609375 C 7.851562 -4.609375 8.484375 -4.101562 8.816406 -3.3125 L 9.515625 -1.59375 C 9.992188 -0.527344 10.832031 0.332031 12.269531 0.332031 Z M 4.1875 -6.695312 L 4.1875 -10.269531 L 8.359375 -10.269531 C 9.78125 -10.269531 10.675781 -9.570312 10.675781 -8.464844 C 10.675781 -7.378906 9.78125 -6.695312 8.359375 -6.695312 Z M 4.1875 -6.695312" transform="translate(158.85 322.324)"/></g></g></g><g fill="#006EFF"><g><g><path d="M 8.484375 0.4375 C 13.25 0.4375 16.421875 -2.226562 16.421875 -6.238281 C 16.421875 -10.253906 13.25 -12.917969 8.484375 -12.917969 C 3.734375 -12.917969 0.578125 -10.253906 0.578125 -6.238281 C 0.578125 -2.226562 3.734375 0.4375 8.484375 0.4375 Z M 8.484375 -2.121094 C 5.695312 -2.121094 3.839844 -3.785156 3.839844 -6.238281 C 3.839844 -8.710938 5.695312 -10.359375 8.484375 -10.359375 C 11.289062 -10.359375 13.144531 -8.710938 13.144531 -6.238281 C 13.144531 -3.785156 11.289062 -2.121094 8.484375 -2.121094 Z M 8.484375 -2.121094" transform="translate(176.949 322.324)"/></g></g></g><g fill="#006EFF"><g><g><path d="M 5.660156 0.351562 C 8.921875 0.351562 10.902344 -1.332031 10.902344 -4.171875 L 10.902344 -12.480469 L 7.640625 -12.480469 L 7.640625 -4.363281 C 7.640625 -2.925781 6.835938 -2.085938 5.539062 -2.085938 C 4.152344 -2.085938 3.207031 -2.945312 2.996094 -4.433594 L 0.191406 -3.558594 C 0.578125 -1.085938 2.558594 0.351562 5.660156 0.351562 Z M 5.660156 0.351562" transform="translate(197.046 322.324)"/></g></g></g><g fill="#006EFF"><g><g><path d="M 0.929688 0 L 11.882812 0 L 11.882812 -2.347656 L 4.082031 -2.347656 L 4.082031 -5.347656 L 11.007812 -5.347656 L 11.007812 -7.433594 L 4.082031 -7.433594 L 4.082031 -10.132812 L 11.707031 -10.132812 L 11.707031 -12.480469 L 0.929688 -12.480469 Z M 0.929688 0" transform="translate(211.816 322.324)"/></g></g></g><g fill="#006EFF"><g><g><path d="M 8.378906 0.402344 C 12.339844 0.402344 15.214844 -1.613281 15.773438 -4.765625 L 12.742188 -5.277344 C 12.339844 -3.382812 10.675781 -2.171875 8.449219 -2.171875 C 5.625 -2.171875 3.839844 -3.75 3.839844 -6.238281 C 3.839844 -8.730469 5.449219 -10.304688 7.992188 -10.304688 C 9.867188 -10.304688 11.269531 -9.289062 11.671875 -7.660156 L 14.652344 -8.378906 C 13.988281 -11.128906 11.375 -12.882812 7.941406 -12.882812 C 3.417969 -12.882812 0.578125 -10.289062 0.578125 -6.238281 C 0.578125 -2.136719 3.609375 0.402344 8.378906 0.402344 Z M 8.378906 0.402344" transform="translate(227.2 322.324)"/></g></g></g><g fill="#006EFF"><g><g><path d="M 4.679688 0 L 7.941406 0 L 7.941406 -9.921875 L 12.425781 -9.921875 L 12.425781 -12.480469 L 0.191406 -12.480469 L 0.191406 -9.921875 L 4.679688 -9.921875 Z M 4.679688 0" transform="translate(246.421 322.324)"/></g></g></g><g fill="#006EFF"><g><g><path d="M 7.097656 0.421875 C 10.832031 0.421875 13.355469 -1.210938 13.355469 -3.769531 C 13.355469 -5.855469 11.847656 -6.992188 8.449219 -7.464844 L 6.257812 -7.800781 C 4.699219 -8.027344 4.03125 -8.429688 4.050781 -9.132812 C 4.050781 -10.027344 5.152344 -10.65625 6.75 -10.65625 C 8.378906 -10.65625 9.851562 -9.921875 10.515625 -8.78125 L 12.460938 -10.097656 C 11.636719 -11.796875 9.394531 -12.898438 6.765625 -12.898438 C 3.296875 -12.898438 0.859375 -11.375 0.859375 -8.867188 C 0.859375 -6.851562 2.242188 -5.765625 5.414062 -5.3125 L 7.605469 -4.960938 C 9.414062 -4.679688 10.183594 -4.222656 10.183594 -3.46875 C 10.183594 -2.523438 9.042969 -1.875 7.257812 -1.875 C 5.101562 -1.875 3.136719 -2.875 2.453125 -4.363281 L 0.367188 -3.066406 C 1.226562 -0.894531 3.945312 0.421875 7.097656 0.421875 Z M 7.097656 0.421875" transform="translate(262.156 322.324)"/></g></g></g><g fill="#ED008C"><g><g><path d="M 4.964844 0 L 9.285156 0 L 12.816406 -10.488281 L 12.835938 -10.488281 L 16.332031 0 L 20.648438 0 L 25.578125 -13.601562 L 21.96875 -13.601562 L 18.453125 -3.054688 L 18.433594 -3.054688 L 14.957031 -13.601562 L 10.679688 -13.601562 L 7.238281 -3.054688 L 7.203125 -3.054688 L 3.667969 -13.601562 L 0.0390625 -13.601562 Z M 4.964844 0" transform="translate(98.405 301.238)"/></g></g></g><g fill="#ED008C"><g><g><path d="M 1.011719 0 L 12.953125 0 L 12.953125 -2.558594 L 4.449219 -2.558594 L 4.449219 -5.828125 L 11.996094 -5.828125 L 11.996094 -8.097656 L 4.449219 -8.097656 L 4.449219 -11.042969 L 12.761719 -11.042969 L 12.761719 -13.601562 L 1.011719 -13.601562 Z M 1.011719 0" transform="translate(127.42 301.238)"/></g></g></g><g fill="#ED008C"><g><g><path d="M 1.011719 0 L 10.164062 0 C 13.296875 0 15.148438 -1.414062 15.148438 -3.761719 C 15.148438 -5.40625 14.175781 -6.589844 12.53125 -6.953125 L 12.53125 -6.972656 C 13.964844 -7.375 14.804688 -8.460938 14.804688 -9.894531 C 14.804688 -12.226562 13.007812 -13.601562 9.953125 -13.601562 L 1.011719 -13.601562 Z M 4.566406 -7.964844 L 4.566406 -11.269531 L 9.113281 -11.269531 C 10.449219 -11.269531 11.25 -10.660156 11.25 -9.628906 C 11.25 -8.597656 10.449219 -7.964844 9.113281 -7.964844 Z M 4.546875 -2.347656 L 4.546875 -5.902344 L 9.246094 -5.902344 C 10.699219 -5.902344 11.59375 -5.234375 11.59375 -4.105469 C 11.59375 -3 10.699219 -2.347656 9.246094 -2.347656 Z M 4.546875 -2.347656" transform="translate(144.193 301.238)"/></g></g></g><g fill="#ED008C"><g><g><path d="M 1.011719 0 L 8.367188 0 C 13.332031 0 16.101562 -2.425781 16.101562 -6.800781 C 16.101562 -11.175781 13.332031 -13.601562 8.367188 -13.601562 L 1.011719 -13.601562 Z M 4.46875 -2.65625 L 4.46875 -10.945312 L 8.117188 -10.945312 C 10.984375 -10.945312 12.589844 -9.476562 12.589844 -6.800781 C 12.589844 -4.144531 10.984375 -2.65625 8.117188 -2.65625 Z M 4.46875 -2.65625" transform="translate(171.184 301.238)"/></g></g></g><g fill="#ED008C"><g><g><path d="M 1.011719 0 L 12.953125 0 L 12.953125 -2.558594 L 4.449219 -2.558594 L 4.449219 -5.828125 L 11.996094 -5.828125 L 11.996094 -8.097656 L 4.449219 -8.097656 L 4.449219 -11.042969 L 12.761719 -11.042969 L 12.761719 -13.601562 L 1.011719 -13.601562 Z M 1.011719 0" transform="translate(191.299 301.238)"/></g></g></g><g fill="#ED008C"><g><g><path d="M 5.980469 0 L 10.007812 0 L 15.949219 -13.601562 L 12.226562 -13.601562 L 8.023438 -3.113281 L 7.984375 -3.113281 L 3.742188 -13.601562 L 0.0585938 -13.601562 Z M 5.980469 0" transform="translate(208.07 301.238)"/></g></g></g></svg>