<svg xmlns="http://www.w3.org/2000/svg" xmlns:xlink="http://www.w3.org/1999/xlink" width="375" viewBox="0 0 375 375" height="375" version="1.0"><defs><clipPath id="a"><path d="M 66.453125 268.796875 L 313 268.796875 L 313 346.046875 L 66.453125 346.046875 Z M 66.453125 268.796875"/></clipPath><clipPath id="b"><path d="M 273.292969 346.046875 L 105.808594 346.046875 C 95.558594 346.046875 85.933594 342.089844 78.613281 335.007812 C 71.292969 327.859375 67.179688 318.351562 66.96875 308.21875 C 66.761719 297.875 70.664062 288.089844 78.054688 280.664062 C 85.449219 273.097656 95.765625 268.796875 106.367188 268.796875 L 273.851562 268.796875 C 284.101562 268.796875 293.722656 272.75 301.042969 279.832031 C 308.363281 286.980469 312.480469 296.488281 312.6875 306.621094 C 312.898438 316.964844 308.992188 326.75 301.601562 334.175781 C 294.210938 341.742188 283.890625 346.046875 273.292969 346.046875 Z M 106.367188 279.898438 C 98.625 279.898438 91.375 282.953125 86.003906 288.4375 C 80.777344 293.710938 77.988281 300.652344 78.125 308.011719 C 78.40625 322.863281 90.816406 335.007812 105.808594 335.007812 L 273.292969 335.007812 C 281.03125 335.007812 288.285156 331.957031 293.652344 326.472656 C 298.882812 321.199219 301.671875 314.1875 301.53125 306.898438 C 301.253906 291.976562 288.839844 279.898438 273.917969 279.898438 Z M 106.367188 279.898438"/></clipPath><linearGradient x1="-.3" gradientTransform="matrix(.69727 0 0 .69407 66.97 268.795)" xmlns:xlink="http://www.w3.org/1999/xlink" y1="55.666" x2="352.7" gradientUnits="userSpaceOnUse" y2="55.666" xlink:type="simple" xlink:actuate="onLoad" id="c" xlink:show="other"><stop stop-color="#ED008C" offset="0"/><stop stop-color="#EC008C" offset=".004"/><stop stop-color="#EB018D" offset=".008"/><stop stop-color="#EA018D" offset=".012"/><stop stop-color="#E9028E" offset=".016"/><stop stop-color="#E8028E" offset=".02"/><stop stop-color="#E8028F" offset=".023"/><stop stop-color="#E7038F" offset=".027"/><stop stop-color="#E6038F" offset=".031"/><stop stop-color="#E50490" offset=".035"/><stop stop-color="#E40490" offset=".039"/><stop stop-color="#E30591" offset=".043"/><stop stop-color="#E20591" offset=".047"/><stop stop-color="#E10592" offset=".051"/><stop stop-color="#E00692" offset=".055"/><stop stop-color="#DF0693" offset=".059"/><stop stop-color="#DE0793" offset=".063"/><stop stop-color="#DD0794" offset=".066"/><stop stop-color="#DC0894" offset=".07"/><stop stop-color="#DB0894" offset=".074"/><stop stop-color="#DB0995" offset=".078"/><stop stop-color="#DA0995" offset=".082"/><stop stop-color="#D90996" offset=".086"/><stop stop-color="#D80A96" offset=".09"/><stop stop-color="#D70A97" offset=".094"/><stop stop-color="#D60B97" offset=".098"/><stop stop-color="#D50B98" offset=".102"/><stop stop-color="#D40C98" offset=".105"/><stop stop-color="#D30C98" offset=".109"/><stop stop-color="#D20C99" offset=".113"/><stop stop-color="#D10D99" offset=".117"/><stop stop-color="#D00D9A" offset=".121"/><stop stop-color="#CF0E9A" offset=".125"/><stop stop-color="#CF0E9B" offset=".129"/><stop stop-color="#CE0F9B" offset=".133"/><stop stop-color="#CD0F9C" offset=".137"/><stop stop-color="#CC0F9C" offset=".141"/><stop stop-color="#CB109D" offset=".145"/><stop stop-color="#CA109D" offset=".148"/><stop stop-color="#C9119D" offset=".152"/><stop stop-color="#C8119E" offset=".156"/><stop stop-color="#C7129E" offset=".16"/><stop stop-color="#C6129F" offset=".164"/><stop stop-color="#C5129F" offset=".168"/><stop stop-color="#C413A0" offset=".172"/><stop stop-color="#C313A0" offset=".176"/><stop stop-color="#C214A1" offset=".18"/><stop stop-color="#C214A1" offset=".184"/><stop stop-color="#C115A1" offset=".188"/><stop stop-color="#C015A2" offset=".191"/><stop stop-color="#BF15A2" offset=".195"/><stop stop-color="#BE16A3" offset=".199"/><stop stop-color="#BD16A3" offset=".203"/><stop stop-color="#BC17A4" offset=".207"/><stop stop-color="#BB17A4" offset=".211"/><stop stop-color="#BA18A5" offset=".215"/><stop stop-color="#B918A5" offset=".219"/><stop stop-color="#B818A6" offset=".223"/><stop stop-color="#B719A6" offset=".227"/><stop stop-color="#B619A6" offset=".23"/><stop stop-color="#B51AA7" offset=".234"/><stop stop-color="#B51AA7" offset=".238"/><stop stop-color="#B41BA8" offset=".242"/><stop stop-color="#B31BA8" offset=".246"/><stop stop-color="#B21BA9" offset=".25"/><stop stop-color="#B11CA9" offset=".254"/><stop stop-color="#B01CAA" offset=".258"/><stop stop-color="#AF1DAA" offset=".262"/><stop stop-color="#AE1DAA" offset=".266"/><stop stop-color="#AD1EAB" offset=".27"/><stop stop-color="#AC1EAB" offset=".273"/><stop stop-color="#AB1EAC" offset=".277"/><stop stop-color="#AA1FAC" offset=".281"/><stop stop-color="#A91FAD" offset=".285"/><stop stop-color="#A920AD" offset=".289"/><stop stop-color="#A820AE" offset=".293"/><stop stop-color="#A721AE" offset=".297"/><stop stop-color="#A621AF" offset=".301"/><stop stop-color="#A521AF" offset=".305"/><stop stop-color="#A422AF" offset=".309"/><stop stop-color="#A322B0" offset=".313"/><stop stop-color="#A223B0" offset=".316"/><stop stop-color="#A123B1" offset=".32"/><stop stop-color="#A024B1" offset=".324"/><stop stop-color="#9F24B2" offset=".328"/><stop stop-color="#9E24B2" offset=".332"/><stop stop-color="#9D25B3" offset=".336"/><stop stop-color="#9C25B3" offset=".34"/><stop stop-color="#9C26B3" offset=".344"/><stop stop-color="#9B26B4" offset=".348"/><stop stop-color="#9A27B4" offset=".352"/><stop stop-color="#9927B5" offset=".355"/><stop stop-color="#9827B5" offset=".359"/><stop stop-color="#9728B6" offset=".363"/><stop stop-color="#9628B6" offset=".367"/><stop stop-color="#9529B7" offset=".371"/><stop stop-color="#9429B7" offset=".375"/><stop stop-color="#932AB8" offset=".379"/><stop stop-color="#922AB8" offset=".383"/><stop stop-color="#912AB8" offset=".387"/><stop stop-color="#902BB9" offset=".391"/><stop stop-color="#8F2BB9" offset=".395"/><stop stop-color="#8F2CBA" offset=".398"/><stop stop-color="#8E2CBA" offset=".402"/><stop stop-color="#8D2DBB" offset=".406"/><stop stop-color="#8C2DBB" offset=".41"/><stop stop-color="#8B2DBC" offset=".414"/><stop stop-color="#8A2EBC" offset=".418"/><stop stop-color="#892EBC" offset=".422"/><stop stop-color="#882FBD" offset=".426"/><stop stop-color="#872FBD" offset=".43"/><stop stop-color="#8630BE" offset=".434"/><stop stop-color="#8530BE" offset=".438"/><stop stop-color="#8430BF" offset=".441"/><stop stop-color="#8331BF" offset=".445"/><stop stop-color="#8331C0" offset=".449"/><stop stop-color="#8232C0" offset=".453"/><stop stop-color="#8132C1" offset=".457"/><stop stop-color="#8033C1" offset=".461"/><stop stop-color="#7F33C1" offset=".465"/><stop stop-color="#7E34C2" offset=".469"/><stop stop-color="#7D34C2" offset=".473"/><stop stop-color="#7C34C3" offset=".477"/><stop stop-color="#7B35C3" offset=".48"/><stop stop-color="#7A35C4" offset=".484"/><stop stop-color="#7936C4" offset=".488"/><stop stop-color="#7836C5" offset=".492"/><stop stop-color="#7737C5" offset=".496"/><stop stop-color="#7637C5" offset=".5"/><stop stop-color="#7637C6" offset=".504"/><stop stop-color="#7538C6" offset=".508"/><stop stop-color="#7438C7" offset=".512"/><stop stop-color="#7339C7" offset=".516"/><stop stop-color="#7239C8" offset=".52"/><stop stop-color="#713AC8" offset=".523"/><stop stop-color="#703AC9" offset=".527"/><stop stop-color="#6F3AC9" offset=".531"/><stop stop-color="#6E3BCA" offset=".535"/><stop stop-color="#6D3BCA" offset=".539"/><stop stop-color="#6C3CCA" offset=".543"/><stop stop-color="#6B3CCB" offset=".547"/><stop stop-color="#6A3DCB" offset=".551"/><stop stop-color="#693DCC" offset=".555"/><stop stop-color="#693DCC" offset=".559"/><stop stop-color="#683ECD" offset=".563"/><stop stop-color="#673ECD" offset=".566"/><stop stop-color="#663FCE" offset=".57"/><stop stop-color="#653FCE" offset=".574"/><stop stop-color="#6440CE" offset=".578"/><stop stop-color="#6340CF" offset=".582"/><stop stop-color="#6240CF" offset=".586"/><stop stop-color="#6141D0" offset=".59"/><stop stop-color="#6041D0" offset=".594"/><stop stop-color="#5F42D1" offset=".598"/><stop stop-color="#5E42D1" offset=".602"/><stop stop-color="#5D43D2" offset=".605"/><stop stop-color="#5D43D2" offset=".609"/><stop stop-color="#5C43D3" offset=".613"/><stop stop-color="#5B44D3" offset=".617"/><stop stop-color="#5A44D3" offset=".621"/><stop stop-color="#5945D4" offset=".625"/><stop stop-color="#5845D4" offset=".629"/><stop stop-color="#5746D5" offset=".633"/><stop stop-color="#5646D5" offset=".637"/><stop stop-color="#5546D6" offset=".641"/><stop stop-color="#5447D6" offset=".645"/><stop stop-color="#5347D7" offset=".648"/><stop stop-color="#5248D7" offset=".652"/><stop stop-color="#5148D7" offset=".656"/><stop stop-color="#5049D8" offset=".66"/><stop stop-color="#5049D8" offset=".664"/><stop stop-color="#4F49D9" offset=".668"/><stop stop-color="#4E4AD9" offset=".672"/><stop stop-color="#4D4ADA" offset=".676"/><stop stop-color="#4C4BDA" offset=".68"/><stop stop-color="#4B4BDB" offset=".684"/><stop stop-color="#4A4CDB" offset=".688"/><stop stop-color="#494CDC" offset=".691"/><stop stop-color="#484CDC" offset=".695"/><stop stop-color="#474DDC" offset=".699"/><stop stop-color="#464DDD" offset=".703"/><stop stop-color="#454EDD" offset=".707"/><stop stop-color="#444EDE" offset=".711"/><stop stop-color="#434FDE" offset=".715"/><stop stop-color="#434FDF" offset=".719"/><stop stop-color="#424FDF" offset=".723"/><stop stop-color="#4150E0" offset=".727"/><stop stop-color="#4050E0" offset=".73"/><stop stop-color="#3F51E0" offset=".734"/><stop stop-color="#3E51E1" offset=".738"/><stop stop-color="#3D52E1" offset=".742"/><stop stop-color="#3C52E2" offset=".746"/><stop stop-color="#3B52E2" offset=".75"/><stop stop-color="#3A53E3" offset=".754"/><stop stop-color="#3953E3" offset=".758"/><stop stop-color="#3854E4" offset=".762"/><stop stop-color="#3754E4" offset=".766"/><stop stop-color="#3755E5" offset=".77"/><stop stop-color="#3655E5" offset=".773"/><stop stop-color="#3555E5" offset=".777"/><stop stop-color="#3456E6" offset=".781"/><stop stop-color="#3356E6" offset=".785"/><stop stop-color="#3257E7" offset=".789"/><stop stop-color="#3157E7" offset=".793"/><stop stop-color="#3058E8" offset=".797"/><stop stop-color="#2F58E8" offset=".801"/><stop stop-color="#2E58E9" offset=".805"/><stop stop-color="#2D59E9" offset=".809"/><stop stop-color="#2C59E9" offset=".813"/><stop stop-color="#2B5AEA" offset=".816"/><stop stop-color="#2A5AEA" offset=".82"/><stop stop-color="#2A5BEB" offset=".824"/><stop stop-color="#295BEB" offset=".828"/><stop stop-color="#285BEC" offset=".832"/><stop stop-color="#275CEC" offset=".836"/><stop stop-color="#265CED" offset=".84"/><stop stop-color="#255DED" offset=".844"/><stop stop-color="#245DEE" offset=".848"/><stop stop-color="#235EEE" offset=".852"/><stop stop-color="#225EEE" offset=".855"/><stop stop-color="#215FEF" offset=".859"/><stop stop-color="#205FEF" offset=".863"/><stop stop-color="#1F5FF0" offset=".867"/><stop stop-color="#1E60F0" offset=".871"/><stop stop-color="#1D60F1" offset=".875"/><stop stop-color="#1D61F1" offset=".879"/><stop stop-color="#1C61F2" offset=".883"/><stop stop-color="#1B62F2" offset=".887"/><stop stop-color="#1A62F2" offset=".891"/><stop stop-color="#1962F3" offset=".895"/><stop stop-color="#1863F3" offset=".898"/><stop stop-color="#1763F4" offset=".902"/><stop stop-color="#1664F4" offset=".906"/><stop stop-color="#1564F5" offset=".91"/><stop stop-color="#1465F5" offset=".914"/><stop stop-color="#1365F6" offset=".918"/><stop stop-color="#1265F6" offset=".922"/><stop stop-color="#1166F7" offset=".926"/><stop stop-color="#1166F7" offset=".93"/><stop stop-color="#1067F7" offset=".934"/><stop stop-color="#0F67F8" offset=".938"/><stop stop-color="#0E68F8" offset=".941"/><stop stop-color="#0D68F9" offset=".945"/><stop stop-color="#0C68F9" offset=".949"/><stop stop-color="#0B69FA" offset=".953"/><stop stop-color="#0A69FA" offset=".957"/><stop stop-color="#096AFB" offset=".961"/><stop stop-color="#086AFB" offset=".965"/><stop stop-color="#076BFB" offset=".969"/><stop stop-color="#066BFC" offset=".973"/><stop stop-color="#056BFC" offset=".977"/><stop stop-color="#046CFD" offset=".98"/><stop stop-color="#046CFD" offset=".984"/><stop stop-color="#036DFE" offset=".988"/><stop stop-color="#026DFE" offset=".992"/><stop stop-color="#016EFF" offset=".996"/><stop stop-color="#006EFF" offset="1"/></linearGradient></defs><path fill="#FFF" d="M-37.5 -37.5H412.5V412.5H-37.5z"/><path fill="#FFF" d="M-37.5 -37.5H412.5V412.5H-37.5z"/><path d="M-37.5 -37.5H412.5V412.5H-37.5z"/><g clip-path="url(#a)"><g clip-path="url(#b)"><path fill="url(#c)" d="M 66.761719 268.796875 L 66.761719 346.046875 L 312.898438 346.046875 L 312.898438 268.796875 Z M 66.761719 268.796875"/></g></g><path fill="#006EFF" d="M 112.441406 191.839844 L 124.398438 191.839844 L 124.398438 168.375 C 124.398438 151.410156 144.066406 132.8125 161.152344 132.8125 L 211.410156 132.8125 C 225.382812 132.8125 236.542969 124.6875 236.542969 110.359375 L 236.542969 61.394531 C 236.542969 47.457031 225.058594 37.019531 211.410156 34.671875 C 194.566406 31.832031 176.246094 31.980469 161.152344 34.71875 L 161.160156 34.710938 C 139.886719 38.5625 136.027344 46.59375 136.027344 61.433594 L 136.027344 87.535156 L 186.34375 87.535156 L 117.144531 87.535156 C 102.507812 87.535156 89.703125 96.527344 85.710938 113.59375 C 81.097656 133.15625 80.910156 145.351562 85.710938 165.792969 C 89.285156 180.972656 97.8125 191.839844 112.441406 191.839844 Z M 112.441406 191.839844"/><path d="M 248.359375 95.417969 L 248.371094 95.417969 L 248.371094 95.378906 Z M 248.359375 95.417969"/><path fill="#F2BB30" d="M 265.964844 189.0625 C 280.878906 189.0625 290.042969 183.148438 295.214844 166.589844 C 300.585938 149.535156 300.347656 133.128906 295.214844 111.28125 C 291.527344 95.550781 284.53125 83.675781 269.617188 83.675781 L 253.292969 83.675781 L 253.292969 107.832031 C 253.292969 126.570312 238.40625 145.324219 221.34375 145.324219 L 170.152344 145.324219 C 156.148438 145.324219 141.597656 155.097656 141.597656 170.011719 L 141.597656 214.9375 C 141.597656 229.703125 153.679688 238.363281 167.195312 242.589844 C 183.394531 247.628906 198.984375 248.542969 218.386719 242.589844 C 231.285156 238.617188 243.988281 230.613281 243.988281 214.9375 L 242.132812 192.351562 L 190.980469 192.351562 Z M 265.964844 189.0625"/><path fill="#FFF" d="M 208.128906 205.242188 C 213.445312 205.242188 217.757812 209.882812 217.757812 215.585938 C 217.757812 221.34375 213.445312 225.976562 208.128906 225.976562 C 202.855469 225.976562 198.5 221.289062 198.5 215.585938 C 198.539062 209.824219 202.855469 205.242188 208.128906 205.242188 Z M 208.128906 205.242188"/><path fill="#FFF" d="M 172.480469 53.144531 C 177.796875 53.144531 182.113281 57.78125 182.113281 63.484375 C 182.113281 69.246094 177.796875 73.875 172.480469 73.875 C 167.207031 73.875 162.851562 69.191406 162.851562 63.484375 C 162.890625 57.726562 167.207031 53.144531 172.480469 53.144531 Z M 172.480469 53.144531"/><path d="M 141.597656 198.96875 C 137.660156 198.96875 134.464844 195.773438 134.464844 191.839844 L 134.464844 167.503906 C 134.75 151.445312 144.914062 141.929688 161.644531 141.929688 L 213.832031 141.929688 C 235.554688 141.929688 248.523438 129.707031 248.523438 109.230469 L 248.523438 84.894531 C 248.523438 80.957031 251.714844 77.765625 255.652344 77.765625 C 259.585938 77.765625 262.78125 80.957031 262.78125 84.894531 L 262.78125 108.660156 C 262.78125 137.757812 243.570312 156.191406 213.832031 156.191406 L 161.644531 156.191406 C 150.4375 156.191406 148.820312 161.96875 148.726562 167.636719 L 148.726562 191.839844 C 148.726562 195.773438 145.53125 198.96875 141.597656 198.96875 Z M 141.597656 198.96875"/><path d="M 190.734375 253.628906 C 181.550781 253.628906 172.175781 252.90625 163.25 251.453125 C 145.75 248.484375 134.464844 235.054688 134.464844 217.21875 L 134.464844 167.503906 C 134.464844 163.566406 137.660156 160.371094 141.597656 160.371094 C 145.53125 160.371094 148.726562 163.566406 148.726562 167.503906 L 148.726562 217.210938 C 148.726562 228.058594 155.027344 235.585938 165.589844 237.371094 C 182.101562 240.054688 200.238281 240.035156 215.296875 237.277344 C 224.203125 235.757812 229.785156 233.503906 232.429688 230.375 C 234.578125 227.839844 235.488281 223.902344 235.488281 217.199219 L 235.488281 194.195312 L 196.238281 194.195312 C 192.300781 194.195312 189.109375 191 189.109375 187.066406 C 189.109375 183.128906 192.300781 179.9375 196.238281 179.9375 L 242.617188 179.9375 C 246.554688 179.9375 249.75 183.128906 249.75 187.066406 L 249.75 217.199219 C 249.75 224.09375 249.015625 232.847656 243.304688 239.585938 C 238.339844 245.445312 230.230469 249.179688 217.777344 251.308594 C 209.414062 252.859375 200.171875 253.628906 190.734375 253.628906 Z M 190.734375 253.628906"/><path d="M 262.210938 194.214844 L 242.628906 194.214844 C 238.691406 194.214844 235.5 191.019531 235.5 187.085938 C 235.5 183.148438 238.691406 179.957031 242.628906 179.957031 L 262.210938 179.957031 C 275.957031 179.957031 282.488281 175.089844 285.511719 162.597656 C 290.101562 143.402344 290.101562 132.253906 285.5 112.871094 C 281.335938 95.570312 275.109375 92.023438 267.058594 92.023438 L 262.78125 92.023438 L 262.78125 108.660156 C 262.78125 112.59375 259.585938 116.074219 255.652344 116.074219 C 251.714844 116.074219 248.523438 113.15625 248.523438 109.21875 L 248.523438 84.894531 C 248.523438 80.957031 251.714844 77.765625 255.652344 77.765625 L 267.058594 77.765625 C 289.160156 77.765625 296.082031 95.902344 299.371094 109.550781 C 304.457031 131 304.457031 144.6875 299.371094 165.933594 C 294.835938 184.699219 282.335938 194.214844 262.210938 194.214844 Z M 262.210938 194.214844"/><path d="M 208.128906 232.238281 C 198.957031 232.238281 191.496094 224.765625 191.496094 215.585938 C 191.496094 206.421875 198.957031 198.96875 208.128906 198.96875 C 217.304688 198.96875 224.765625 206.421875 224.765625 215.585938 C 224.671875 224.804688 217.207031 232.238281 208.128906 232.238281 Z M 208.128906 213.226562 C 206.816406 213.226562 205.753906 214.28125 205.753906 215.585938 C 205.753906 218.171875 210.476562 218.207031 210.507812 215.519531 C 210.507812 214.28125 209.433594 213.226562 208.128906 213.226562 Z M 208.128906 213.226562"/><path d="M 122.601562 201.34375 C 118.667969 201.34375 115.472656 198.148438 115.472656 194.214844 L 115.472656 170.449219 C 115.472656 141.351562 134.683594 122.917969 164.421875 122.917969 L 216.609375 122.917969 C 227.816406 122.917969 229.433594 117.136719 229.527344 111.484375 L 229.527344 87.269531 C 229.527344 83.335938 232.722656 80.140625 236.65625 80.140625 C 240.59375 80.140625 243.789062 83.335938 243.789062 87.269531 L 243.789062 111.617188 C 243.503906 127.671875 233.339844 137.175781 216.609375 137.175781 L 164.421875 137.175781 C 142.699219 137.175781 129.734375 149.402344 129.734375 169.878906 L 129.734375 194.214844 C 129.734375 198.148438 126.539062 201.34375 122.601562 201.34375 Z M 122.601562 201.34375"/><path d="M 236.65625 118.746094 C 232.722656 118.746094 229.527344 115.550781 229.527344 111.617188 L 229.527344 61.890625 C 229.527344 51.042969 223.226562 43.511719 212.664062 41.726562 C 196.152344 39.046875 178.015625 39.0625 162.957031 41.820312 C 154.050781 43.34375 148.46875 45.59375 145.816406 48.714844 C 143.667969 51.25 142.757812 55.1875 142.757812 61.890625 L 142.757812 84.894531 L 182.007812 84.894531 C 185.941406 84.894531 189.136719 88.085938 189.136719 92.023438 C 189.136719 95.957031 185.941406 99.152344 182.007812 99.152344 L 135.625 99.152344 C 131.691406 99.152344 128.496094 95.957031 128.496094 92.023438 L 128.496094 61.890625 C 128.496094 54.996094 129.230469 46.242188 134.941406 39.5 C 139.902344 33.644531 148.011719 29.910156 160.464844 27.78125 C 177.007812 24.777344 196.902344 24.71875 215.003906 27.667969 C 232.511719 30.632812 243.796875 44.066406 243.796875 61.898438 L 243.796875 111.617188 C 243.789062 115.550781 240.601562 118.746094 236.65625 118.746094 Z M 236.65625 118.746094"/><path d="M 122.601562 201.34375 L 111.195312 201.34375 C 89.09375 201.34375 82.171875 183.207031 78.882812 169.554688 C 73.796875 148.109375 73.796875 134.421875 78.882812 113.175781 C 83.417969 94.410156 95.917969 84.894531 116.042969 84.894531 L 135.625 84.894531 C 139.5625 84.894531 142.757812 88.085938 142.757812 92.023438 C 142.757812 95.957031 139.5625 99.152344 135.625 99.152344 L 116.042969 99.152344 C 102.296875 99.152344 95.765625 104.019531 92.742188 116.511719 C 88.152344 135.703125 88.152344 146.855469 92.753906 166.238281 C 96.917969 183.539062 103.144531 187.085938 111.195312 187.085938 L 115.472656 187.085938 L 115.472656 170.449219 C 115.472656 166.515625 118.667969 163.035156 122.601562 163.035156 C 126.539062 163.035156 129.734375 165.953125 129.734375 169.886719 L 129.734375 194.222656 C 129.734375 198.148438 126.539062 201.34375 122.601562 201.34375 Z M 122.601562 201.34375"/><path d="M 170.125 80.140625 C 160.949219 80.140625 153.488281 72.6875 153.488281 63.523438 C 153.574219 54.304688 161.035156 46.867188 170.125 46.867188 C 179.296875 46.867188 186.761719 54.339844 186.761719 63.523438 C 186.761719 72.6875 179.296875 80.140625 170.125 80.140625 Z M 170.125 61.128906 C 168.804688 61.128906 167.757812 62.210938 167.746094 63.589844 C 167.746094 66.0625 172.5 66.128906 172.5 63.523438 C 172.5 62.25 171.398438 61.128906 170.125 61.128906 Z M 170.125 61.128906"/><g fill="#006EFF"><g><g><path d="M 0.929688 0 L 4.171875 0 L 4.171875 -4.136719 L 8.640625 -4.136719 C 11.777344 -4.136719 13.6875 -5.714844 13.707031 -8.289062 C 13.707031 -10.882812 11.8125 -12.480469 8.675781 -12.480469 L 0.929688 -12.480469 Z M 4.171875 -6.308594 L 4.171875 -10.304688 L 7.886719 -10.304688 C 9.480469 -10.304688 10.429688 -9.550781 10.429688 -8.308594 C 10.429688 -7.0625 9.480469 -6.308594 7.886719 -6.308594 Z M 4.171875 -6.308594" transform="translate(141.713 322.324)"/></g></g></g><g fill="#006EFF"><g><g><path d="M 12.269531 0.332031 C 13.285156 0.332031 14.320312 -0.0859375 14.933594 -0.699219 L 14.25 -2.15625 C 14.023438 -1.859375 13.652344 -1.648438 13.320312 -1.648438 C 12.882812 -1.648438 12.636719 -1.929688 12.460938 -2.3125 L 11.832031 -3.804688 C 11.566406 -4.433594 11.199219 -4.90625 10.621094 -5.152344 L 10.621094 -5.171875 C 12.707031 -5.574219 13.933594 -6.871094 13.933594 -8.640625 C 13.933594 -11.023438 12.078125 -12.480469 9.042969 -12.480469 L 0.929688 -12.480469 L 0.929688 0 L 4.1875 0 L 4.1875 -4.609375 L 7.0625 -4.609375 C 7.851562 -4.609375 8.484375 -4.101562 8.816406 -3.3125 L 9.515625 -1.59375 C 9.992188 -0.527344 10.832031 0.332031 12.269531 0.332031 Z M 4.1875 -6.695312 L 4.1875 -10.269531 L 8.359375 -10.269531 C 9.78125 -10.269531 10.675781 -9.570312 10.675781 -8.464844 C 10.675781 -7.378906 9.78125 -6.695312 8.359375 -6.695312 Z M 4.1875 -6.695312" transform="translate(158.85 322.324)"/></g></g></g><g fill="#006EFF"><g><g><path d="M 8.484375 0.4375 C 13.25 0.4375 16.421875 -2.226562 16.421875 -6.238281 C 16.421875 -10.253906 13.25 -12.917969 8.484375 -12.917969 C 3.734375 -12.917969 0.578125 -10.253906 0.578125 -6.238281 C 0.578125 -2.226562 3.734375 0.4375 8.484375 0.4375 Z M 8.484375 -2.121094 C 5.695312 -2.121094 3.839844 -3.785156 3.839844 -6.238281 C 3.839844 -8.710938 5.695312 -10.359375 8.484375 -10.359375 C 11.289062 -10.359375 13.144531 -8.710938 13.144531 -6.238281 C 13.144531 -3.785156 11.289062 -2.121094 8.484375 -2.121094 Z M 8.484375 -2.121094" transform="translate(176.949 322.324)"/></g></g></g><g fill="#006EFF"><g><g><path d="M 5.660156 0.351562 C 8.921875 0.351562 10.902344 -1.332031 10.902344 -4.171875 L 10.902344 -12.480469 L 7.640625 -12.480469 L 7.640625 -4.363281 C 7.640625 -2.925781 6.835938 -2.085938 5.539062 -2.085938 C 4.152344 -2.085938 3.207031 -2.945312 2.996094 -4.433594 L 0.191406 -3.558594 C 0.578125 -1.085938 2.558594 0.351562 5.660156 0.351562 Z M 5.660156 0.351562" transform="translate(197.046 322.324)"/></g></g></g><g fill="#006EFF"><g><g><path d="M 0.929688 0 L 11.882812 0 L 11.882812 -2.347656 L 4.082031 -2.347656 L 4.082031 -5.347656 L 11.007812 -5.347656 L 11.007812 -7.433594 L 4.082031 -7.433594 L 4.082031 -10.132812 L 11.707031 -10.132812 L 11.707031 -12.480469 L 0.929688 -12.480469 Z M 0.929688 0" transform="translate(211.816 322.324)"/></g></g></g><g fill="#006EFF"><g><g><path d="M 8.378906 0.402344 C 12.339844 0.402344 15.214844 -1.613281 15.773438 -4.765625 L 12.742188 -5.277344 C 12.339844 -3.382812 10.675781 -2.171875 8.449219 -2.171875 C 5.625 -2.171875 3.839844 -3.75 3.839844 -6.238281 C 3.839844 -8.730469 5.449219 -10.304688 7.992188 -10.304688 C 9.867188 -10.304688 11.269531 -9.289062 11.671875 -7.660156 L 14.652344 -8.378906 C 13.988281 -11.128906 11.375 -12.882812 7.941406 -12.882812 C 3.417969 -12.882812 0.578125 -10.289062 0.578125 -6.238281 C 0.578125 -2.136719 3.609375 0.402344 8.378906 0.402344 Z M 8.378906 0.402344" transform="translate(227.2 322.324)"/></g></g></g><g fill="#006EFF"><g><g><path d="M 4.679688 0 L 7.941406 0 L 7.941406 -9.921875 L 12.425781 -9.921875 L 12.425781 -12.480469 L 0.191406 -12.480469 L 0.191406 -9.921875 L 4.679688 -9.921875 Z M 4.679688 0" transform="translate(246.421 322.324)"/></g></g></g><g fill="#006EFF"><g><g><path d="M 7.097656 0.421875 C 10.832031 0.421875 13.355469 -1.210938 13.355469 -3.769531 C 13.355469 -5.855469 11.847656 -6.992188 8.449219 -7.464844 L 6.257812 -7.800781 C 4.699219 -8.027344 4.03125 -8.429688 4.050781 -9.132812 C 4.050781 -10.027344 5.152344 -10.65625 6.75 -10.65625 C 8.378906 -10.65625 9.851562 -9.921875 10.515625 -8.78125 L 12.460938 -10.097656 C 11.636719 -11.796875 9.394531 -12.898438 6.765625 -12.898438 C 3.296875 -12.898438 0.859375 -11.375 0.859375 -8.867188 C 0.859375 -6.851562 2.242188 -5.765625 5.414062 -5.3125 L 7.605469 -4.960938 C 9.414062 -4.679688 10.183594 -4.222656 10.183594 -3.46875 C 10.183594 -2.523438 9.042969 -1.875 7.257812 -1.875 C 5.101562 -1.875 3.136719 -2.875 2.453125 -4.363281 L 0.367188 -3.066406 C 1.226562 -0.894531 3.945312 0.421875 7.097656 0.421875 Z M 7.097656 0.421875" transform="translate(262.156 322.324)"/></g></g></g><g fill="#ED008C"><g><g><path d="M 1.011719 0 L 4.546875 0 L 4.546875 -4.507812 L 9.417969 -4.507812 C 12.835938 -4.507812 14.917969 -6.226562 14.9375 -9.035156 C 14.9375 -11.863281 12.875 -13.601562 9.457031 -13.601562 L 1.011719 -13.601562 Z M 4.546875 -6.875 L 4.546875 -11.230469 L 8.597656 -11.230469 C 10.335938 -11.230469 11.367188 -10.410156 11.367188 -9.054688 C 11.367188 -7.699219 10.335938 -6.875 8.597656 -6.875 Z M 4.546875 -6.875" transform="translate(103.112 301.238)"/></g></g></g><g fill="#ED008C"><g><g><path d="M 5.769531 0 L 9.320312 0 L 9.320312 -4.792969 L 14.957031 -13.601562 L 11.117188 -13.601562 L 7.566406 -7.546875 L 7.546875 -7.546875 L 3.839844 -13.601562 L 0.0390625 -13.601562 L 5.769531 -4.792969 Z M 5.769531 0" transform="translate(121.794 301.238)"/></g></g></g><g fill="#ED008C"><g><g><path d="M 5.101562 0 L 8.652344 0 L 8.652344 -10.8125 L 13.542969 -10.8125 L 13.542969 -13.601562 L 0.210938 -13.601562 L 0.210938 -10.8125 L 5.101562 -10.8125 Z M 5.101562 0" transform="translate(140.209 301.238)"/></g></g></g><g fill="#ED008C"><g><g><path d="M 1.011719 0 L 4.566406 0 L 4.566406 -5.75 L 11.730469 -5.75 L 11.730469 0 L 15.28125 0 L 15.28125 -13.601562 L 11.730469 -13.601562 L 11.730469 -8.40625 L 4.566406 -8.40625 L 4.566406 -13.601562 L 1.011719 -13.601562 Z M 1.011719 0" transform="translate(157.363 301.238)"/></g></g></g><g fill="#ED008C"><g><g><path d="M 9.246094 0.476562 C 14.441406 0.476562 17.898438 -2.425781 17.898438 -6.800781 C 17.898438 -11.175781 14.441406 -14.078125 9.246094 -14.078125 C 4.070312 -14.078125 0.628906 -11.175781 0.628906 -6.800781 C 0.628906 -2.425781 4.070312 0.476562 9.246094 0.476562 Z M 9.246094 -2.3125 C 6.207031 -2.3125 4.183594 -4.125 4.183594 -6.800781 C 4.183594 -9.492188 6.207031 -11.289062 9.246094 -11.289062 C 12.300781 -11.289062 14.328125 -9.492188 14.328125 -6.800781 C 14.328125 -4.125 12.300781 -2.3125 9.246094 -2.3125 Z M 9.246094 -2.3125" transform="translate(177.057 301.238)"/></g></g></g><g fill="#ED008C"><g><g><path d="M 1.011719 0 L 4.375 0 L 4.375 -9.835938 L 4.394531 -9.835938 L 11.441406 0 L 15.683594 0 L 15.683594 -13.601562 L 12.300781 -13.601562 L 12.300781 -3.800781 L 12.28125 -3.800781 L 5.253906 -13.601562 L 1.011719 -13.601562 Z M 1.011719 0" transform="translate(198.967 301.238)"/></g></g></g></svg>