<svg xmlns="http://www.w3.org/2000/svg" width="375" viewBox="0 0 375 375" height="375" version="1.0"><defs><clipPath id="a"><path d="M 89 10.441406 L 286 10.441406 L 286 120 L 89 120 Z M 89 10.441406"/></clipPath><clipPath id="b"><path d="M 30.023438 53 L 150 53 L 150 136 L 30.023438 136 Z M 30.023438 53"/></clipPath><clipPath id="c"><path d="M 225 53 L 345.023438 53 L 345.023438 136 L 225 136 Z M 225 53"/></clipPath><clipPath id="d"><path d="M 30.023438 53 L 150 53 L 150 71 L 30.023438 71 Z M 30.023438 53"/></clipPath></defs><path fill="#233266" d="M 274.421875 290.144531 L 100.628906 290.144531 L 100.628906 262.457031 L 274.421875 262.457031 L 274.421875 290.144531"/><path fill="#273F86" d="M 138.644531 325.441406 L 293.027344 299.710938 C 297.960938 298.890625 301.578125 294.625 301.578125 289.621094 C 301.578125 271.957031 284.976562 258.992188 267.835938 263.277344 L 138.644531 295.574219 L 138.644531 325.441406"/><path fill="#233266" d="M 119.21875 329.085938 L 138.644531 325.441406 L 138.644531 295.574219 L 95.199219 309.148438 C 95.199219 321.847656 106.734375 331.425781 119.21875 329.085938"/><path fill="#F89DD2" d="M 258.128906 189.675781 L 230.972656 189.675781 L 252.699219 249.414062 L 277.328125 242.511719 L 258.128906 189.675781"/><path fill="#F89DD2" d="M 116.921875 189.675781 L 144.078125 189.675781 L 122.351562 249.414062 L 97.886719 242.09375 L 116.921875 189.675781"/><path fill="#3DBC89" d="M 123.140625 171.015625 L 116.921875 189.675781 L 141 198.136719 L 144.078125 189.675781 L 144.078125 260.273438 L 230.972656 260.273438 L 230.972656 189.675781 L 233.96875 197.914062 L 258.128906 189.675781 L 251.910156 171.015625 C 249.136719 162.699219 241.351562 157.09375 232.589844 157.09375 L 142.460938 157.09375 C 133.695312 157.09375 125.914062 162.699219 123.140625 171.015625"/><path fill="#F89DD2" d="M 110.65625 260.273438 L 171.230469 260.273438 L 171.230469 233.121094 L 110.65625 233.125 C 104.933594 233.125 99.828125 236.710938 97.886719 242.09375 C 94.695312 250.941406 101.25 260.273438 110.65625 260.273438"/><path fill="#F89DD2" d="M 264.410156 260.273438 L 203.839844 260.273438 L 203.839844 233.121094 L 264.410156 233.117188 C 270.105469 233.117188 275.191406 236.667969 277.15625 242.011719 C 280.414062 250.875 273.855469 260.273438 264.410156 260.273438"/><path fill="#6778C4" d="M 236.402344 260.273438 L 138.644531 260.273438 L 138.644531 205.96875 L 236.402344 205.96875 L 236.402344 260.273438"/><path fill="#4E61B6" d="M 138.644531 260.273438 L 236.402344 260.273438 L 236.402344 271.136719 L 138.644531 271.136719 L 138.644531 260.273438"/><g clip-path="url(#a)"><path fill="#6778C4" d="M 285.285156 119.078125 L 89.765625 119.078125 L 89.765625 10.464844 L 285.285156 10.464844 L 285.285156 119.078125"/></g><g clip-path="url(#b)"><path fill="#8B98D5" d="M 149.507812 135.371094 L 30.023438 135.371094 L 30.023438 53.910156 L 149.507812 53.910156 L 149.507812 135.371094"/></g><g clip-path="url(#c)"><path fill="#8B98D5" d="M 345.023438 135.371094 L 225.542969 135.371094 L 225.542969 53.910156 L 345.023438 53.910156 L 345.023438 135.371094"/></g><path fill="#6778C4" d="M 97.914062 184.246094 L 40.886719 184.246094 L 40.886719 151.664062 L 97.914062 151.664062 L 97.914062 184.246094"/><path fill="#4E61B6" d="M 59.894531 178.816406 C 59.324219 178.816406 58.753906 178.636719 58.265625 178.273438 L 47.402344 170.125 C 46.722656 169.613281 46.316406 168.808594 46.316406 167.953125 C 46.316406 167.101562 46.722656 166.292969 47.402344 165.78125 L 58.265625 157.636719 C 59.464844 156.738281 61.167969 156.980469 62.066406 158.179688 C 62.96875 159.378906 62.726562 161.082031 61.527344 161.980469 L 53.558594 167.953125 L 61.527344 173.929688 C 62.726562 174.828125 62.96875 176.53125 62.066406 177.726562 C 61.535156 178.441406 60.71875 178.816406 59.894531 178.816406"/><path fill="#4E61B6" d="M 81.621094 178.816406 C 80.933594 178.816406 80.25 178.558594 79.722656 178.039062 C 78.648438 176.992188 78.632812 175.273438 79.679688 174.203125 L 85.796875 167.953125 L 79.679688 161.707031 C 78.632812 160.636719 78.648438 158.917969 79.722656 157.867188 C 80.792969 156.820312 82.511719 156.839844 83.5625 157.910156 L 91.539062 166.054688 C 92.570312 167.109375 92.570312 168.796875 91.539062 169.851562 L 83.5625 178 C 83.027344 178.542969 82.324219 178.816406 81.621094 178.816406"/><path fill="#4E61B6" d="M 68.042969 178.816406 C 67.757812 178.816406 67.46875 178.769531 67.183594 178.675781 C 65.761719 178.203125 64.992188 176.664062 65.46875 175.242188 L 70.898438 158.949219 C 71.371094 157.527344 72.910156 156.761719 74.332031 157.230469 C 75.753906 157.707031 76.523438 159.242188 76.046875 160.667969 L 70.617188 176.960938 C 70.238281 178.097656 69.179688 178.816406 68.042969 178.816406"/><path fill="#EF2D49" d="M 285.285156 105.839844 C 279.097656 105.839844 274.082031 100.828125 274.082031 94.640625 C 274.082031 88.453125 279.097656 83.441406 285.285156 83.441406 C 291.46875 83.441406 296.484375 88.453125 296.484375 94.640625 C 296.484375 100.828125 291.46875 105.839844 285.285156 105.839844 Z M 315.152344 100.070312 L 315.152344 89.210938 L 309.109375 89.210938 C 308.488281 86.484375 307.417969 83.929688 305.972656 81.632812 L 310.246094 77.359375 L 302.566406 69.679688 L 298.289062 73.953125 C 295.996094 72.507812 293.441406 71.4375 290.714844 70.816406 L 290.714844 64.773438 L 279.851562 64.773438 L 279.851562 70.816406 C 277.125 71.4375 274.574219 72.507812 272.277344 73.953125 L 268 69.679688 L 260.320312 77.359375 L 264.597656 81.632812 C 263.152344 83.929688 262.078125 86.484375 261.457031 89.210938 L 255.414062 89.210938 L 255.414062 100.070312 L 261.457031 100.070312 C 262.078125 102.796875 263.152344 105.351562 264.597656 107.648438 L 260.320312 111.921875 L 268 119.601562 L 272.277344 115.328125 C 274.574219 116.773438 277.125 117.84375 279.851562 118.464844 L 279.851562 124.507812 L 290.714844 124.507812 L 290.714844 118.464844 C 293.441406 117.84375 295.996094 116.773438 298.289062 115.328125 L 302.566406 119.601562 L 310.246094 111.921875 L 305.972656 107.648438 C 307.417969 105.351562 308.488281 102.796875 309.109375 100.070312 L 315.152344 100.070312"/><path fill="#8B98D5" d="M 339.390625 205.867188 C 339.390625 217.808594 329.710938 227.488281 317.769531 227.488281 C 305.828125 227.488281 296.144531 217.808594 296.144531 205.867188 C 296.144531 193.925781 305.828125 184.246094 317.769531 184.246094 C 329.710938 184.246094 339.390625 193.925781 339.390625 205.867188"/><path fill="#4E61B6" d="M 111.492188 24.042969 L 100.628906 24.042969 C 99.128906 24.042969 97.914062 22.828125 97.914062 21.328125 C 97.914062 19.828125 99.128906 18.613281 100.628906 18.613281 L 111.492188 18.613281 C 112.992188 18.613281 114.207031 19.828125 114.207031 21.328125 C 114.207031 22.828125 112.992188 24.042969 111.492188 24.042969"/><path fill="#4E61B6" d="M 111.492188 34.902344 L 100.628906 34.902344 C 99.128906 34.902344 97.914062 33.6875 97.914062 32.1875 C 97.914062 30.6875 99.128906 29.472656 100.628906 29.472656 L 111.492188 29.472656 C 112.992188 29.472656 114.207031 30.6875 114.207031 32.1875 C 114.207031 33.6875 112.992188 34.902344 111.492188 34.902344"/><path fill="#4E61B6" d="M 111.492188 45.765625 L 100.628906 45.765625 C 99.128906 45.765625 97.914062 44.550781 97.914062 43.050781 C 97.914062 41.550781 99.128906 40.335938 100.628906 40.335938 L 111.492188 40.335938 C 112.992188 40.335938 114.207031 41.550781 114.207031 43.050781 C 114.207031 44.550781 112.992188 45.765625 111.492188 45.765625"/><path fill="#4E61B6" d="M 165.800781 24.042969 L 122.351562 24.042969 C 120.851562 24.042969 119.636719 22.828125 119.636719 21.328125 C 119.636719 19.828125 120.851562 18.613281 122.351562 18.613281 L 165.800781 18.613281 C 167.300781 18.613281 168.515625 19.828125 168.515625 21.328125 C 168.515625 22.828125 167.300781 24.042969 165.800781 24.042969"/><path fill="#4E61B6" d="M 274.421875 24.042969 L 182.09375 24.042969 C 180.59375 24.042969 179.378906 22.828125 179.378906 21.328125 C 179.378906 19.828125 180.59375 18.613281 182.09375 18.613281 L 274.421875 18.613281 C 275.921875 18.613281 277.136719 19.828125 277.136719 21.328125 C 277.136719 22.828125 275.921875 24.042969 274.421875 24.042969"/><path fill="#4E61B6" d="M 192.957031 34.902344 L 122.351562 34.902344 C 120.851562 34.902344 119.636719 33.6875 119.636719 32.1875 C 119.636719 30.6875 120.851562 29.472656 122.351562 29.472656 L 192.957031 29.472656 C 194.457031 29.472656 195.671875 30.6875 195.671875 32.1875 C 195.671875 33.6875 194.457031 34.902344 192.957031 34.902344"/><path fill="#4E61B6" d="M 274.421875 34.902344 L 214.679688 34.902344 C 213.179688 34.902344 211.964844 33.6875 211.964844 32.1875 C 211.964844 30.6875 213.179688 29.472656 214.679688 29.472656 L 274.421875 29.472656 C 275.921875 29.472656 277.136719 30.6875 277.136719 32.1875 C 277.136719 33.6875 275.921875 34.902344 274.421875 34.902344"/><path fill="#4E61B6" d="M 149.507812 45.765625 L 122.351562 45.765625 C 120.851562 45.765625 119.636719 44.550781 119.636719 43.050781 C 119.636719 41.550781 120.851562 40.335938 122.351562 40.335938 L 149.507812 40.335938 C 151.007812 40.335938 152.222656 41.550781 152.222656 43.050781 C 152.222656 44.550781 151.007812 45.765625 149.507812 45.765625"/><path fill="#4E61B6" d="M 230.972656 45.765625 L 160.371094 45.765625 C 158.867188 45.765625 157.652344 44.550781 157.652344 43.050781 C 157.652344 41.550781 158.867188 40.335938 160.371094 40.335938 L 230.972656 40.335938 C 232.472656 40.335938 233.6875 41.550781 233.6875 43.050781 C 233.6875 44.550781 232.472656 45.765625 230.972656 45.765625"/><path fill="#4E61B6" d="M 274.421875 45.765625 L 241.835938 45.765625 C 240.335938 45.765625 239.121094 44.550781 239.121094 43.050781 C 239.121094 41.550781 240.335938 40.335938 241.835938 40.335938 L 274.421875 40.335938 C 275.921875 40.335938 277.136719 41.550781 277.136719 43.050781 C 277.136719 44.550781 275.921875 45.765625 274.421875 45.765625"/><path fill="#4E61B6" d="M 187.523438 56.625 L 160.371094 56.625 C 158.867188 56.625 157.652344 55.410156 157.652344 53.910156 C 157.652344 52.410156 158.867188 51.195312 160.371094 51.195312 L 187.523438 51.195312 C 189.027344 51.195312 190.242188 52.410156 190.242188 53.910156 C 190.242188 55.410156 189.027344 56.625 187.523438 56.625"/><path fill="#4E61B6" d="M 214.679688 67.488281 L 182.09375 67.488281 C 180.59375 67.488281 179.378906 66.273438 179.378906 64.773438 C 179.378906 63.269531 180.59375 62.058594 182.09375 62.058594 L 214.679688 62.058594 C 216.179688 62.058594 217.394531 63.269531 217.394531 64.773438 C 217.394531 66.273438 216.179688 67.488281 214.679688 67.488281"/><path fill="#4E61B6" d="M 182.09375 78.347656 L 160.371094 78.347656 C 158.867188 78.347656 157.652344 77.132812 157.652344 75.632812 C 157.652344 74.132812 158.867188 72.917969 160.371094 72.917969 L 182.09375 72.917969 C 183.59375 72.917969 184.808594 74.132812 184.808594 75.632812 C 184.808594 77.132812 183.59375 78.347656 182.09375 78.347656"/><path fill="#4E61B6" d="M 214.679688 78.347656 L 198.386719 78.347656 C 196.886719 78.347656 195.671875 77.132812 195.671875 75.632812 C 195.671875 74.132812 196.886719 72.917969 198.386719 72.917969 L 214.679688 72.917969 C 216.179688 72.917969 217.394531 74.132812 217.394531 75.632812 C 217.394531 77.132812 216.179688 78.347656 214.679688 78.347656"/><path fill="#4E61B6" d="M 198.386719 89.210938 L 160.371094 89.210938 C 158.867188 89.210938 157.652344 87.996094 157.652344 86.496094 C 157.652344 84.992188 158.867188 83.78125 160.371094 83.78125 L 198.386719 83.78125 C 199.886719 83.78125 201.101562 84.992188 201.101562 86.496094 C 201.101562 87.996094 199.886719 89.210938 198.386719 89.210938"/><path fill="#4E61B6" d="M 214.679688 89.210938 L 209.25 89.210938 C 207.75 89.210938 206.535156 87.996094 206.535156 86.496094 C 206.535156 84.992188 207.75 83.78125 209.25 83.78125 L 214.679688 83.78125 C 216.179688 83.78125 217.394531 84.992188 217.394531 86.496094 C 217.394531 87.996094 216.179688 89.210938 214.679688 89.210938"/><path fill="#4E61B6" d="M 165.800781 100.070312 L 160.371094 100.070312 C 158.867188 100.070312 157.652344 98.855469 157.652344 97.355469 C 157.652344 95.855469 158.867188 94.640625 160.371094 94.640625 L 165.800781 94.640625 C 167.300781 94.640625 168.515625 95.855469 168.515625 97.355469 C 168.515625 98.855469 167.300781 100.070312 165.800781 100.070312"/><path fill="#4E61B6" d="M 328.730469 203.253906 L 320.585938 203.253906 L 320.585938 195.105469 C 320.585938 193.605469 319.371094 192.390625 317.871094 192.390625 C 316.367188 192.390625 315.152344 193.605469 315.152344 195.105469 L 315.152344 203.253906 L 307.007812 203.253906 C 305.507812 203.253906 304.292969 204.46875 304.292969 205.96875 C 304.292969 207.46875 305.507812 208.683594 307.007812 208.683594 L 315.152344 208.683594 L 315.152344 216.828125 C 315.152344 218.332031 316.367188 219.542969 317.871094 219.542969 C 319.371094 219.542969 320.585938 218.332031 320.585938 216.828125 L 320.585938 208.683594 L 328.730469 208.683594 C 330.234375 208.683594 331.449219 207.46875 331.449219 205.96875 C 331.449219 204.46875 330.234375 203.253906 328.730469 203.253906"/><path fill="#F39710" d="M 76.1875 124.507812 L 68.042969 124.507812 L 68.042969 108.21875 L 78.902344 108.21875 L 76.1875 124.507812"/><path fill="#F39710" d="M 68.042969 110.933594 L 61.875 110.933594 C 59.28125 110.933594 57.179688 108.828125 57.179688 106.238281 L 57.179688 93.90625 C 57.179688 91.3125 59.28125 89.210938 61.875 89.210938 L 68.042969 89.210938 L 68.042969 110.933594"/><path fill="#4E61B6" d="M 198.386719 233.121094 C 198.386719 239.121094 193.523438 243.984375 187.523438 243.984375 C 181.527344 243.984375 176.664062 239.121094 176.664062 233.121094 C 176.664062 227.125 181.527344 222.261719 187.523438 222.261719 L 187.523438 233.121094 L 198.386719 233.121094"/><path fill="#F89DD2" d="M 177.285156 157.871094 L 177.285156 129.496094 L 197.457031 144.621094 L 197.457031 157.871094 C 197.457031 163.4375 192.941406 167.953125 187.371094 167.953125 C 181.800781 167.953125 177.285156 163.4375 177.285156 157.871094"/><path fill="#E8509A" d="M 181.320312 129.628906 L 197.457031 129.628906 L 197.457031 153.832031 C 188.546875 153.832031 181.320312 146.609375 181.320312 137.699219 L 181.320312 129.628906"/><path fill="#F89DD2" d="M 177.285156 109.457031 L 209.5625 109.457031 L 209.5625 139.714844 C 209.5625 145.285156 205.046875 149.800781 199.476562 149.800781 C 187.21875 149.800781 177.285156 139.863281 177.285156 127.613281 L 177.285156 109.457031"/><path fill="#273F86" d="M 208.320312 101.390625 L 217.632812 101.390625 L 217.632812 104.28125 C 217.632812 113.824219 213.929688 121.558594 204.386719 121.558594 C 202.472656 121.558594 200.570312 121.242188 198.757812 120.617188 L 189.390625 117.390625 C 189.390625 124.152344 183.910156 129.628906 177.152344 129.628906 L 171.234375 129.628906 L 171.230469 114.855469 C 171.230469 105.191406 179.066406 97.355469 188.730469 97.355469 C 190.328125 97.355469 191.917969 97.574219 193.453125 98.003906 L 202.839844 100.636719 C 204.625 101.136719 206.46875 101.390625 208.320312 101.390625"/><path fill="#F89DD2" d="M 183.492188 129.90625 C 183.492188 133.292969 180.75 136.039062 177.363281 136.039062 C 173.980469 136.039062 171.234375 133.292969 171.234375 129.90625 C 171.234375 126.523438 173.980469 123.78125 177.363281 123.78125 C 180.75 123.78125 183.492188 126.523438 183.492188 129.90625"/><path fill="#2E4FA9" d="M 236.402344 325.441406 L 82.023438 299.710938 C 77.089844 298.890625 73.472656 294.625 73.472656 289.621094 C 73.472656 271.957031 90.074219 258.992188 107.214844 263.277344 L 236.402344 295.574219 L 236.402344 325.441406"/><path fill="#233266" d="M 253.164062 328.585938 L 236.402344 325.441406 L 236.402344 295.574219 L 279.851562 306.433594 C 279.851562 320.542969 267.03125 331.183594 253.164062 328.585938"/><g clip-path="url(#d)"><path fill="#4E61B6" d="M 149.507812 70.203125 L 30.023438 70.203125 L 30.023438 53.910156 L 149.507812 53.910156 L 149.507812 70.203125"/></g><path fill="#8B98D5" d="M 43.601562 62.058594 C 43.601562 63.558594 42.386719 64.773438 40.886719 64.773438 C 39.386719 64.773438 38.171875 63.558594 38.171875 62.058594 C 38.171875 60.554688 39.386719 59.339844 40.886719 59.339844 C 42.386719 59.339844 43.601562 60.554688 43.601562 62.058594"/><path fill="#8B98D5" d="M 54.464844 62.058594 C 54.464844 63.558594 53.25 64.773438 51.75 64.773438 C 50.25 64.773438 49.035156 63.558594 49.035156 62.058594 C 49.035156 60.554688 50.25 59.339844 51.75 59.339844 C 53.25 59.339844 54.464844 60.554688 54.464844 62.058594"/><path fill="#8B98D5" d="M 65.328125 62.058594 C 65.328125 63.558594 64.113281 64.773438 62.609375 64.773438 C 61.109375 64.773438 59.894531 63.558594 59.894531 62.058594 C 59.894531 60.554688 61.109375 59.339844 62.609375 59.339844 C 64.113281 59.339844 65.328125 60.554688 65.328125 62.058594"/><path fill="#F8C010" d="M 116.921875 81.0625 L 116.921875 119.078125 L 68.042969 110.933594 L 68.042969 89.210938 L 116.921875 81.0625"/><path fill="#E5681A" d="M 116.921875 97.355469 L 106.058594 97.355469 C 104.558594 97.355469 103.34375 96.140625 103.34375 94.640625 C 103.34375 93.140625 104.558594 91.925781 106.058594 91.925781 L 116.921875 91.925781 L 116.921875 97.355469"/><path fill="#E5681A" d="M 116.921875 108.21875 L 106.058594 108.21875 C 104.558594 108.21875 103.34375 107.003906 103.34375 105.5 C 103.34375 104 104.558594 102.785156 106.058594 102.785156 L 116.921875 102.785156 L 116.921875 108.21875"/><path fill="#E8509A" d="M 110.65625 235.839844 C 109.15625 235.839844 107.941406 234.621094 107.941406 233.125 C 107.941406 231.625 109.15625 230.410156 110.65625 230.410156 L 125.066406 230.40625 C 126.570312 230.40625 127.785156 231.621094 127.785156 233.121094 C 127.785156 234.621094 126.570312 235.835938 125.066406 235.835938 L 110.65625 235.839844"/><path fill="#E8509A" d="M 249.980469 235.835938 C 248.480469 235.835938 247.265625 234.621094 247.265625 233.121094 C 247.265625 231.625 248.480469 230.40625 249.980469 230.40625 L 264.410156 230.402344 C 265.910156 230.402344 267.125 231.617188 267.125 233.117188 C 267.125 234.617188 265.910156 235.835938 264.410156 235.835938 L 249.980469 235.835938"/></svg>